<svg xmlns="http://www.w3.org/2000/svg" xmlns:xlink="http://www.w3.org/1999/xlink" width="100" zoomAndPan="magnify" viewBox="0 0 75 225" height="300" preserveAspectRatio="xMidYMid meet" version="1.0"><defs><clipPath id="id1"><path d="M 53 40 L 60 40 L 60 46 L 53 46 Z M 53 40 " clip-rule="nonzero"/></clipPath><clipPath id="id2"><path d="M -51.910156 82.96875 L 57.628906 20.699219 L 126.570312 141.972656 L 17.035156 204.242188 Z M -51.910156 82.96875 " clip-rule="nonzero"/></clipPath><clipPath id="id3"><path d="M -51.910156 82.96875 L 57.628906 20.699219 L 126.570312 141.972656 L 17.035156 204.242188 Z M -51.910156 82.96875 " clip-rule="nonzero"/></clipPath><clipPath id="id4"><path d="M 51 23 L 61 23 L 61 40 L 51 40 Z M 51 23 " clip-rule="nonzero"/></clipPath><clipPath id="id5"><path d="M -51.910156 82.96875 L 57.628906 20.699219 L 126.570312 141.972656 L 17.035156 204.242188 Z M -51.910156 82.96875 " clip-rule="nonzero"/></clipPath><clipPath id="id6"><path d="M -51.910156 82.96875 L 57.628906 20.699219 L 126.570312 141.972656 L 17.035156 204.242188 Z M -51.910156 82.96875 " clip-rule="nonzero"/></clipPath><clipPath id="id7"><path d="M 42 51 L 49 51 L 49 58 L 42 58 Z M 42 51 " clip-rule="nonzero"/></clipPath><clipPath id="id8"><path d="M -51.910156 82.96875 L 57.628906 20.699219 L 126.570312 141.972656 L 17.035156 204.242188 Z M -51.910156 82.96875 " clip-rule="nonzero"/></clipPath><clipPath id="id9"><path d="M -51.910156 82.96875 L 57.628906 20.699219 L 126.570312 141.972656 L 17.035156 204.242188 Z M -51.910156 82.96875 " clip-rule="nonzero"/></clipPath><clipPath id="id10"><path d="M 37 36 L 48 36 L 48 53 L 37 53 Z M 37 36 " clip-rule="nonzero"/></clipPath><clipPath id="id11"><path d="M -51.910156 82.96875 L 57.628906 20.699219 L 126.570312 141.972656 L 17.035156 204.242188 Z M -51.910156 82.96875 " clip-rule="nonzero"/></clipPath><clipPath id="id12"><path d="M -51.910156 82.96875 L 57.628906 20.699219 L 126.570312 141.972656 L 17.035156 204.242188 Z M -51.910156 82.96875 " clip-rule="nonzero"/></clipPath><clipPath id="id13"><path d="M 57 79 L 63 79 L 63 85 L 57 85 Z M 57 79 " clip-rule="nonzero"/></clipPath><clipPath id="id14"><path d="M -51.910156 82.96875 L 57.628906 20.699219 L 126.570312 141.972656 L 17.035156 204.242188 Z M -51.910156 82.96875 " clip-rule="nonzero"/></clipPath><clipPath id="id15"><path d="M -51.910156 82.96875 L 57.628906 20.699219 L 126.570312 141.972656 L 17.035156 204.242188 Z M -51.910156 82.96875 " clip-rule="nonzero"/></clipPath><clipPath id="id16"><path d="M 58 63 L 68 63 L 68 80 L 58 80 Z M 58 63 " clip-rule="nonzero"/></clipPath><clipPath id="id17"><path d="M -51.910156 82.96875 L 57.628906 20.699219 L 126.570312 141.972656 L 17.035156 204.242188 Z M -51.910156 82.96875 " clip-rule="nonzero"/></clipPath><clipPath id="id18"><path d="M -51.910156 82.96875 L 57.628906 20.699219 L 126.570312 141.972656 L 17.035156 204.242188 Z M -51.910156 82.96875 " clip-rule="nonzero"/></clipPath><clipPath id="id19"><path d="M 43 88 L 49 88 L 49 94 L 43 94 Z M 43 88 " clip-rule="nonzero"/></clipPath><clipPath id="id20"><path d="M -51.910156 82.96875 L 57.628906 20.699219 L 126.570312 141.972656 L 17.035156 204.242188 Z M -51.910156 82.96875 " clip-rule="nonzero"/></clipPath><clipPath id="id21"><path d="M -51.910156 82.96875 L 57.628906 20.699219 L 126.570312 141.972656 L 17.035156 204.242188 Z M -51.910156 82.96875 " clip-rule="nonzero"/></clipPath><clipPath id="id22"><path d="M 41 71 L 50 71 L 50 88 L 41 88 Z M 41 71 " clip-rule="nonzero"/></clipPath><clipPath id="id23"><path d="M -51.910156 82.96875 L 57.628906 20.699219 L 126.570312 141.972656 L 17.035156 204.242188 Z M -51.910156 82.96875 " clip-rule="nonzero"/></clipPath><clipPath id="id24"><path d="M -51.910156 82.96875 L 57.628906 20.699219 L 126.570312 141.972656 L 17.035156 204.242188 Z M -51.910156 82.96875 " clip-rule="nonzero"/></clipPath><clipPath id="id25"><path d="M 43 116 L 51 116 L 51 123 L 43 123 Z M 43 116 " clip-rule="nonzero"/></clipPath><clipPath id="id26"><path d="M -51.910156 82.96875 L 57.628906 20.699219 L 126.570312 141.972656 L 17.035156 204.242188 Z M -51.910156 82.96875 " clip-rule="nonzero"/></clipPath><clipPath id="id27"><path d="M -51.910156 82.96875 L 57.628906 20.699219 L 126.570312 141.972656 L 17.035156 204.242188 Z M -51.910156 82.96875 " clip-rule="nonzero"/></clipPath><clipPath id="id28"><path d="M 46 104 L 60 104 L 60 120 L 46 120 Z M 46 104 " clip-rule="nonzero"/></clipPath><clipPath id="id29"><path d="M -51.910156 82.96875 L 57.628906 20.699219 L 126.570312 141.972656 L 17.035156 204.242188 Z M -51.910156 82.96875 " clip-rule="nonzero"/></clipPath><clipPath id="id30"><path d="M -51.910156 82.96875 L 57.628906 20.699219 L 126.570312 141.972656 L 17.035156 204.242188 Z M -51.910156 82.96875 " clip-rule="nonzero"/></clipPath><clipPath id="id31"><path d="M 27 119 L 34 119 L 34 126 L 27 126 Z M 27 119 " clip-rule="nonzero"/></clipPath><clipPath id="id32"><path d="M -51.910156 82.96875 L 57.628906 20.699219 L 126.570312 141.972656 L 17.035156 204.242188 Z M -51.910156 82.96875 " clip-rule="nonzero"/></clipPath><clipPath id="id33"><path d="M -51.910156 82.96875 L 57.628906 20.699219 L 126.570312 141.972656 L 17.035156 204.242188 Z M -51.910156 82.96875 " clip-rule="nonzero"/></clipPath><clipPath id="id34"><path d="M 29 104 L 41 104 L 41 121 L 29 121 Z M 29 104 " clip-rule="nonzero"/></clipPath><clipPath id="id35"><path d="M -51.910156 82.96875 L 57.628906 20.699219 L 126.570312 141.972656 L 17.035156 204.242188 Z M -51.910156 82.96875 " clip-rule="nonzero"/></clipPath><clipPath id="id36"><path d="M -51.910156 82.96875 L 57.628906 20.699219 L 126.570312 141.972656 L 17.035156 204.242188 Z M -51.910156 82.96875 " clip-rule="nonzero"/></clipPath><clipPath id="id37"><path d="M 31 151 L 38 151 L 38 158 L 31 158 Z M 31 151 " clip-rule="nonzero"/></clipPath><clipPath id="id38"><path d="M -51.910156 82.96875 L 57.628906 20.699219 L 126.570312 141.972656 L 17.035156 204.242188 Z M -51.910156 82.96875 " clip-rule="nonzero"/></clipPath><clipPath id="id39"><path d="M -51.910156 82.96875 L 57.628906 20.699219 L 126.570312 141.972656 L 17.035156 204.242188 Z M -51.910156 82.96875 " clip-rule="nonzero"/></clipPath><clipPath id="id40"><path d="M 33 136 L 45 136 L 45 153 L 33 153 Z M 33 136 " clip-rule="nonzero"/></clipPath><clipPath id="id41"><path d="M -51.910156 82.96875 L 57.628906 20.699219 L 126.570312 141.972656 L 17.035156 204.242188 Z M -51.910156 82.96875 " clip-rule="nonzero"/></clipPath><clipPath id="id42"><path d="M -51.910156 82.96875 L 57.628906 20.699219 L 126.570312 141.972656 L 17.035156 204.242188 Z M -51.910156 82.96875 " clip-rule="nonzero"/></clipPath><clipPath id="id43"><path d="M 16 158 L 23 158 L 23 164 L 16 164 Z M 16 158 " clip-rule="nonzero"/></clipPath><clipPath id="id44"><path d="M -51.910156 82.96875 L 57.628906 20.699219 L 126.570312 141.972656 L 17.035156 204.242188 Z M -51.910156 82.96875 " clip-rule="nonzero"/></clipPath><clipPath id="id45"><path d="M -51.910156 82.96875 L 57.628906 20.699219 L 126.570312 141.972656 L 17.035156 204.242188 Z M -51.910156 82.96875 " clip-rule="nonzero"/></clipPath><clipPath id="id46"><path d="M 17 141 L 26 141 L 26 158 L 17 158 Z M 17 141 " clip-rule="nonzero"/></clipPath><clipPath id="id47"><path d="M -51.910156 82.96875 L 57.628906 20.699219 L 126.570312 141.972656 L 17.035156 204.242188 Z M -51.910156 82.96875 " clip-rule="nonzero"/></clipPath><clipPath id="id48"><path d="M -51.910156 82.96875 L 57.628906 20.699219 L 126.570312 141.972656 L 17.035156 204.242188 Z M -51.910156 82.96875 " clip-rule="nonzero"/></clipPath><clipPath id="id49"><path d="M 28 187 L 35 187 L 35 194 L 28 194 Z M 28 187 " clip-rule="nonzero"/></clipPath><clipPath id="id50"><path d="M -51.910156 82.96875 L 57.628906 20.699219 L 126.570312 141.972656 L 17.035156 204.242188 Z M -51.910156 82.96875 " clip-rule="nonzero"/></clipPath><clipPath id="id51"><path d="M -51.910156 82.96875 L 57.628906 20.699219 L 126.570312 141.972656 L 17.035156 204.242188 Z M -51.910156 82.96875 " clip-rule="nonzero"/></clipPath><clipPath id="id52"><path d="M 29 171 L 38 171 L 38 188 L 29 188 Z M 29 171 " clip-rule="nonzero"/></clipPath><clipPath id="id53"><path d="M -51.910156 82.96875 L 57.628906 20.699219 L 126.570312 141.972656 L 17.035156 204.242188 Z M -51.910156 82.96875 " clip-rule="nonzero"/></clipPath><clipPath id="id54"><path d="M -51.910156 82.96875 L 57.628906 20.699219 L 126.570312 141.972656 L 17.035156 204.242188 Z M -51.910156 82.96875 " clip-rule="nonzero"/></clipPath><clipPath id="id55"><path d="M 15 197 L 21 197 L 21 204 L 15 204 Z M 15 197 " clip-rule="nonzero"/></clipPath><clipPath id="id56"><path d="M -51.910156 82.96875 L 57.628906 20.699219 L 126.570312 141.972656 L 17.035156 204.242188 Z M -51.910156 82.96875 " clip-rule="nonzero"/></clipPath><clipPath id="id57"><path d="M -51.910156 82.96875 L 57.628906 20.699219 L 126.570312 141.972656 L 17.035156 204.242188 Z M -51.910156 82.96875 " clip-rule="nonzero"/></clipPath><clipPath id="id58"><path d="M 12 180 L 22 180 L 22 198 L 12 198 Z M 12 180 " clip-rule="nonzero"/></clipPath><clipPath id="id59"><path d="M -51.910156 82.96875 L 57.628906 20.699219 L 126.570312 141.972656 L 17.035156 204.242188 Z M -51.910156 82.96875 " clip-rule="nonzero"/></clipPath><clipPath id="id60"><path d="M -51.910156 82.96875 L 57.628906 20.699219 L 126.570312 141.972656 L 17.035156 204.242188 Z M -51.910156 82.96875 " clip-rule="nonzero"/></clipPath></defs><g clip-path="url(#id1)"><g clip-path="url(#id2)"><g clip-path="url(#id3)"><path fill="#ffffff" d="M 53.769531 42.734375 C 53.785156 43.945312 54.628906 44.988281 55.808594 45.261719 C 56.21875 45.355469 56.648438 45.351562 57.054688 45.246094 C 58.230469 44.941406 59.042969 43.878906 59.027344 42.664062 L 58.992188 40.296875 L 53.738281 40.363281 L 53.769531 42.734375 " fill-opacity="1" fill-rule="nonzero"/></g></g></g><g clip-path="url(#id4)"><g clip-path="url(#id5)"><g clip-path="url(#id6)"><path fill="#ffffff" d="M 53.554688 24.105469 C 51.921875 25.949219 51.390625 30.972656 52.742188 33.042969 C 54.203125 35.28125 53.707031 38.019531 53.710938 38.457031 C 53.714844 38.765625 53.722656 39.121094 53.722656 39.121094 L 58.976562 39.054688 C 58.976562 38.859375 58.9375 38.609375 58.96875 38.390625 C 59.203125 36.671875 60.933594 31.878906 59.886719 28.347656 C 57.617188 20.707031 54.039062 23.558594 53.554688 24.105469 " fill-opacity="1" fill-rule="nonzero"/></g></g></g><g clip-path="url(#id7)"><g clip-path="url(#id8)"><g clip-path="url(#id9)"><path fill="#ffffff" d="M 45.832031 57.609375 C 46.25 57.582031 46.660156 57.453125 47.019531 57.234375 C 48.058594 56.605469 48.53125 55.351562 48.167969 54.195312 L 47.457031 51.933594 L 42.441406 53.511719 L 43.152344 55.769531 C 43.515625 56.925781 44.621094 57.6875 45.832031 57.609375 " fill-opacity="1" fill-rule="nonzero"/></g></g></g><g clip-path="url(#id10)"><g clip-path="url(#id11)"><g clip-path="url(#id12)"><path fill="#ffffff" d="M 42.070312 52.324219 L 47.082031 50.75 C 47.082031 50.75 46.976562 50.40625 46.882812 50.113281 C 46.753906 49.695312 45.425781 47.253906 46.113281 44.667969 C 46.75 42.28125 44.800781 37.632812 42.675781 36.394531 C 42.042969 36.023438 37.625 34.472656 37.859375 42.4375 C 37.96875 46.121094 41.109375 50.136719 41.871094 51.691406 C 41.964844 51.890625 42.011719 52.136719 42.070312 52.324219 " fill-opacity="1" fill-rule="nonzero"/></g></g></g><g clip-path="url(#id13)"><g clip-path="url(#id14)"><g clip-path="url(#id15)"><path fill="#ffffff" d="M 57.125 81.464844 C 56.789062 82.628906 57.292969 83.875 58.34375 84.476562 C 58.710938 84.683594 59.121094 84.804688 59.542969 84.820312 C 60.753906 84.871094 61.839844 84.085938 62.175781 82.921875 L 62.832031 80.644531 L 57.777344 79.1875 L 57.125 81.464844 " fill-opacity="1" fill-rule="nonzero"/></g></g></g><g clip-path="url(#id16)"><g clip-path="url(#id17)"><g clip-path="url(#id18)"><path fill="#ffffff" d="M 62.300781 63.574219 C 60.207031 64.867188 58.246094 69.519531 58.941406 71.894531 C 59.691406 74.460938 58.425781 76.933594 58.304688 77.355469 C 58.21875 77.652344 58.121094 77.996094 58.121094 77.996094 L 63.175781 79.449219 C 63.230469 79.261719 63.265625 79.011719 63.359375 78.8125 C 64.078125 77.238281 67.121094 73.152344 67.140625 69.464844 C 67.179688 61.496094 62.925781 63.191406 62.300781 63.574219 " fill-opacity="1" fill-rule="nonzero"/></g></g></g><g clip-path="url(#id19)"><g clip-path="url(#id20)"><g clip-path="url(#id21)"><path fill="#ffffff" d="M 45.222656 93.40625 C 45.632812 93.5 46.0625 93.496094 46.472656 93.390625 C 47.644531 93.09375 48.460938 92.027344 48.445312 90.816406 L 48.417969 88.445312 L 43.164062 88.503906 L 43.1875 90.875 C 43.203125 92.085938 44.042969 93.132812 45.222656 93.40625 " fill-opacity="1" fill-rule="nonzero"/></g></g></g><g clip-path="url(#id22)"><g clip-path="url(#id23)"><g clip-path="url(#id24)"><path fill="#ffffff" d="M 41.976562 76.578125 C 41.015625 80.136719 42.863281 84.886719 43.140625 86.597656 C 43.175781 86.816406 43.144531 87.066406 43.148438 87.261719 L 48.40625 87.203125 C 48.40625 87.203125 48.402344 86.847656 48.398438 86.539062 C 48.394531 86.101562 47.828125 83.378906 49.234375 81.105469 C 50.535156 79.003906 50.011719 73.992188 48.335938 72.1875 C 47.835938 71.652344 44.054688 68.886719 41.976562 76.578125 " fill-opacity="1" fill-rule="nonzero"/></g></g></g><g clip-path="url(#id25)"><g clip-path="url(#id26)"><g clip-path="url(#id27)"><path fill="#ffffff" d="M 44.535156 118.617188 C 43.761719 119.550781 43.726562 120.890625 44.449219 121.863281 C 44.699219 122.203125 45.027344 122.476562 45.410156 122.660156 C 46.5 123.191406 47.808594 122.910156 48.582031 121.976562 L 50.09375 120.152344 L 46.046875 116.792969 L 44.535156 118.617188 " fill-opacity="1" fill-rule="nonzero"/></g></g></g><g clip-path="url(#id28)"><g clip-path="url(#id29)"><g clip-path="url(#id30)"><path fill="#ffffff" d="M 56.445312 104.300781 C 54.007812 104.644531 50.347656 108.125 50.035156 110.578125 C 49.695312 113.230469 47.542969 114.988281 47.261719 115.328125 C 47.066406 115.5625 46.839844 115.839844 46.839844 115.839844 L 50.886719 119.195312 C 51.011719 119.046875 51.144531 118.832031 51.308594 118.683594 C 52.601562 117.53125 57.027344 115.007812 58.519531 111.636719 C 61.746094 104.351562 57.167969 104.203125 56.445312 104.300781 " fill-opacity="1" fill-rule="nonzero"/></g></g></g><g clip-path="url(#id31)"><g clip-path="url(#id32)"><g clip-path="url(#id33)"><path fill="#ffffff" d="M 29.996094 125.277344 C 31.191406 125.46875 32.367188 124.824219 32.835938 123.707031 L 33.761719 121.527344 L 28.921875 119.472656 L 27.996094 121.652344 C 27.523438 122.769531 27.875 124.0625 28.847656 124.789062 C 29.183594 125.039062 29.578125 125.207031 29.996094 125.277344 " fill-opacity="1" fill-rule="nonzero"/></g></g></g><g clip-path="url(#id34)"><g clip-path="url(#id35)"><g clip-path="url(#id36)"><path fill="#ffffff" d="M 40.195312 106.597656 C 39.953125 105.90625 37.59375 101.859375 32.609375 108.074219 C 30.304688 110.949219 30.097656 116.039062 29.664062 117.71875 C 29.609375 117.929688 29.484375 118.148438 29.40625 118.328125 L 34.246094 120.382812 C 34.246094 120.382812 34.386719 120.054688 34.507812 119.769531 C 34.675781 119.367188 35.25 116.644531 37.449219 115.125 C 39.484375 113.722656 41.011719 108.921875 40.195312 106.597656 " fill-opacity="1" fill-rule="nonzero"/></g></g></g><g clip-path="url(#id37)"><g clip-path="url(#id38)"><g clip-path="url(#id39)"><path fill="#ffffff" d="M 32 153.308594 C 31.488281 154.40625 31.792969 155.710938 32.738281 156.472656 C 33.066406 156.738281 33.453125 156.917969 33.867188 157 C 35.054688 157.238281 36.25 156.636719 36.765625 155.539062 L 37.769531 153.390625 L 33.003906 151.164062 L 32 153.308594 " fill-opacity="1" fill-rule="nonzero"/></g></g></g><g clip-path="url(#id40)"><g clip-path="url(#id41)"><g clip-path="url(#id42)"><path fill="#ffffff" d="M 39.917969 136.449219 C 37.644531 137.398438 34.980469 141.6875 35.296875 144.140625 C 35.636719 146.789062 33.996094 149.039062 33.8125 149.433594 C 33.683594 149.710938 33.53125 150.035156 33.53125 150.035156 L 38.292969 152.265625 C 38.375 152.089844 38.453125 151.847656 38.574219 151.664062 C 39.535156 150.222656 43.175781 146.664062 43.773438 143.023438 C 45.058594 135.160156 40.59375 136.167969 39.917969 136.449219 " fill-opacity="1" fill-rule="nonzero"/></g></g></g><g clip-path="url(#id43)"><g clip-path="url(#id44)"><g clip-path="url(#id45)"><path fill="#ffffff" d="M 19.613281 163.417969 C 20.820312 163.304688 21.792969 162.382812 21.96875 161.183594 L 22.3125 158.839844 L 17.109375 158.074219 L 16.765625 160.417969 C 16.589844 161.617188 17.257812 162.78125 18.378906 163.234375 C 18.769531 163.394531 19.191406 163.457031 19.613281 163.417969 " fill-opacity="1" fill-rule="nonzero"/></g></g></g><g clip-path="url(#id46)"><g clip-path="url(#id47)"><g clip-path="url(#id48)"><path fill="#ffffff" d="M 24.773438 142.769531 C 24.367188 142.160156 21.0625 138.839844 17.804688 146.109375 C 16.300781 149.472656 17.382812 154.453125 17.386719 156.1875 C 17.386719 156.40625 17.320312 156.648438 17.289062 156.84375 L 22.492188 157.609375 C 22.492188 157.609375 22.542969 157.257812 22.589844 156.953125 C 22.652344 156.519531 22.523438 153.742188 24.265625 151.714844 C 25.878906 149.84375 26.148438 144.8125 24.773438 142.769531 " fill-opacity="1" fill-rule="nonzero"/></g></g></g><g clip-path="url(#id49)"><g clip-path="url(#id50)"><g clip-path="url(#id51)"><path fill="#ffffff" d="M 28.574219 190.023438 C 28.34375 191.210938 28.960938 192.40625 30.0625 192.910156 C 30.445312 193.085938 30.867188 193.164062 31.289062 193.144531 C 32.496094 193.085938 33.507812 192.203125 33.734375 191.015625 L 34.179688 188.6875 L 29.019531 187.695312 L 28.574219 190.023438 " fill-opacity="1" fill-rule="nonzero"/></g></g></g><g clip-path="url(#id52)"><g clip-path="url(#id53)"><g clip-path="url(#id54)"><path fill="#ffffff" d="M 32.105469 171.734375 C 30.136719 173.210938 28.605469 178.023438 29.515625 180.324219 C 30.496094 182.8125 29.457031 185.390625 29.375 185.824219 C 29.320312 186.125 29.25 186.476562 29.25 186.476562 L 34.414062 187.464844 C 34.453125 187.273438 34.46875 187.023438 34.539062 186.816406 C 35.113281 185.179688 37.773438 180.835938 37.457031 177.160156 C 36.773438 169.222656 32.691406 171.296875 32.105469 171.734375 " fill-opacity="1" fill-rule="nonzero"/></g></g></g><g clip-path="url(#id55)"><g clip-path="url(#id56)"><g clip-path="url(#id57)"><path fill="#ffffff" d="M 15.550781 200.660156 C 15.675781 201.863281 16.605469 202.828125 17.804688 202.996094 C 18.222656 203.054688 18.648438 203.011719 19.046875 202.867188 C 20.1875 202.464844 20.90625 201.328125 20.78125 200.125 L 20.539062 197.765625 L 15.308594 198.300781 L 15.550781 200.660156 " fill-opacity="1" fill-rule="nonzero"/></g></g></g><g clip-path="url(#id58)"><g clip-path="url(#id59)"><g clip-path="url(#id60)"><path fill="#ffffff" d="M 13.046875 186.53125 C 12.414062 190.164062 14.683594 194.726562 15.113281 196.402344 C 15.167969 196.617188 15.160156 196.871094 15.183594 197.0625 L 20.410156 196.527344 C 20.410156 196.527344 20.375 196.175781 20.34375 195.871094 C 20.300781 195.433594 19.492188 192.769531 20.683594 190.378906 C 21.789062 188.167969 20.8125 183.222656 18.980469 181.582031 C 18.433594 181.09375 14.417969 178.683594 13.046875 186.53125 " fill-opacity="1" fill-rule="nonzero"/></g></g></g></svg>