<svg xmlns="http://www.w3.org/2000/svg" xmlns:xlink="http://www.w3.org/1999/xlink" width="200" zoomAndPan="magnify" viewBox="0 0 150 149.999998" height="200" preserveAspectRatio="xMidYMid meet" version="1.0"><defs><clipPath id="id1"><path d="M 84 0 L 124.480469 0 L 124.480469 25 L 84 25 Z M 84 0 " clip-rule="nonzero"/></clipPath><clipPath id="id2"><path d="M 25.480469 12 L 124 12 L 124 141.4375 L 25.480469 141.4375 Z M 25.480469 12 " clip-rule="nonzero"/></clipPath></defs><path fill="#000000" d="M 66.175781 3.609375 C 65.023438 2.046875 66.226562 0.136719 68.8125 -0.570312 C 69.675781 -0.808594 70.285156 -0.863281 71.308594 -0.621094 C 71.929688 -0.472656 72.574219 0.03125 72.574219 0.03125 C 73.519531 -4.539062 75.296875 -13.210938 76.179688 -17.480469 C 76.433594 -17.425781 76.597656 -17.398438 76.949219 -17.324219 C 76.898438 -17.074219 76.859375 -16.890625 76.8125 -16.667969 C 76.765625 -16.453125 76.753906 -16.308594 76.746094 -16.167969 C 76.660156 -14.523438 76.890625 -13.820312 78.269531 -11.480469 C 80.011719 -8.519531 80.355469 -6.882812 79.929688 -4.890625 C 79.53125 -3.023438 77.054688 0.644531 76.710938 0.398438 C 77.523438 -0.894531 78.539062 -2.261719 78.988281 -3.488281 C 79.535156 -4.988281 79.359375 -7.300781 78.585938 -8.660156 C 77.949219 -9.78125 76.207031 -11.023438 75.683594 -11.128906 C 75.683594 -11.128906 73.753906 -1.925781 73.03125 1.566406 C 72.90625 2.167969 72.152344 3.074219 71.769531 3.378906 C 70.019531 4.761719 67.175781 4.960938 66.175781 3.613281 Z M 66.175781 3.609375 " fill-opacity="1" fill-rule="nonzero"/><path fill="#000000" d="M 42.652344 -14.238281 C 45.816406 -9.6875 49.027344 -5.09375 52.136719 -0.621094 C 52.136719 -0.621094 51.382812 -0.511719 50.890625 -0.1875 C 50.070312 0.34375 49.71875 0.789062 49.324219 1.519531 C 48.148438 3.707031 48.664062 5.734375 50.457031 5.960938 C 52.003906 6.15625 53.6875 4.117188 53.871094 2.058594 C 53.914062 1.609375 53.785156 0.519531 53.460938 0.0507812 C 50.425781 -4.328125 47.394531 -8.714844 44.34375 -13.089844 L 54.902344 -23.195312 C 57.382812 -19.632812 61.066406 -14.355469 63.238281 -11.226562 C 63.238281 -11.226562 62.484375 -11.121094 61.992188 -10.796875 C 61.171875 -10.265625 60.820312 -9.820312 60.425781 -9.089844 C 59.25 -6.902344 59.765625 -4.871094 61.558594 -4.648438 C 63.105469 -4.453125 64.789062 -6.492188 64.976562 -8.546875 C 65.015625 -9 64.890625 -10.085938 64.5625 -10.554688 C 61.199219 -15.421875 57.453125 -20.820312 54.277344 -25.367188 Z M 42.652344 -14.238281 " fill-opacity="1" fill-rule="nonzero"/><g clip-path="url(#id1)"><path fill="#000000" d="M 124.484375 14.824219 L 113.105469 -3.464844 C 111.117188 -2.628906 109.148438 -1.792969 107.15625 -0.953125 L 107.152344 -0.957031 L 104.660156 0.09375 L 104.667969 0.0976562 C 100.679688 1.785156 96.667969 3.484375 92.757812 5.132812 C 92.757812 5.132812 92.820312 4.117188 92.53125 3.382812 C 92.058594 2.164062 91.574219 1.578125 90.726562 0.863281 C 88.1875 -1.285156 85.398438 -1.175781 84.621094 1.101562 C 83.945312 3.070312 86.152344 5.835938 88.789062 6.652344 C 89.367188 6.832031 90.820312 6.96875 91.519531 6.675781 C 96.074219 4.761719 100.632812 2.851562 105.1875 0.933594 L 115.523438 17.550781 C 111.261719 19.355469 106.710938 21.277344 103.59375 22.589844 C 103.59375 22.589844 103.660156 21.578125 103.371094 20.839844 C 102.898438 19.625 102.414062 19.039062 101.566406 18.320312 C 99.027344 16.175781 96.238281 16.285156 95.457031 18.5625 C 94.785156 20.527344 96.992188 23.296875 99.625 24.113281 C 100.203125 24.292969 101.65625 24.429688 102.355469 24.136719 C 106.808594 22.273438 111.46875 20.316406 116.042969 18.386719 L 116.042969 18.390625 L 117.089844 17.945312 C 119.609375 16.882812 122.175781 15.804688 124.484375 14.824219 Z M 121.476562 15.035156 C 120.445312 15.46875 119.195312 16 118.011719 16.5 L 107.675781 -0.113281 C 108.832031 -0.601562 109.988281 -1.085938 111.144531 -1.574219 Z M 121.476562 15.035156 " fill-opacity="1" fill-rule="nonzero"/></g><g clip-path="url(#id2)"><path fill="#ffffff" d="M 50.421875 12.316406 C 49.554688 12.382812 48.234375 12.550781 47.25 12.726562 C 45.496094 13.023438 43.828125 13.582031 42.070312 14.449219 C 40.4375 15.257812 39.1875 16.136719 37.84375 17.417969 C 37.214844 18.023438 36.964844 18.230469 36.265625 18.757812 C 35.246094 19.519531 34.714844 20.011719 34.042969 20.804688 C 31.71875 23.546875 31.324219 27.003906 32.910156 30.738281 C 33.292969 31.644531 33.667969 32.328125 34.414062 33.488281 L 34.921875 34.277344 L 34.664062 34.671875 C 34.136719 35.464844 33.644531 36.582031 33.027344 38.386719 C 32.671875 39.425781 32.351562 40.25 32.046875 40.929688 C 31.492188 42.148438 31.15625 43.460938 30.96875 45.101562 C 30.878906 45.933594 30.867188 48.265625 30.949219 49.03125 C 31.296875 52.261719 31.480469 53.886719 31.5 54.019531 L 31.527344 54.183594 L 31.058594 54.183594 C 30.691406 54.183594 30.527344 54.160156 30.308594 54.089844 C 29.964844 53.972656 29.402344 53.597656 28.90625 53.148438 C 28.402344 52.691406 28.28125 52.601562 28.28125 52.691406 C 28.28125 52.792969 28.46875 53.265625 28.671875 53.664062 C 29.023438 54.371094 29.457031 54.933594 30.539062 56.097656 C 30.816406 56.398438 31.042969 56.65625 31.042969 56.675781 C 31.042969 56.730469 30.375 57.839844 30.03125 58.363281 C 29.46875 59.210938 28.226562 60.914062 27.480469 61.851562 C 27.28125 62.101562 26.914062 62.492188 26.664062 62.714844 C 25.957031 63.34375 25.570312 63.761719 25.542969 63.933594 C 25.480469 64.242188 25.796875 64.707031 26.542969 65.433594 C 26.976562 65.855469 27.207031 66.042969 28.238281 66.792969 C 29.644531 67.8125 29.746094 68.277344 28.898438 70.011719 C 28.332031 71.179688 28.351562 71.328125 29.117188 71.84375 C 29.582031 72.148438 30.351562 72.859375 30.351562 72.976562 C 30.351562 73.015625 30.269531 73.171875 30.171875 73.320312 C 29.929688 73.695312 29.835938 73.957031 29.835938 74.265625 C 29.835938 74.570312 29.925781 74.855469 30.117188 75.148438 C 30.292969 75.425781 30.527344 75.65625 31.066406 76.09375 C 32.003906 76.839844 32.433594 77.40625 32.675781 78.1875 C 32.835938 78.703125 32.871094 79.109375 32.878906 80.511719 C 32.886719 81.738281 32.894531 81.90625 32.976562 82.214844 C 33.257812 83.289062 33.628906 83.988281 34.28125 84.667969 C 34.847656 85.257812 35.464844 85.632812 36.320312 85.921875 C 37.441406 86.296875 38.273438 86.296875 40.546875 85.921875 C 42.65625 85.582031 45.082031 85.261719 46.820312 85.097656 C 47.515625 85.035156 47.800781 85.035156 49.304688 85.078125 C 50.523438 85.113281 51.167969 85.144531 51.578125 85.207031 C 52.136719 85.289062 52.160156 85.292969 52.355469 85.460938 C 52.769531 85.804688 53.304688 86.53125 53.851562 87.472656 C 54.183594 88.050781 54.507812 88.746094 55.113281 90.191406 C 55.121094 90.222656 54.992188 90.300781 54.785156 90.386719 C 54.472656 90.511719 54.445312 90.53125 54.484375 90.609375 C 54.507812 90.652344 54.734375 91.03125 54.984375 91.449219 C 56.113281 93.34375 56.320312 93.941406 56.074219 94.636719 C 55.953125 94.980469 55.8125 95.199219 55.078125 96.179688 C 52.460938 99.664062 50.820312 102.96875 49.625 107.136719 C 48.425781 111.316406 47.773438 115.847656 47.421875 122.378906 C 46.964844 130.863281 46.257812 133.4375 43.484375 136.628906 C 43.292969 136.855469 43.128906 137.054688 43.128906 137.070312 C 43.128906 137.085938 43.230469 137.097656 43.359375 137.097656 C 43.523438 137.097656 43.75 137.152344 44.132812 137.289062 C 44.777344 137.515625 46.605469 138.085938 47.660156 138.386719 C 54.796875 140.40625 62.171875 141.414062 69.929688 141.425781 C 72.285156 141.429688 73.132812 141.390625 75.796875 141.164062 C 87.609375 140.171875 98.417969 136.847656 108.316406 131.160156 C 113.5 128.183594 118.46875 124.523438 123.109375 120.257812 C 123.746094 119.667969 123.847656 119.558594 123.75 119.558594 C 123.726562 119.558594 123.699219 119.476562 123.679688 119.371094 C 123.453125 117.992188 120.808594 114.144531 116.910156 109.539062 C 113.925781 106.011719 110.550781 102.566406 108.492188 100.945312 C 107.625 100.265625 106.816406 99.5625 106.089844 98.871094 L 105.375 98.1875 L 104.082031 97.609375 C 98.789062 95.230469 93.3125 92.488281 89.273438 90.191406 L 88.351562 89.671875 L 88.367188 89.476562 L 88.378906 89.285156 L 89.15625 89.230469 C 93.074219 88.972656 95.644531 87.914062 97.484375 85.792969 L 97.960938 85.246094 L 98.132812 85.269531 C 98.226562 85.285156 98.5 85.324219 98.734375 85.363281 C 99.34375 85.460938 100.53125 85.492188 101.136719 85.429688 C 102.726562 85.261719 104.054688 84.683594 105.0625 83.714844 C 105.703125 83.105469 106.117188 82.484375 106.546875 81.5 C 106.691406 81.179688 107.019531 80.503906 107.277344 79.996094 C 107.820312 78.921875 108.046875 78.410156 108.285156 77.664062 C 108.6875 76.4375 109.042969 74.660156 109.269531 72.777344 C 109.355469 72.023438 109.335938 71.644531 109.167969 71.113281 C 108.996094 70.585938 108.941406 70.175781 108.941406 69.402344 C 108.941406 68.75 109.023438 68.039062 109.140625 67.628906 C 109.179688 67.5 109.351562 67.050781 109.53125 66.632812 C 109.703125 66.214844 109.902344 65.664062 109.964844 65.402344 C 110.078125 64.964844 110.085938 64.878906 110.085938 64.007812 C 110.085938 63.160156 110.074219 63.035156 109.964844 62.519531 C 109.671875 61.152344 108.910156 59.277344 108.351562 58.542969 C 108.210938 58.359375 107.734375 57.886719 107.199219 57.402344 C 106.300781 56.589844 105.871094 56.207031 103.796875 54.386719 C 103.238281 53.890625 102.746094 53.441406 102.710938 53.386719 C 102.625 53.253906 102.613281 53.265625 103.332031 53.019531 C 104.339844 52.679688 105.03125 52.277344 105.578125 51.730469 C 106.324219 50.980469 106.714844 49.980469 106.632812 49.03125 C 106.597656 48.609375 106.507812 47.96875 106.421875 47.566406 C 106.34375 47.199219 106.34375 47.207031 106.859375 46.894531 C 108.007812 46.199219 108.511719 45.53125 108.511719 44.714844 C 108.511719 43.839844 107.871094 42.898438 106.746094 42.117188 C 106.527344 41.960938 106.316406 41.8125 106.277344 41.785156 C 106.214844 41.742188 106.257812 41.683594 106.609375 41.355469 C 107.304688 40.707031 107.746094 40.039062 107.90625 39.421875 C 108.070312 38.777344 107.996094 38.09375 107.6875 37.425781 C 107.371094 36.75 107.027344 36.359375 105.964844 35.484375 L 105.382812 35 L 105.308594 34.296875 C 105.21875 33.433594 105.148438 33.152344 104.902344 32.648438 C 104.402344 31.636719 103.457031 31.019531 101.878906 30.683594 L 101.410156 30.582031 L 101.355469 30.238281 C 101.28125 29.800781 101.09375 29.25 100.910156 28.945312 C 100.328125 27.972656 99.292969 27.59375 97.226562 27.59375 L 96.523438 27.59375 L 96.230469 27.261719 C 95.675781 26.648438 95.085938 26.285156 94.527344 26.226562 C 93.683594 26.140625 92.945312 26.558594 91.84375 27.753906 L 91.558594 28.058594 L 91.351562 27.707031 C 91.070312 27.222656 89.882812 25.429688 89.527344 24.941406 C 86.957031 21.484375 83.492188 18.585938 79.660156 16.6875 C 77.875 15.800781 75.445312 14.882812 73.554688 14.382812 C 72.125 14.003906 70.347656 13.664062 68.722656 13.457031 C 66.382812 13.164062 64.339844 13.070312 62.203125 13.160156 C 60.15625 13.246094 59.890625 13.238281 59.183594 13.078125 C 56.277344 12.410156 52.929688 12.121094 50.421875 12.316406 Z M 50.421875 12.316406 " fill-opacity="1" fill-rule="nonzero"/></g><path fill="#000000" d="M 58.234375 12.875 C 58.234375 23.085938 58.234375 33.296875 58.234375 43.507812 C 58.234375 44.957031 58.234375 46.40625 58.234375 47.855469 C 60.527344 47.855469 62.816406 47.855469 65.105469 47.855469 C 65.105469 46.40625 65.105469 44.957031 65.105469 43.507812 C 65.105469 33.390625 65.105469 23.273438 65.105469 13.152344 C 64.652344 13.136719 64.199219 13.125 63.746094 13.125 C 63.234375 13.125 62.722656 13.136719 62.203125 13.160156 C 61.375 13.195312 60.835938 13.214844 60.441406 13.214844 C 59.867188 13.214844 59.601562 13.171875 59.183594 13.078125 C 58.871094 13.007812 58.554688 12.941406 58.238281 12.875 Z M 58.234375 12.875 " fill-opacity="1" fill-rule="nonzero"/><path fill="#000000" d="M 74.683594 56.03125 L 74.566406 57.792969 C 74.003906 61.347656 72.355469 64.1875 69.625 66.316406 C 66.871094 68.445312 63.632812 69.308594 59.90625 68.90625 C 56.347656 68.34375 53.503906 66.699219 51.367188 63.972656 C 50.683594 63.089844 50.121094 62.128906 49.679688 61.089844 L 49.121094 59.484375 C 48.816406 58.382812 48.660156 57.230469 48.65625 56.03125 C 48.75 52.347656 50.019531 49.285156 52.46875 46.839844 C 54.917969 44.398438 57.984375 43.128906 61.671875 43.035156 C 65.359375 43.128906 68.425781 44.398438 70.875 46.839844 C 73.320312 49.285156 74.589844 52.347656 74.683594 56.03125 " fill-opacity="1" fill-rule="nonzero"/></svg>