<svg xmlns="http://www.w3.org/2000/svg" xmlns:xlink="http://www.w3.org/1999/xlink" width="200" zoomAndPan="magnify" viewBox="0 0 150 149.999998" height="200" preserveAspectRatio="xMidYMid meet" version="1.0"><defs><clipPath id="id1"><path d="M 29 7.5 L 120 7.5 L 120 142 L 29 142 Z M 29 7.5 " clip-rule="nonzero"/></clipPath><clipPath id="id2"><path d="M 28.59375 74 L 29 74 L 29 75 L 28.59375 75 Z M 28.59375 74 " clip-rule="nonzero"/></clipPath></defs><g clip-path="url(#id1)"><path fill="#ffffff" d="M 110.0625 43.273438 C 111.347656 43.0625 111.121094 44.773438 111.433594 45.546875 C 111.746094 46.332031 112.324219 48.042969 112.855469 48.585938 C 113.582031 47.34375 113.425781 45.871094 113.425781 44.453125 C 113.425781 43.09375 113.324219 40.773438 114.84375 42.59375 C 115.453125 42.09375 115.410156 39.9375 115.5 39.121094 C 115.644531 37.789062 115.867188 36.453125 115.933594 35.097656 C 116.070312 32.390625 116.339844 30.253906 117.460938 27.796875 C 118.332031 25.890625 121.53125 19.695312 117.683594 19.089844 C 115.90625 18.808594 114.046875 19.429688 112.359375 19.773438 C 110.734375 20.101562 108.945312 20.175781 107.3125 20.503906 C 103.945312 21.183594 100.367188 21.117188 96.957031 21.605469 C 95.539062 21.8125 93.875 22.1875 92.574219 22.925781 C 92.195312 21.882812 91.589844 20.917969 90.824219 20.402344 C 89.957031 19.820312 88.988281 19.65625 88.007812 19.285156 C 87.863281 19.230469 87.71875 19.171875 87.578125 19.109375 C 88.007812 18.902344 88.4375 18.695312 88.851562 18.484375 C 90.28125 17.839844 91.773438 17.402344 92.816406 17.808594 C 93.785156 18.183594 94.160156 18.917969 94.222656 18.984375 C 94.171875 18.914062 93.996094 18.117188 92.992188 17.453125 C 91.875 16.734375 90.050781 16.902344 88.457031 17.28125 C 87.40625 17.570312 86.371094 17.835938 85.433594 18.054688 C 85.3125 18 85.191406 17.949219 85.070312 17.898438 C 84.214844 17.554688 83.414062 17.449219 82.546875 17.199219 C 82.785156 17 83.015625 16.789062 83.226562 16.570312 C 84.277344 15.691406 85.445312 15 86.433594 14.96875 C 87.421875 14.949219 88 15.449219 88.015625 15.394531 C 87.988281 15.453125 87.574219 14.820312 86.464844 14.574219 C 85.917969 14.460938 85.277344 14.523438 84.609375 14.691406 C 84.183594 14.550781 83.632812 14.339844 83.011719 14.03125 C 81.535156 13.359375 79.824219 12.085938 77.617188 11.136719 C 76.238281 10.574219 74.695312 10.207031 73.21875 10.113281 C 75.460938 9.570312 77.839844 10.023438 77.761719 9.84375 C 77.699219 10.085938 75.179688 8.722656 71.835938 9.21875 C 70.472656 9.550781 69.308594 10.234375 68.378906 10.957031 C 68.34375 10.96875 68.3125 10.984375 68.28125 11 C 67.359375 10.371094 66.128906 10.179688 64.785156 10.382812 C 64.699219 10.394531 64.613281 10.40625 64.527344 10.417969 C 64.152344 9.78125 63.710938 9.074219 62.996094 8.433594 C 62.148438 7.796875 61.207031 7.507812 60.066406 7.617188 C 58.882812 7.761719 58 8.71875 57.632812 9.460938 C 56.855469 11.007812 56.800781 12.191406 56.757812 12.585938 C 56.75 12.765625 56.75 12.9375 56.761719 13.105469 C 55.570312 14.242188 54.621094 15.675781 54.003906 17.195312 C 53.441406 17.65625 52.476562 18.484375 51.492188 19.851562 C 50.5 21.125 50.179688 22.929688 50.21875 24.652344 C 49.535156 26.273438 49.304688 28.230469 49.457031 30.066406 C 49.542969 32.039062 49.578125 34.035156 48.890625 35.222656 C 48.203125 36.292969 47.144531 35.917969 46.933594 35.855469 C 47.136719 35.957031 48.132812 36.566406 49.207031 35.460938 C 50.226562 34.207031 50.484375 32.109375 50.726562 30.109375 C 50.75 29.769531 50.792969 29.429688 50.847656 29.097656 C 51.101562 30.523438 51.328125 31.832031 51.390625 32.921875 C 51.5 34.5625 51.21875 35.632812 51.261719 35.640625 C 51.21875 35.636719 51.65625 34.613281 51.789062 32.925781 C 51.933594 31.246094 51.765625 28.972656 51.71875 26.710938 C 51.710938 26.542969 51.710938 26.378906 51.707031 26.214844 C 51.90625 25.804688 52.121094 25.429688 52.355469 25.117188 C 52.382812 25.082031 52.40625 25.050781 52.433594 25.019531 C 52.429688 25.035156 52.429688 25.054688 52.429688 25.074219 C 52.40625 25.699219 52.601562 26.296875 52.886719 26.878906 C 52.316406 28.644531 52.984375 30.753906 53.203125 32.730469 C 53.160156 32.945312 53.109375 33.171875 53.058594 33.402344 C 52.742188 35.058594 51.46875 37.292969 51.4375 39.84375 C 51.382812 41.757812 51.902344 43.582031 52.609375 44.941406 C 52.667969 45.601562 52.820312 46.285156 53.097656 46.929688 C 50.992188 48.316406 49.078125 49.972656 47.121094 51.527344 C 44.601562 53.527344 41.46875 54.566406 39.292969 56.886719 C 37.238281 59.078125 35.546875 61.621094 33.511719 63.746094 C 32.507812 64.792969 31.476562 66.070312 30.839844 67.308594 C 30.175781 68.597656 29.792969 70.257812 30.710938 70.820312 C 30.6875 71.394531 30.648438 72.027344 30.585938 72.617188 C 30.183594 72.835938 29.785156 73.109375 29.679688 73.308594 C 29.394531 73.84375 29.554688 74.449219 29.890625 74.980469 C 30.175781 75.441406 30.59375 75.847656 30.960938 76.101562 L 31.628906 76.019531 C 31.71875 76.070312 31.78125 76.152344 31.820312 76.253906 C 32.042969 76.800781 31.746094 77.988281 31.683594 78.414062 C 31.550781 79.285156 31.660156 80.089844 32.078125 80.851562 C 32.402344 81.441406 33.046875 82.40625 33.632812 82.78125 C 34.695312 83.457031 34.746094 82.484375 34.355469 81.734375 C 33.964844 80.980469 33.441406 80.371094 33.320312 79.5 C 33.171875 78.417969 33.589844 77.542969 33.683594 76.496094 C 34.21875 76.734375 34.457031 77.945312 34.722656 78.363281 C 35.226562 79.148438 35.84375 79.53125 36.648438 79.9375 C 36.980469 80.109375 37.257812 80.296875 37.53125 80.578125 C 37.734375 80.78125 37.949219 81.230469 38.226562 81.304688 C 39.300781 81.578125 38.664062 79.867188 38.324219 79.515625 C 37.417969 78.578125 36.335938 78.191406 35.882812 76.890625 C 35.464844 75.683594 35.835938 73.9375 35.265625 72.710938 C 36.082031 72.195312 36.628906 71.101562 36.648438 70.082031 C 38.804688 70.1875 39.457031 68.179688 40.503906 66.597656 C 41.972656 66.339844 45.050781 62.824219 46.671875 61.046875 C 48.019531 60.71875 49.203125 59.460938 50.308594 58.632812 C 51.636719 57.640625 53.0625 57.171875 54.53125 56.566406 C 56.105469 55.914062 57.535156 55.074219 58.976562 54.226562 C 59.097656 54.152344 59.222656 54.089844 59.347656 54.023438 C 59.941406 54.863281 60.390625 55.699219 60.605469 56.507812 C 61.101562 58.265625 60.359375 59.441406 60.3125 59.574219 C 60.371094 59.449219 61.285156 58.375 60.992188 56.425781 C 60.871094 55.554688 60.515625 54.632812 60.015625 53.695312 C 61.179688 53.175781 62.445312 52.820312 63.691406 52.402344 C 64.1875 52.234375 64.671875 52.070312 65.15625 51.921875 C 65.207031 52.253906 65.300781 52.597656 65.425781 52.929688 C 64.339844 55.097656 61.183594 62.566406 64.019531 71.339844 C 64.019531 71.339844 66.855469 80.808594 67.402344 88.863281 C 67.402344 88.863281 68.273438 94.304688 64.566406 98.441406 L 62.277344 100.402344 C 62.277344 100.402344 54.363281 106.414062 50.359375 116.617188 C 48.867188 116.582031 48.734375 118.242188 48.535156 119.554688 C 48.292969 121.160156 47.929688 122.773438 47.53125 124.324219 C 47.164062 125.742188 46.164062 127.496094 47.199219 128.941406 C 48.0625 130.144531 50.253906 130.34375 51.589844 130.765625 C 54.496094 131.675781 57.890625 133.085938 60.96875 133.269531 C 62.558594 133.367188 64.648438 132.898438 65.113281 131.199219 C 65.609375 129.394531 63.863281 128.898438 62.578125 128.175781 C 61.128906 127.363281 59.585938 126.757812 58.539062 125.328125 C 57.515625 123.925781 57.121094 122.4375 56.28125 121.058594 C 57.625 118.410156 62.167969 112.484375 62.167969 112.484375 C 65.875 107.910156 73.726562 102.6875 73.726562 102.6875 C 77.546875 99.855469 77.875 90.714844 77.875 90.714844 L 77.761719 73.953125 C 77.761719 71.535156 78.550781 70.214844 79.128906 69.570312 C 79.953125 71.082031 83.605469 78.332031 85.726562 91.691406 C 85.726562 91.691406 86.488281 97.789062 89.539062 101.488281 C 89.539062 101.488281 91.394531 103.882812 92.703125 110.199219 C 92.703125 110.199219 95.484375 119.871094 96.328125 125.082031 C 95.441406 125.574219 95.726562 128.660156 95.757812 129.242188 C 95.859375 131.199219 94.992188 132.421875 93.492188 133.597656 C 92.378906 134.472656 91.285156 135.332031 90.0625 136.078125 C 88.796875 136.84375 87.355469 137.007812 86.679688 138.46875 C 84.8125 142.503906 92.105469 141.949219 94.121094 141.550781 C 97.117188 140.953125 100.417969 139.597656 103.175781 138.167969 C 105.78125 136.816406 105.535156 134.535156 104.699219 132.183594 C 104.316406 131.117188 104.097656 129.859375 103.9375 128.699219 C 103.855469 128.09375 103.847656 127.425781 103.714844 126.855469 C 103.609375 126.414062 103.386719 126.085938 103.15625 125.757812 C 102.878906 123.132812 102.410156 117.597656 102.410156 117.597656 C 101.429688 107.691406 99.140625 101.816406 99.140625 101.816406 C 97.71875 97.679688 96.523438 92.347656 96.523438 92.347656 C 94.667969 86.359375 97.613281 69.488281 97.613281 69.488281 C 99.253906 61.546875 98.546875 58.222656 98.097656 57.066406 C 98.300781 56.710938 98.539062 56.359375 98.589844 56.15625 C 98.679688 55.804688 98.660156 55.425781 98.605469 55.074219 C 98.535156 54.605469 98.324219 54.339844 98.105469 54.042969 C 98.402344 53.308594 98.914062 52.640625 99.03125 51.855469 C 99.117188 51.292969 99.226562 50.769531 99.410156 50.222656 C 99.566406 49.761719 99.828125 49.386719 100.117188 49.011719 C 100.140625 49.652344 100.335938 50.5 100.339844 51.148438 C 100.34375 52.019531 100.160156 52.988281 100.078125 53.871094 C 100.011719 54.539062 99.542969 55.796875 99.902344 56.371094 C 100.554688 57.421875 101.097656 55.78125 101.222656 55.296875 C 101.769531 53.128906 101.695312 50.71875 101.765625 48.429688 C 101.980469 48.261719 102.226562 48.003906 102.503906 47.851562 C 102.4375 48.234375 102.59375 49.015625 102.628906 49.351562 C 102.6875 49.949219 102.722656 50.542969 102.789062 51.152344 C 102.859375 51.75 102.90625 54.296875 103.980469 54.078125 C 104.445312 53.527344 104.210938 52.300781 104.210938 51.585938 C 104.210938 50.679688 104.242188 49.808594 104.210938 48.917969 C 104.179688 48.050781 104.101562 47.222656 104.375 46.414062 C 104.640625 45.621094 105.386719 45.203125 105.726562 44.457031 C 106.121094 43.578125 105.65625 42.617188 106.132812 41.789062 C 106.378906 41.359375 106.792969 40.734375 107.242188 40.195312 C 107.933594 41.894531 108.632812 43.890625 109.855469 45.089844 C 110.527344 44.890625 110.117188 43.875 110.0625 43.273438 Z M 62.28125 9.484375 C 62.730469 9.722656 63.132812 10.109375 63.519531 10.53125 C 62.121094 10.667969 60.644531 10.773438 59.445312 11.285156 C 59.421875 11.296875 59.394531 11.3125 59.371094 11.324219 C 59.53125 10.039062 60.105469 8.507812 62.28125 9.484375 Z M 54.75 43.894531 C 54.894531 43.296875 55.089844 42.738281 55.296875 42.238281 C 55.390625 43.371094 55.140625 44.589844 55.011719 45.785156 C 54.914062 45.835938 54.824219 45.894531 54.726562 45.945312 C 54.546875 45.261719 54.539062 44.578125 54.75 43.894531 Z M 53.125 21.226562 C 53.121094 21.25 53.117188 21.273438 53.113281 21.300781 C 53.078125 21.320312 53.042969 21.335938 53 21.359375 C 53.042969 21.3125 53.082031 21.269531 53.125 21.226562 Z M 52.707031 39.933594 C 52.800781 39.253906 53.019531 38.597656 53.289062 37.949219 C 53.519531 38.316406 53.804688 38.675781 54.046875 39 C 53.8125 39.578125 53.078125 40.929688 52.707031 43.085938 C 52.542969 42.09375 52.519531 41.007812 52.707031 39.933594 Z M 74.1875 11.945312 C 75.171875 11.960938 76.21875 12.09375 77.246094 12.351562 C 79.269531 12.890625 81.300781 13.941406 82.863281 14.398438 C 83.417969 14.578125 83.910156 14.695312 84.3125 14.777344 C 83.714844 14.957031 83.101562 15.210938 82.527344 15.511719 C 81.925781 15.886719 81.316406 16.183594 80.730469 16.421875 C 79.640625 15.816406 78.632812 15.027344 77.65625 14.28125 C 76.539062 13.425781 75.414062 12.613281 74.1875 11.945312 Z M 106.308594 30.386719 C 105.296875 31.910156 102.230469 33.9375 103.394531 35.964844 L 103.503906 36.035156 C 102.785156 37.191406 102.03125 38.292969 100.988281 39.21875 C 100.382812 39.761719 99.59375 39.96875 98.988281 40.484375 C 98.566406 40.839844 98.214844 41.167969 97.832031 41.425781 C 97.140625 39.496094 96.515625 37.628906 96.625 35.417969 C 96.6875 34.152344 96.847656 32.539062 97.371094 31.164062 C 98.601562 29.960938 99.730469 28.792969 101.429688 27.941406 C 102.546875 27.386719 103.777344 27.003906 105.03125 26.738281 C 105.914062 26.550781 107.21875 26.296875 108.355469 26.304688 C 107.921875 27.683594 107.054688 29.265625 106.308594 30.386719 Z M 106.308594 30.386719 " fill-opacity="1" fill-rule="nonzero"/></g><g clip-path="url(#id2)"><path fill="#ffffff" d="M 28.660156 74.136719 C 28.664062 74.136719 28.671875 74.140625 28.683594 74.140625 C 28.667969 74.132812 28.660156 74.132812 28.660156 74.136719 Z M 28.660156 74.136719 " fill-opacity="1" fill-rule="nonzero"/></g></svg>