<svg xmlns="http://www.w3.org/2000/svg" xmlns:xlink="http://www.w3.org/1999/xlink" width="200" zoomAndPan="magnify" viewBox="0 0 150 149.999998" height="200" preserveAspectRatio="xMidYMid meet" version="1.0"><defs><clipPath id="id1"><path d="M 12 23 L 96 23 L 96 96 L 12 96 Z M 12 23 " clip-rule="nonzero"/></clipPath><clipPath id="id2"><path d="M 11.179688 25.683594 L 93.65625 23.621094 L 95.417969 94.097656 L 12.945312 96.160156 Z M 11.179688 25.683594 " clip-rule="nonzero"/></clipPath><clipPath id="id3"><path d="M 10.679688 5.609375 L 93.152344 3.546875 L 95.40625 93.515625 L 12.929688 95.582031 Z M 10.679688 5.609375 " clip-rule="nonzero"/></clipPath><clipPath id="id4"><path d="M 10.679688 5.609375 L 93.152344 3.546875 L 95.40625 93.527344 L 12.933594 95.59375 Z M 10.679688 5.609375 " clip-rule="nonzero"/></clipPath><clipPath id="id5"><path d="M 10.679688 5.609375 L 93.152344 3.546875 L 95.402344 93.515625 L 12.933594 95.582031 Z M 10.679688 5.609375 " clip-rule="nonzero"/></clipPath><clipPath id="id6"><path d="M 80 58 L 83 58 L 83 67 L 80 67 Z M 80 58 " clip-rule="nonzero"/></clipPath><clipPath id="id7"><path d="M 11.179688 25.683594 L 93.65625 23.621094 L 95.417969 94.097656 L 12.945312 96.160156 Z M 11.179688 25.683594 " clip-rule="nonzero"/></clipPath><clipPath id="id8"><path d="M 10.679688 5.609375 L 93.152344 3.546875 L 95.40625 93.515625 L 12.929688 95.582031 Z M 10.679688 5.609375 " clip-rule="nonzero"/></clipPath><clipPath id="id9"><path d="M 40.058594 21.101562 L 139.046875 21.101562 L 139.046875 129.101562 L 40.058594 129.101562 Z M 40.058594 21.101562 " clip-rule="nonzero"/></clipPath></defs><g clip-path="url(#id1)"><g clip-path="url(#id2)"><g clip-path="url(#id3)"><g clip-path="url(#id4)"><g clip-path="url(#id5)"><path fill="#ffffff" d="M 93.527344 87.875 L 93.492188 88 C 93.195312 89.097656 92.402344 92.015625 90.910156 92.054688 L 34.039062 93.476562 C 22.972656 93.753906 15.480469 89.796875 14.828125 88.742188 C 14.316406 87.914062 13.972656 85.269531 14.613281 83.164062 C 15.007812 81.859375 15.695312 80.976562 16.65625 80.539062 C 17.746094 80.042969 18.746094 79.863281 19.597656 79.84375 C 21.132812 79.804688 22.160156 80.28125 22.304688 80.347656 C 24.242188 82.621094 25.832031 85.269531 27.8125 87.699219 C 27.941406 87.855469 28.070312 88.011719 28.203125 88.164062 C 28.335938 88.320312 28.457031 88.472656 28.628906 88.636719 C 28.9375 88.964844 29.300781 89.25 29.6875 89.480469 C 30.46875 89.949219 31.335938 90.179688 32.171875 90.300781 C 33.847656 90.519531 35.449219 90.40625 37.035156 90.332031 C 38.617188 90.242188 40.179688 90.160156 41.753906 90.117188 C 43.335938 90.074219 44.921875 90.019531 46.511719 89.929688 C 49.6875 89.757812 52.894531 89.34375 55.996094 88.542969 C 59.066406 87.699219 62.097656 86.929688 65.183594 86.289062 C 68.261719 85.648438 71.363281 85.097656 74.472656 84.804688 C 76.035156 84.652344 77.574219 84.601562 79.164062 84.578125 L 83.90625 84.472656 L 92.898438 84.316406 C 93.320312 85.167969 93.785156 86.933594 93.527344 87.875 Z M 33.5 76.988281 C 38.699219 74.890625 39.597656 75.578125 41.4375 77.867188 C 43.628906 80.597656 46.933594 80 51.933594 79.09375 C 52.730469 78.949219 53.578125 78.796875 54.484375 78.644531 C 58.695312 77.933594 65.589844 76.09375 71.667969 74.472656 C 75.105469 73.554688 78.355469 72.6875 80.824219 72.101562 C 81.347656 71.976562 81.84375 71.855469 82.328125 71.738281 C 82.40625 72.289062 82.488281 72.847656 82.554688 73.402344 C 82.660156 74.222656 82.75 75.042969 82.828125 75.863281 L 83.027344 78.347656 C 83.109375 79.179688 83.152344 80.015625 83.285156 80.882812 C 83.90625 79.253906 84.074219 77.511719 84.03125 75.796875 C 84.019531 74.9375 83.945312 74.078125 83.824219 73.226562 C 83.730469 72.632812 83.617188 72.046875 83.460938 71.457031 C 87.777344 70.378906 90.390625 69.589844 91.140625 69.355469 C 92.402344 69.867188 92.9375 73.894531 93.296875 76.589844 L 93.347656 76.976562 C 93.691406 79.5625 93.082031 81.910156 92.785156 82.84375 L 83.871094 83.136719 L 79.128906 83.269531 C 77.5625 83.304688 75.9375 83.363281 74.351562 83.53125 C 67.996094 84.195312 61.789062 85.722656 55.703125 87.390625 C 52.675781 88.15625 49.578125 88.539062 46.441406 88.695312 C 44.875 88.777344 43.296875 88.820312 41.722656 88.859375 C 40.136719 88.890625 38.539062 88.96875 36.964844 89.050781 C 35.398438 89.121094 33.824219 89.207031 32.359375 89.007812 C 31.632812 88.898438 30.945312 88.699219 30.367188 88.351562 C 30.078125 88.175781 29.816406 87.96875 29.585938 87.71875 C 29.347656 87.484375 29.089844 87.152344 28.855469 86.859375 C 27.171875 84.738281 25.753906 82.363281 24.019531 80.128906 C 25.867188 79.632812 29.683594 78.53125 33.5 76.988281 Z M 45.589844 73.753906 C 46.402344 73.328125 47.210938 72.890625 48.019531 72.4375 C 48.632812 72.09375 49.242188 71.730469 49.847656 71.351562 C 50.855469 72.238281 51.804688 73.257812 52.707031 74.308594 C 53.445312 75.175781 54.148438 76.070312 54.832031 76.984375 C 54.625 77.019531 54.417969 77.058594 54.222656 77.089844 C 53.3125 77.246094 52.457031 77.398438 51.652344 77.542969 C 46.53125 78.472656 44.203125 78.800781 42.664062 76.882812 C 42.320312 76.449219 41.984375 76.074219 41.65625 75.746094 C 42.976562 75.097656 44.289062 74.4375 45.589844 73.753906 Z M 51.15625 69.679688 C 51.3125 69.351562 51.515625 69.035156 51.734375 68.734375 C 52.179688 68.125 52.753906 67.601562 53.375 67.144531 C 54 66.695312 54.683594 66.335938 55.40625 66.101562 C 55.765625 65.988281 56.136719 65.910156 56.5 65.855469 C 56.753906 65.824219 57.035156 65.808594 57.277344 65.816406 C 58.011719 66.488281 58.746094 67.191406 59.460938 67.898438 C 60.242188 68.671875 61.003906 69.460938 61.753906 70.265625 C 63.011719 71.628906 64.21875 73.039062 65.300781 74.527344 C 62.011719 75.382812 58.816406 76.175781 56.238281 76.707031 C 55.460938 75.578125 54.65625 74.480469 53.804688 73.40625 C 52.921875 72.304688 51.992188 71.234375 50.9375 70.238281 C 50.941406 70.21875 50.949219 70.195312 50.957031 70.179688 C 51.007812 70.011719 51.082031 69.847656 51.15625 69.679688 Z M 94.910156 76.769531 L 94.859375 76.382812 C 94.34375 72.523438 93.808594 68.542969 91.550781 67.839844 C 89.941406 62.867188 88.679688 57.710938 88.160156 52.519531 C 87.890625 49.855469 87.847656 47.121094 87.863281 44.414062 C 87.878906 41.699219 88.019531 38.988281 88.230469 36.277344 C 88.660156 30.855469 89.226562 25.40625 89.769531 19.972656 L 90.589844 11.816406 C 90.714844 10.457031 90.886719 9.101562 90.96875 7.734375 C 91.039062 6.367188 91.050781 4.996094 90.878906 3.601562 C 90.414062 4.925781 90.140625 6.269531 89.921875 7.621094 C 89.710938 8.972656 89.589844 10.335938 89.425781 11.691406 L 88.503906 19.839844 L 87.589844 27.988281 C 87.296875 30.703125 86.988281 33.425781 86.773438 36.164062 C 86.5625 38.898438 86.417969 41.648438 86.402344 44.402344 C 86.386719 47.15625 86.429688 49.898438 86.707031 52.671875 C 86.992188 55.429688 87.519531 58.144531 88.164062 60.824219 C 88.746094 63.242188 89.445312 65.617188 90.273438 67.972656 C 88.988281 68.363281 85.667969 69.332031 80.457031 70.566406 C 77.96875 71.160156 74.710938 72.03125 71.261719 72.949219 C 69.667969 73.375 68.023438 73.8125 66.382812 74.246094 C 65.273438 72.539062 64.027344 70.945312 62.722656 69.40625 C 61.996094 68.554688 61.253906 67.71875 60.492188 66.898438 C 59.851562 66.210938 59.203125 65.535156 58.535156 64.863281 C 60.113281 63.027344 61.445312 61.023438 62.445312 58.792969 C 62.992188 57.566406 63.398438 56.234375 63.621094 54.910156 C 63.851562 53.589844 63.980469 52.269531 64.050781 50.953125 C 64.3125 45.691406 64.015625 40.472656 63.621094 35.265625 C 63.414062 32.652344 63.070312 30.0625 62.734375 27.480469 C 62.390625 24.898438 62.03125 22.320312 61.644531 19.746094 L 60.46875 12.027344 C 60.257812 10.742188 60.09375 9.453125 59.820312 8.179688 C 59.539062 6.90625 59.203125 5.640625 58.660156 4.410156 C 58.511719 5.746094 58.566406 7.054688 58.675781 8.351562 C 58.785156 9.648438 59.007812 10.929688 59.179688 12.21875 L 60.242188 19.945312 C 60.914062 25.09375 61.667969 30.25 62.101562 35.390625 C 62.519531 40.554688 62.835938 45.746094 62.601562 50.878906 C 62.53125 52.15625 62.449219 53.4375 62.246094 54.679688 C 62.058594 55.929688 61.722656 57.105469 61.234375 58.269531 C 60.753906 59.425781 60.136719 60.539062 59.457031 61.613281 C 58.871094 62.53125 58.222656 63.4375 57.53125 64.277344 C 57.054688 64.289062 56.671875 64.347656 56.257812 64.4375 C 55.808594 64.527344 55.375 64.652344 54.953125 64.816406 C 54.109375 65.125 53.328125 65.5625 52.605469 66.074219 C 51.882812 66.578125 51.230469 67.1875 50.648438 67.882812 C 50.363281 68.226562 50.097656 68.601562 49.871094 69.003906 C 49.753906 69.203125 49.648438 69.410156 49.550781 69.628906 C 49.46875 69.835938 49.394531 70.003906 49.324219 70.261719 C 48.710938 70.652344 48.074219 71.027344 47.429688 71.390625 C 46.636719 71.835938 45.835938 72.265625 45.03125 72.6875 C 43.578125 73.445312 42.109375 74.183594 40.636719 74.898438 C 38.816406 73.679688 36.796875 73.960938 32.910156 75.53125 C 28.398438 77.351562 23.878906 78.550781 22.765625 78.832031 C 21.902344 78.476562 19.238281 77.632812 16.003906 79.105469 C 14.632812 79.730469 13.632812 80.972656 13.105469 82.707031 C 12.355469 85.167969 12.703125 88.300781 13.488281 89.570312 C 14.773438 91.652344 23.566406 95.316406 34.078125 95.050781 L 90.949219 93.628906 C 93.609375 93.5625 94.59375 89.953125 95.011719 88.410156 L 95.046875 88.292969 C 95.445312 86.824219 94.816406 84.589844 94.234375 83.484375 C 94.558594 82.519531 95.316406 79.828125 94.90625 76.769531 " fill-opacity="1" fill-rule="nonzero"/></g></g></g></g></g><g clip-path="url(#id6)"><g clip-path="url(#id7)"><g clip-path="url(#id8)"><path fill="#ffffff" d="M 80.347656 66.800781 C 81 66.34375 81.554688 65.703125 81.859375 64.9375 C 82.175781 64.179688 82.328125 63.335938 82.269531 62.519531 C 82.226562 61.699219 82.015625 60.902344 81.660156 60.183594 C 81.296875 59.472656 80.816406 58.8125 80.136719 58.351562 C 80.246094 59.152344 80.371094 59.871094 80.484375 60.570312 C 80.589844 61.269531 80.675781 61.945312 80.726562 62.609375 C 80.789062 63.28125 80.761719 63.941406 80.703125 64.625 C 80.671875 65.320312 80.480469 65.992188 80.347656 66.800781 " fill-opacity="1" fill-rule="nonzero"/></g></g></g><g clip-path="url(#id9)"><path fill="#ffffff" d="M 136.964844 122.28125 L 136.921875 122.425781 C 136.53125 123.734375 135.492188 127.214844 133.703125 127.214844 L 65.4375 127.214844 C 52.15625 127.214844 43.285156 122.238281 42.535156 120.953125 C 41.949219 119.949219 41.613281 116.761719 42.445312 114.257812 C 42.960938 112.703125 43.8125 111.664062 44.976562 111.167969 C 46.296875 110.609375 47.503906 110.421875 48.523438 110.421875 C 50.367188 110.421875 51.585938 111.023438 51.753906 111.113281 C 54.011719 113.894531 55.839844 117.117188 58.144531 120.09375 C 58.292969 120.285156 58.441406 120.480469 58.597656 120.664062 C 58.753906 120.855469 58.894531 121.042969 59.09375 121.242188 C 59.453125 121.644531 59.882812 122 60.339844 122.289062 C 61.265625 122.875 62.296875 123.179688 63.292969 123.347656 C 65.296875 123.660156 67.222656 123.574219 69.125 123.53125 C 71.03125 123.472656 72.902344 123.417969 74.792969 123.414062 C 76.695312 123.410156 78.597656 123.390625 80.507812 123.332031 C 84.324219 123.21875 88.179688 122.824219 91.921875 121.953125 C 95.636719 121.035156 99.292969 120.203125 103.015625 119.523438 C 106.726562 118.847656 110.460938 118.28125 114.203125 118.023438 C 116.078125 117.886719 117.925781 117.875 119.835938 117.890625 L 125.527344 117.90625 L 136.320312 117.992188 C 136.800781 119.023438 137.300781 121.15625 136.964844 122.28125 Z M 65.289062 107.417969 C 71.585938 105.054688 72.644531 105.90625 74.78125 108.707031 C 77.328125 112.050781 81.3125 111.433594 87.335938 110.496094 C 88.296875 110.34375 89.316406 110.1875 90.410156 110.03125 C 95.484375 109.308594 103.804688 107.308594 111.144531 105.542969 C 115.300781 104.546875 119.222656 103.605469 122.203125 102.972656 C 122.832031 102.839844 123.429688 102.710938 124.015625 102.582031 C 124.09375 103.25 124.171875 103.917969 124.238281 104.585938 C 124.339844 105.574219 124.425781 106.5625 124.492188 107.550781 L 124.660156 110.535156 C 124.730469 111.535156 124.757812 112.542969 124.886719 113.582031 C 125.683594 111.648438 125.9375 109.566406 125.941406 107.507812 C 125.953125 106.472656 125.886719 105.441406 125.765625 104.414062 C 125.671875 103.699219 125.554688 102.992188 125.382812 102.28125 C 130.59375 101.117188 133.753906 100.246094 134.660156 99.988281 C 136.160156 100.644531 136.675781 105.488281 137.027344 108.734375 L 137.078125 109.199219 C 137.414062 112.3125 136.613281 115.109375 136.226562 116.222656 L 125.527344 116.304688 L 119.835938 116.324219 C 117.953125 116.316406 116.003906 116.339844 114.09375 116.492188 C 106.449219 117.101562 98.960938 118.746094 91.609375 120.5625 C 87.953125 121.386719 84.226562 121.753906 80.460938 121.847656 C 78.578125 121.898438 76.683594 121.90625 74.792969 121.902344 C 72.890625 121.894531 70.972656 121.941406 69.082031 121.992188 C 67.199219 122.027344 65.308594 122.085938 63.554688 121.800781 C 62.6875 121.648438 61.871094 121.390625 61.191406 120.953125 C 60.847656 120.734375 60.539062 120.480469 60.269531 120.171875 C 59.992188 119.882812 59.691406 119.476562 59.417969 119.121094 C 57.464844 116.523438 55.835938 113.632812 53.820312 110.902344 C 56.050781 110.359375 60.664062 109.152344 65.289062 107.417969 Z M 79.886719 103.898438 C 80.875 103.414062 81.859375 102.914062 82.839844 102.394531 C 83.585938 101.996094 84.328125 101.582031 85.0625 101.144531 C 86.25 102.242188 87.355469 103.488281 88.410156 104.777344 C 89.265625 105.839844 90.085938 106.9375 90.875 108.050781 C 90.628906 108.089844 90.378906 108.128906 90.144531 108.160156 C 89.042969 108.320312 88.015625 108.476562 87.046875 108.628906 C 80.875 109.585938 78.074219 109.914062 76.285156 107.5625 C 75.882812 107.035156 75.492188 106.574219 75.109375 106.171875 C 76.710938 105.433594 78.304688 104.679688 79.886719 103.898438 Z M 86.6875 99.179688 C 86.882812 98.789062 87.136719 98.414062 87.410156 98.058594 C 87.960938 97.34375 88.664062 96.730469 89.425781 96.203125 C 90.1875 95.6875 91.019531 95.273438 91.890625 95.015625 C 92.324219 94.886719 92.773438 94.804688 93.214844 94.75 C 93.515625 94.722656 93.855469 94.710938 94.148438 94.726562 C 95.007812 95.558594 95.863281 96.417969 96.699219 97.289062 C 97.613281 98.242188 98.507812 99.210938 99.382812 100.199219 C 100.851562 101.871094 102.253906 103.601562 103.507812 105.417969 C 99.539062 106.347656 95.679688 107.203125 92.570312 107.761719 C 91.671875 106.382812 90.742188 105.042969 89.75 103.726562 C 88.722656 102.378906 87.640625 101.070312 86.410156 99.84375 C 86.414062 99.816406 86.421875 99.792969 86.429688 99.769531 C 86.5 99.574219 86.589844 99.375 86.6875 99.179688 Z M 138.957031 108.996094 L 138.90625 108.53125 C 138.410156 103.886719 137.886719 99.097656 135.199219 98.1875 C 133.414062 92.171875 132.058594 85.945312 131.589844 79.703125 C 131.347656 76.5 131.378906 73.21875 131.476562 69.972656 C 131.578125 66.714844 131.828125 63.46875 132.164062 60.222656 C 132.839844 53.730469 133.683594 47.210938 134.496094 40.707031 L 135.726562 30.949219 C 135.917969 29.320312 136.164062 27.699219 136.300781 26.0625 C 136.429688 24.425781 136.484375 22.78125 136.320312 21.105469 C 135.722656 22.675781 135.351562 24.28125 135.050781 25.894531 C 134.757812 27.511719 134.570312 29.140625 134.335938 30.765625 L 132.984375 40.511719 L 131.644531 50.257812 C 131.210938 53.507812 130.757812 56.761719 130.417969 60.039062 C 130.082031 63.316406 129.828125 66.613281 129.722656 69.914062 C 129.625 73.214844 129.589844 76.507812 129.84375 79.839844 C 130.101562 83.160156 130.652344 86.433594 131.347656 89.667969 C 131.972656 92.585938 132.738281 95.457031 133.660156 98.304688 C 132.109375 98.734375 128.09375 99.796875 121.808594 101.125 C 118.804688 101.761719 114.867188 102.707031 110.707031 103.707031 C 108.78125 104.167969 106.792969 104.644531 104.816406 105.113281 C 103.535156 103.035156 102.089844 101.082031 100.570312 99.195312 C 99.722656 98.15625 98.855469 97.132812 97.96875 96.125 C 97.21875 95.277344 96.460938 94.449219 95.679688 93.621094 C 97.632812 91.46875 99.289062 89.101562 100.558594 86.457031 C 101.25 85.003906 101.777344 83.417969 102.078125 81.835938 C 102.398438 80.257812 102.59375 78.679688 102.714844 77.101562 C 103.1875 70.796875 102.988281 64.527344 102.671875 58.269531 C 102.503906 55.128906 102.167969 52.011719 101.839844 48.90625 C 101.507812 45.796875 101.152344 42.691406 100.765625 39.59375 L 99.585938 30.296875 C 99.375 28.75 99.214844 27.199219 98.925781 25.660156 C 98.625 24.125 98.261719 22.597656 97.648438 21.105469 C 97.429688 22.703125 97.457031 24.273438 97.546875 25.835938 C 97.640625 27.394531 97.871094 28.9375 98.035156 30.488281 L 99.082031 39.789062 C 99.730469 45.984375 100.480469 52.195312 100.847656 58.375 C 101.191406 64.578125 101.414062 70.816406 100.980469 76.964844 C 100.859375 78.5 100.71875 80.03125 100.4375 81.519531 C 100.179688 83.007812 99.742188 84.414062 99.117188 85.792969 C 98.503906 87.167969 97.734375 88.484375 96.882812 89.75 C 96.15625 90.835938 95.351562 91.90625 94.496094 92.886719 C 93.921875 92.886719 93.460938 92.949219 92.960938 93.042969 C 92.421875 93.140625 91.894531 93.273438 91.390625 93.457031 C 90.367188 93.800781 89.414062 94.304688 88.535156 94.898438 C 87.648438 95.480469 86.851562 96.191406 86.132812 97.003906 C 85.777344 97.414062 85.449219 97.855469 85.164062 98.328125 C 85.019531 98.566406 84.882812 98.808594 84.761719 99.070312 C 84.65625 99.3125 84.5625 99.515625 84.472656 99.820312 C 83.726562 100.273438 82.949219 100.703125 82.164062 101.121094 C 81.203125 101.628906 80.226562 102.121094 79.246094 102.601562 C 77.484375 103.46875 75.699219 104.308594 73.910156 105.125 C 71.761719 103.605469 69.332031 103.882812 64.625 105.648438 C 59.15625 107.699219 53.699219 109 52.355469 109.308594 C 51.332031 108.851562 48.160156 107.761719 44.234375 109.429688 C 42.574219 110.136719 41.335938 111.597656 40.652344 113.664062 C 39.675781 116.597656 40.003906 120.363281 40.902344 121.90625 C 42.382812 124.441406 52.824219 129.101562 65.4375 129.101562 L 133.703125 129.101562 C 136.894531 129.101562 138.183594 124.800781 138.730469 122.964844 L 138.773438 122.824219 C 139.296875 121.074219 138.609375 118.375 137.945312 117.035156 C 138.363281 115.886719 139.351562 112.679688 138.957031 108.996094 " fill-opacity="1" fill-rule="nonzero"/></g><path fill="#ffffff" d="M 121.789062 96.601562 C 122.585938 96.074219 123.273438 95.320312 123.660156 94.410156 C 124.0625 93.511719 124.269531 92.503906 124.222656 91.523438 C 124.195312 90.539062 123.964844 89.574219 123.558594 88.703125 C 123.148438 87.839844 122.589844 87.035156 121.789062 86.460938 C 121.898438 87.425781 122.027344 88.289062 122.140625 89.132812 C 122.246094 89.976562 122.332031 90.785156 122.371094 91.585938 C 122.421875 92.394531 122.375 93.1875 122.28125 94.003906 C 122.222656 94.835938 121.972656 95.636719 121.789062 96.601562 " fill-opacity="1" fill-rule="nonzero"/></svg>