<svg xmlns="http://www.w3.org/2000/svg" xmlns:xlink="http://www.w3.org/1999/xlink" width="200" zoomAndPan="magnify" viewBox="0 0 150 149.999998" height="200" preserveAspectRatio="xMidYMid meet" version="1.0"><defs><clipPath id="id1"><path d="M 19 14 L 133 14 L 133 142 L 19 142 Z M 19 14 " clip-rule="nonzero"/></clipPath><clipPath id="id2"><path d="M 66.199219 -14.664062 L 175.6875 59.066406 L 97.34375 175.398438 L -12.140625 101.664062 Z M 66.199219 -14.664062 " clip-rule="nonzero"/></clipPath><clipPath id="id3"><path d="M 66.199219 -14.664062 L 175.6875 59.066406 L 97.34375 175.398438 L -12.140625 101.664062 Z M 66.199219 -14.664062 " clip-rule="nonzero"/></clipPath></defs><g clip-path="url(#id1)"><g clip-path="url(#id2)"><g clip-path="url(#id3)"><path fill="#ffffff" d="M 19.960938 121.8125 C 20.195312 121.453125 21.652344 120.683594 23.199219 120.097656 C 26.128906 118.988281 31.789062 114.496094 32.578125 112.648438 C 33.667969 110.09375 39.277344 105.074219 42.488281 103.777344 C 45.527344 102.546875 45.980469 102.082031 45.910156 100.25 C 45.871094 99.085938 46.253906 97.515625 46.765625 96.757812 C 47.332031 95.914062 47.136719 95 46.269531 94.414062 C 45.484375 93.886719 44.761719 92.652344 44.667969 91.671875 C 44.570312 90.691406 43.929688 89.511719 43.246094 89.050781 C 42.558594 88.585938 42.179688 87.210938 42.40625 85.988281 C 42.714844 84.28125 42.15625 83.296875 40 81.757812 C 38.453125 80.652344 37.128906 79.433594 37.054688 79.054688 C 36.980469 78.671875 37.882812 75.835938 39.058594 72.753906 C 40.519531 68.925781 40.980469 65.953125 40.515625 63.359375 C 40.144531 61.273438 39.648438 57.375 39.414062 54.691406 C 39.074219 50.75 38.644531 49.789062 37.160156 49.671875 C 34.042969 49.417969 32.355469 45.535156 32.835938 39.714844 C 33.214844 35.144531 33.714844 33.847656 36.253906 30.898438 C 39.808594 26.761719 48.371094 21.710938 55.4375 19.582031 C 65.121094 16.667969 83.359375 13.71875 87.488281 14.402344 C 89.761719 14.78125 93.277344 15.898438 95.296875 16.886719 C 98.417969 18.417969 99.457031 18.433594 102.210938 16.976562 C 106.960938 14.46875 109.882812 14.761719 113.644531 18.125 C 116.777344 20.925781 120.855469 26.871094 119.789062 27.082031 C 119.480469 27.144531 118.003906 25.585938 116.511719 23.617188 C 114.027344 20.347656 113.515625 20.007812 110.527344 19.636719 C 108.417969 19.371094 107.835938 19.101562 108.886719 18.863281 C 111.691406 18.238281 111.480469 17.253906 108.472656 16.910156 C 106.878906 16.730469 104.066406 17.523438 102.203125 18.679688 C 99.089844 20.617188 98.519531 20.621094 94.855469 18.742188 C 92.671875 17.621094 89.066406 16.484375 86.839844 16.21875 C 79.996094 15.398438 55.351562 20.78125 48.773438 24.527344 C 47.300781 25.367188 44.1875 28.015625 41.855469 30.410156 C 39.523438 32.808594 36.722656 35.65625 35.632812 36.742188 C 33.890625 38.472656 33.875 38.691406 35.5 38.523438 C 37.066406 38.363281 37.300781 38.695312 37.019531 40.675781 C 36.699219 42.914062 36.675781 42.914062 36.5 40.742188 C 36.398438 39.488281 36.066406 38.828125 35.765625 39.277344 C 35.464844 39.726562 35.441406 40.867188 35.714844 41.8125 C 35.992188 42.757812 36.394531 43.261719 36.617188 42.9375 C 36.835938 42.609375 37.265625 43.261719 37.574219 44.386719 C 38.597656 48.140625 39.175781 48.730469 39.878906 46.726562 C 40.484375 45 40.617188 45.019531 41.484375 46.972656 C 42.003906 48.140625 42.003906 48.984375 41.484375 48.839844 C 40.191406 48.480469 40.546875 58.050781 41.984375 62.355469 C 43.195312 65.988281 42.648438 69.203125 39.761719 75.332031 C 38.335938 78.363281 38.347656 79.09375 39.851562 80.109375 C 40.851562 80.78125 42.433594 80.875 43.46875 80.324219 C 44.484375 79.785156 45.878906 79.726562 46.570312 80.195312 C 47.710938 80.960938 47.65625 81.054688 45.984375 81.1875 C 44.3125 81.320312 44.132812 81.609375 44.039062 84.34375 C 43.949219 86.953125 44.164062 87.289062 45.652344 86.851562 C 47.523438 86.296875 52.65625 88.175781 53.84375 89.847656 C 54.261719 90.4375 52.976562 90.59375 50.898438 90.210938 C 46.972656 89.488281 44.699219 90.722656 48.113281 91.722656 C 49.691406 92.183594 49.832031 92.488281 48.796875 93.21875 C 48.082031 93.71875 47.816406 94.347656 48.210938 94.613281 C 48.605469 94.878906 48.460938 96.40625 47.890625 98.003906 C 46.472656 101.992188 48.421875 103.441406 55.09375 103.371094 C 65.417969 103.257812 78.980469 96.128906 82.355469 89.042969 C 83.761719 86.089844 83.769531 85.269531 82.398438 84.339844 C 80.785156 83.246094 80.445312 77.84375 81.863281 75.851562 C 82.207031 75.371094 82.429688 75.835938 82.359375 76.890625 C 82.253906 78.40625 82.582031 78.769531 83.914062 78.632812 C 86.363281 78.382812 86.734375 77.300781 84.859375 75.867188 L 83.21875 74.609375 L 85.152344 75.429688 C 86.503906 76.003906 87.449219 75.710938 88.292969 74.460938 C 90.042969 71.855469 91.953125 70.726562 92.621094 71.894531 C 92.941406 72.453125 92.75 70.996094 92.199219 68.65625 L 91.195312 64.40625 L 92.773438 67.804688 C 93.640625 69.671875 93.988281 71.980469 93.539062 72.929688 C 92.511719 75.121094 95.105469 78.109375 98.785156 78.972656 C 101.054688 79.503906 101.277344 79.699219 100.023438 80.070312 C 97.714844 80.753906 94.429688 79.003906 92.964844 76.308594 C 92.246094 74.980469 91.542969 73.953125 91.40625 74.027344 C 87.925781 75.808594 86.722656 77.246094 86.421875 79.980469 C 86.0625 83.277344 85.265625 85.382812 82.175781 91.230469 C 79.777344 95.765625 75.046875 99.53125 68.378906 102.214844 L 64.140625 103.921875 L 64.929688 107.589844 C 65.734375 111.320312 65.0625 113.730469 63.515625 112.6875 C 62.96875 112.320312 62.265625 113.054688 61.574219 114.710938 C 60.78125 116.597656 60.199219 117.113281 59.429688 116.59375 C 58.058594 115.671875 58.515625 114.019531 60.847656 111.445312 C 61.910156 110.277344 62.679688 108.425781 62.621094 107.179688 C 62.523438 105.050781 62.363281 104.996094 57.742188 105.496094 C 55.117188 105.78125 51.480469 105.539062 49.660156 104.960938 L 46.359375 103.90625 L 46.203125 107.339844 C 46.023438 111.273438 51.753906 121.835938 56.457031 126.234375 C 59.371094 128.964844 60.398438 131.671875 57.871094 129.972656 C 57.117188 129.460938 54.589844 126.773438 52.261719 124 C 47.828125 118.71875 45.007812 112.769531 44.664062 107.960938 L 44.460938 105.113281 L 41.4375 107.109375 C 39.777344 108.207031 36.699219 111.035156 34.597656 113.394531 L 30.773438 117.679688 L 34.574219 116.707031 C 38.902344 115.59375 39.546875 115.707031 37.742188 117.25 C 36.324219 118.460938 19.285156 122.835938 19.960938 121.8125 Z M 85.070312 81.632812 C 85.113281 80.609375 82.5 79.777344 81.921875 80.636719 C 81.71875 80.941406 81.621094 81.566406 81.710938 82.027344 C 81.929688 83.152344 85.023438 82.789062 85.070312 81.632812 Z M 107.660156 132.574219 C 104.71875 128.339844 101.554688 123.175781 100.621094 121.101562 L 98.925781 117.335938 L 97.550781 121.742188 L 97.050781 119.183594 C 96.773438 117.777344 96.980469 112.679688 97.507812 107.855469 C 98.34375 100.214844 98.195312 98.808594 96.367188 96.941406 C 93.683594 94.207031 92.929688 91.277344 95.574219 93.855469 C 96.734375 94.988281 97.417969 95.230469 97.449219 94.523438 C 97.472656 93.910156 96.539062 92.765625 95.375 91.980469 C 94.210938 91.195312 93.101562 89.445312 92.910156 88.09375 C 92.566406 85.664062 92.59375 85.660156 94.851562 87.828125 C 96.109375 89.039062 97.488281 90.46875 97.917969 91.003906 C 98.351562 91.539062 98.71875 91.546875 98.742188 91.023438 C 98.761719 90.496094 99.488281 90.230469 100.347656 90.425781 C 101.210938 90.621094 101.859375 90.488281 101.789062 90.128906 C 101.71875 89.769531 100.578125 89.292969 99.25 89.074219 C 97.441406 88.777344 96.015625 87.757812 93.558594 85.007812 C 91.753906 82.988281 90.550781 81.125 90.878906 80.867188 C 91.207031 80.605469 91.1875 79.714844 90.835938 78.878906 C 90.398438 77.835938 91.101562 78.195312 93.097656 80.027344 C 95 81.777344 96.605469 82.628906 97.777344 82.507812 C 98.976562 82.382812 99.378906 82.601562 98.996094 83.164062 C 98.6875 83.628906 97.550781 83.65625 96.472656 83.222656 L 92.78125 81.738281 C 91.566406 81.246094 91.667969 81.496094 93.121094 82.566406 C 94.265625 83.40625 96.132812 84.1875 97.273438 84.300781 C 98.410156 84.414062 100.117188 84.835938 101.0625 85.238281 C 103.386719 86.226562 101.632812 87.488281 98.464844 87.109375 C 96.835938 86.914062 96.40625 87.097656 97.210938 87.648438 C 97.878906 88.109375 99.828125 88.382812 101.535156 88.25 C 103.242188 88.121094 104.394531 88.269531 104.089844 88.585938 C 103.785156 88.898438 103.261719 89.652344 102.921875 90.265625 C 102.402344 91.203125 102.613281 91.34375 104.300781 91.191406 C 105.996094 91.035156 106.089844 91.101562 104.925781 91.648438 C 104.042969 92.0625 103.964844 92.300781 104.703125 92.328125 C 105.332031 92.351562 107.3125 91.234375 109.101562 89.847656 C 112.445312 87.253906 113.28125 85.5625 114.664062 78.578125 C 115.480469 74.4375 116.144531 73.554688 115.890625 76.945312 C 115.78125 78.398438 115.9375 79.246094 116.238281 78.832031 C 116.539062 78.414062 116.808594 75.640625 116.839844 72.667969 C 116.878906 68.675781 116.28125 66.449219 114.570312 64.191406 C 113.292969 62.503906 111.9375 59.667969 111.554688 57.890625 C 110.945312 55.054688 111.277344 54.023438 114.277344 49.484375 C 117.097656 45.21875 117.429688 44.910156 116.164062 47.722656 C 114.066406 52.382812 113.703125 56.941406 115.199219 59.78125 C 115.890625 61.089844 116.214844 62.207031 115.925781 62.265625 C 115.636719 62.320312 114.945312 61.503906 114.390625 60.449219 C 113.832031 59.394531 113.246094 58.726562 113.085938 58.964844 C 112.921875 59.203125 113.847656 61.042969 115.136719 63.050781 C 116.429688 65.058594 117.613281 68.457031 117.769531 70.609375 C 117.925781 72.757812 118.34375 74.089844 118.703125 73.570312 C 119.058594 73.050781 119.046875 70.46875 118.675781 67.832031 C 118.308594 65.195312 118.371094 63.074219 118.820312 63.113281 C 119.265625 63.152344 119.234375 63.023438 118.746094 62.828125 C 118.257812 62.628906 117.277344 60.433594 116.570312 57.945312 C 115.359375 53.691406 115.460938 53.117188 118.25 48.386719 C 120.496094 44.578125 121.765625 43.1875 123.484375 42.664062 C 125.699219 41.988281 125.707031 42.007812 123.941406 43.527344 L 122.136719 45.085938 L 125.019531 44.253906 C 128.097656 43.363281 128.257812 44.089844 125.332031 45.644531 C 123.207031 46.773438 123.722656 47.359375 126.378906 46.835938 C 127.429688 46.628906 128.699219 45.613281 129.203125 44.574219 C 129.902344 43.125 129.648438 42.441406 128.085938 41.605469 C 126.441406 40.726562 126.378906 40.507812 127.757812 40.457031 C 129.132812 40.40625 129.082031 40.246094 127.496094 39.617188 C 126.414062 39.191406 125.929688 38.660156 126.421875 38.4375 C 126.914062 38.214844 126.929688 37.773438 126.464844 37.460938 C 125.996094 37.144531 126.058594 36.6875 126.597656 36.441406 C 127.140625 36.195312 127.925781 36.222656 128.34375 36.503906 C 128.761719 36.785156 128.660156 37.21875 128.117188 37.464844 C 127.578125 37.710938 127.667969 38.269531 128.320312 38.707031 C 129.949219 39.808594 130.242188 39.058594 129.367188 36.019531 C 128.472656 32.921875 125.648438 30.828125 122.59375 31.003906 C 119.847656 31.160156 117.761719 29.753906 115.710938 26.359375 L 114.144531 23.769531 L 116.316406 25.84375 C 117.613281 27.082031 119.8125 28.125 121.761719 28.421875 C 124.796875 28.886719 127.78125 30.160156 129.925781 31.902344 C 130.417969 32.296875 131.351562 34.789062 132 37.433594 C 132.929688 41.207031 132.816406 42.789062 131.472656 44.78125 C 130.535156 46.175781 129.253906 47.300781 128.628906 47.277344 C 128.007812 47.253906 127.367188 47.726562 127.207031 48.324219 C 127.046875 48.925781 125.628906 50.382812 124.054688 51.566406 C 121.5625 53.441406 121.132812 54.1875 120.742188 57.339844 C 120.496094 59.332031 120.695312 63.839844 121.179688 67.355469 C 122.34375 75.773438 121.964844 78.25 118.777344 83.066406 C 117.3125 85.277344 116.089844 87.648438 116.0625 88.332031 C 116.027344 89.121094 115.816406 89.140625 115.472656 88.375 C 115.066406 87.472656 114.585938 87.976562 113.527344 90.425781 C 112.753906 92.210938 111.757812 94.210938 111.3125 94.867188 C 109.328125 97.78125 108.308594 98.785156 108.152344 97.976562 C 108.058594 97.496094 106.824219 97.867188 105.410156 98.796875 C 103.992188 99.726562 102.648438 100.070312 102.414062 99.554688 C 102.183594 99.042969 101.476562 98.855469 100.84375 99.144531 C 100.082031 99.492188 100.160156 99.6875 101.074219 99.71875 C 102.003906 99.753906 102.101562 100.039062 101.371094 100.582031 C 100.078125 101.542969 99.289062 109.453125 100.007812 114.277344 C 100.625 118.429688 103.394531 124.328125 106.640625 128.402344 C 107.957031 130.054688 109.15625 131.929688 109.304688 132.566406 C 109.453125 133.203125 110.097656 134.089844 110.738281 134.535156 C 111.378906 134.984375 112.835938 136.921875 113.972656 138.84375 C 117.613281 144.996094 113.320312 140.734375 107.660156 132.574219 Z M 105.035156 97.820312 C 105.921875 97.195312 105.582031 97.015625 103.460938 96.992188 C 100.199219 96.960938 99.882812 97.210938 102.179688 98.011719 C 103.128906 98.34375 104.414062 98.257812 105.035156 97.820312 Z M 120.144531 79 C 120.0625 78.578125 119.578125 78.90625 119.070312 79.734375 C 118.507812 80.648438 118.566406 80.949219 119.21875 80.503906 C 119.808594 80.101562 120.226562 79.425781 120.144531 79 Z M 120.753906 77.101562 C 120.984375 76.765625 121.101562 75.46875 121.015625 74.226562 C 120.871094 72.132812 120.824219 72.167969 120.34375 74.671875 C 119.820312 77.375 119.972656 78.261719 120.753906 77.101562 Z M 113.285156 55.878906 C 113.210938 54.363281 112.972656 53.15625 112.753906 53.195312 C 112.097656 53.308594 112.140625 57.773438 112.800781 58.21875 C 113.136719 58.445312 113.355469 57.394531 113.285156 55.878906 Z M 119.332031 57.070312 C 119.535156 55.375 119.546875 53.882812 119.359375 53.757812 C 118.894531 53.445312 118.152344 56.523438 118.265625 58.292969 C 118.429688 60.851562 118.960938 60.242188 119.332031 57.070312 Z M 120.902344 50.082031 C 121.046875 49.414062 120.585938 49.730469 119.878906 50.777344 C 119.171875 51.828125 119.054688 52.375 119.617188 51.992188 C 120.183594 51.609375 120.761719 50.75 120.902344 50.082031 Z M 46.277344 66.316406 C 46.429688 66.085938 48.195312 65.5 50.195312 65.007812 C 54.730469 63.898438 62.082031 66.671875 59.535156 68.53125 C 56.832031 70.5 54.882812 70.8125 52.910156 69.589844 C 51.839844 68.921875 49.84375 68.007812 48.480469 67.554688 C 47.113281 67.105469 46.121094 66.546875 46.277344 66.316406 Z M 55.683594 67.003906 C 57.019531 66.605469 56.980469 66.40625 55.457031 65.875 C 53.21875 65.09375 51.4375 65.71875 52.964844 66.75 C 53.566406 67.152344 54.789062 67.265625 55.683594 67.003906 Z M 45.15625 61.417969 C 46.308594 59.710938 49.25 58.800781 52.339844 59.199219 C 56.867188 59.78125 58.726562 61.285156 54.707031 61.109375 C 52.910156 61.035156 50.238281 61.480469 48.765625 62.101562 C 46.050781 63.25 44.164062 62.894531 45.15625 61.417969 Z M 42.203125 46.269531 C 41.867188 45.5 41.046875 44.742188 40.378906 44.589844 C 39.714844 44.441406 39.292969 43.234375 39.4375 41.914062 C 39.707031 39.519531 39.707031 39.519531 40.359375 42.0625 C 40.785156 43.742188 41.234375 44.28125 41.664062 43.640625 C 42.179688 42.878906 42.445312 43.078125 42.878906 44.5625 C 43.386719 46.296875 43.441406 46.253906 43.523438 44.066406 C 43.582031 42.589844 43.210938 41.859375 42.554688 42.160156 C 41.320312 42.71875 41.066406 34.683594 42.261719 32.929688 C 42.695312 32.292969 42.9375 33.820312 42.800781 36.324219 C 42.523438 41.347656 42.972656 42.480469 43.992188 39.347656 C 44.480469 37.855469 44.632812 38.230469 44.5625 40.71875 C 44.460938 44.214844 45.113281 46.765625 45.8125 45.628906 C 46.027344 45.28125 46.152344 43.992188 46.085938 42.761719 C 46.023438 41.535156 46.214844 40.167969 46.515625 39.722656 C 46.816406 39.28125 46.988281 40.488281 46.898438 42.410156 C 46.808594 44.335938 47.292969 46.28125 47.972656 46.742188 C 49.085938 47.492188 49.214844 47.273438 49.265625 44.558594 C 49.3125 41.933594 49.390625 41.792969 49.886719 43.449219 C 50.605469 45.863281 51.117188 45.128906 51.167969 41.609375 C 51.191406 40.097656 51.53125 38.800781 51.925781 38.722656 C 52.320312 38.644531 52.480469 39.929688 52.289062 41.578125 C 52.09375 43.230469 52.199219 45.46875 52.523438 46.558594 C 53.046875 48.3125 53.125 48.171875 53.230469 45.289062 L 53.347656 42.039062 L 55.074219 48.75 L 55.484375 45.472656 C 56.085938 40.652344 56.621094 40.515625 57.082031 45.070312 C 57.355469 47.777344 57.875 48.933594 58.652344 48.582031 C 59.289062 48.292969 59.476562 47.832031 59.066406 47.554688 C 58.316406 47.050781 58.28125 40.289062 59.027344 39.183594 C 59.246094 38.855469 59.496094 40.707031 59.578125 43.292969 C 59.660156 45.882812 60.03125 48.207031 60.402344 48.457031 C 60.773438 48.703125 60.925781 49.558594 60.742188 50.351562 C 60.5 51.398438 58.460938 51.550781 53.332031 50.910156 C 46.175781 50.015625 43.316406 48.824219 42.203125 46.269531 Z M 87.105469 71.429688 C 87.589844 70.488281 87.515625 70.082031 86.925781 70.476562 C 85.21875 71.636719 84.292969 70.257812 85.917969 68.964844 C 87.160156 67.976562 87.082031 67.53125 85.476562 66.449219 C 83.902344 65.390625 83.773438 64.765625 84.808594 63.226562 C 86.277344 61.046875 85.949219 60.679688 82.285156 60.417969 C 77.015625 60.039062 73.027344 56.058594 74.601562 52.746094 C 75.167969 51.546875 75.585938 51.785156 77.109375 54.15625 C 78.1875 55.835938 78.1875 55.835938 76.597656 54.914062 C 75.152344 54.074219 75.125 54.160156 76.289062 55.882812 C 77.207031 57.242188 79.050781 58.152344 82.886719 59.144531 C 87.894531 60.441406 93.296875 63.058594 89.742188 62.464844 C 87.441406 62.082031 86.152344 64.871094 87.660156 66.972656 C 88.804688 68.566406 89.0625 68.59375 89.398438 67.160156 C 89.691406 65.90625 89.867188 65.84375 90.078125 66.910156 C 90.230469 67.699219 89.4375 69.410156 88.308594 70.714844 C 87.183594 72.015625 86.640625 72.339844 87.105469 71.429688 Z M 62.140625 48.34375 C 62.171875 47.570312 62.386719 47.53125 62.703125 48.234375 C 62.984375 48.859375 63.75 49.390625 64.40625 49.414062 C 65.238281 49.445312 65.421875 49.046875 65.011719 48.105469 C 64.554688 47.066406 64.738281 46.964844 65.808594 47.675781 C 66.863281 48.371094 67.472656 48.0625 68.332031 46.390625 C 69.871094 43.398438 68.691406 42.238281 65.878906 43.96875 C 63.738281 45.289062 63.535156 45.238281 63.164062 43.316406 C 62.792969 41.394531 62.945312 41.191406 65.203125 40.625 C 66.546875 40.289062 67.269531 39.761719 66.8125 39.453125 C 66.351562 39.144531 64.945312 39.289062 63.683594 39.777344 C 62.425781 40.265625 61.316406 40.273438 61.226562 39.792969 C 61.132812 39.3125 62.214844 38.613281 63.628906 38.238281 C 65.929688 37.625 66.027344 37.511719 64.539062 37.148438 C 61.671875 36.441406 63.265625 35.925781 66.65625 36.464844 L 69.898438 36.980469 L 66.890625 35.476562 C 63.601562 33.832031 59.585938 29.144531 60.460938 27.964844 C 61.171875 26.996094 63.523438 28.933594 67.65625 33.90625 C 69.496094 36.113281 70.621094 38.09375 70.15625 38.304688 C 69.695312 38.515625 69.691406 39.230469 70.15625 39.890625 C 70.617188 40.550781 70.640625 41.621094 70.207031 42.261719 C 69.515625 43.292969 70.566406 44.777344 72.652344 45.714844 C 73.03125 45.882812 72.476562 47.074219 71.421875 48.359375 C 70.296875 49.726562 69.164062 50.363281 68.695312 49.890625 C 68.253906 49.445312 67.066406 49.519531 66.058594 50.054688 C 64.03125 51.132812 62.0625 50.273438 62.140625 48.34375 Z M 64.394531 31.519531 C 63.996094 30.929688 63.320312 30.515625 62.898438 30.601562 C 62.472656 30.683594 62.800781 31.167969 63.625 31.671875 C 64.535156 32.230469 64.835938 32.171875 64.394531 31.519531 Z M 78.214844 54.570312 C 76.628906 52.257812 76.78125 50.636719 78.480469 51.710938 C 79.011719 52.050781 81.632812 53.511719 84.296875 54.964844 C 86.964844 56.417969 90.808594 58.648438 92.835938 59.921875 C 94.863281 61.195312 96.589844 62.136719 96.675781 62.007812 C 96.761719 61.882812 95.824219 60.140625 94.59375 58.132812 C 93.359375 56.128906 92.71875 54.683594 93.160156 54.925781 C 93.605469 55.167969 93.484375 54.613281 92.890625 53.6875 C 91.929688 52.1875 91.964844 52.101562 93.222656 52.882812 C 94 53.359375 94.65625 53.265625 94.679688 52.671875 C 94.703125 52.078125 95.027344 51.742188 95.398438 51.921875 C 99.339844 53.835938 100.480469 54.652344 99.707031 55 C 99.195312 55.234375 99.515625 55.582031 100.433594 55.792969 C 101.542969 56.046875 101.703125 56.335938 100.9375 56.6875 C 100.191406 57.023438 100.3125 57.324219 101.28125 57.542969 C 103.480469 58.046875 103.445312 57.566406 100.996094 53.621094 C 98.789062 50.070312 98.792969 50.042969 101.167969 50.898438 C 102.484375 51.375 103.582031 51.277344 103.605469 50.6875 C 103.628906 50.101562 104.132812 50.53125 104.71875 51.648438 C 105.308594 52.765625 105.480469 53.738281 105.097656 53.816406 C 104.71875 53.890625 104.734375 55.09375 105.136719 56.488281 C 105.550781 57.925781 105.4375 58.75 104.875 58.394531 C 103.542969 57.546875 100.148438 60.011719 100.75 61.394531 C 101.0625 62.113281 100.632812 62.621094 99.402344 62.984375 C 97.960938 63.410156 97.632812 63.875 97.773438 65.300781 C 97.917969 66.785156 97.691406 66.910156 96.398438 66.039062 C 95.546875 65.464844 94.082031 64.777344 93.148438 64.511719 C 91.890625 64.152344 91.84375 64.015625 92.96875 63.980469 C 94.125 63.945312 94.035156 63.328125 92.601562 61.40625 C 91.082031 59.367188 89.75 58.589844 85.777344 57.421875 C 82.578125 56.484375 81.03125 56.414062 81.386719 57.226562 C 82.195312 59.082031 80.109375 57.335938 78.214844 54.570312 Z M 103.5625 55.289062 C 103.132812 53.800781 103.21875 52.875 103.75 53.234375 C 104.285156 53.59375 104.664062 53.589844 104.59375 53.222656 C 104.523438 52.855469 103.734375 52.386719 102.835938 52.179688 C 101.457031 51.867188 101.394531 52.234375 102.417969 54.617188 C 104.023438 58.34375 104.53125 58.644531 103.5625 55.289062 Z M 77.277344 45.710938 C 76.574219 44.945312 75.886719 43.753906 75.742188 43.0625 C 75.574219 42.25 76.136719 42.566406 77.34375 43.972656 C 78.363281 45.160156 82.132812 48.050781 85.71875 50.394531 C 91.140625 53.9375 91.59375 54.371094 88.414062 52.957031 C 84.199219 51.085938 79.25 47.867188 77.277344 45.710938 Z M 57.417969 30.910156 C 57.960938 30.664062 59.304688 31.105469 60.410156 31.894531 C 62.207031 33.171875 62.210938 33.285156 60.457031 32.957031 C 57.734375 32.445312 56.246094 31.441406 57.417969 30.910156 Z M 69.574219 31.722656 C 67.015625 28.433594 64.667969 24.242188 65.0625 23.660156 C 65.308594 23.296875 66.402344 24.613281 67.492188 26.589844 C 68.582031 28.5625 70.558594 31.351562 71.878906 32.785156 C 73.570312 34.613281 73.71875 35.011719 72.375 34.125 C 71.324219 33.429688 70.0625 32.347656 69.574219 31.722656 Z M 86.042969 42.546875 C 85.335938 41.492188 87.078125 42.3125 90.945312 44.855469 C 94.242188 47.027344 96.742188 48.847656 96.496094 48.894531 C 95.402344 49.109375 87.035156 44.027344 86.042969 42.546875 Z M 74.585938 32.484375 L 69.980469 28.65625 L 74.59375 31.648438 C 77.132812 33.296875 79.691406 35.398438 80.285156 36.320312 C 81.476562 38.175781 81.253906 38.027344 74.585938 32.484375 Z M 73.46875 27.015625 C 73.875 26.832031 73.433594 26.125 72.488281 25.445312 C 70.863281 24.277344 70.878906 24.230469 72.730469 24.574219 C 76.84375 25.347656 84.902344 32.246094 81.542969 32.121094 C 79.757812 32.054688 72.488281 27.457031 73.46875 27.015625 Z M 78.066406 28.511719 C 77.457031 27.820312 76.425781 27.140625 75.769531 27.003906 C 75.113281 26.867188 75.613281 27.433594 76.875 28.261719 C 78.140625 29.089844 78.675781 29.203125 78.066406 28.511719 Z M 76.300781 22.648438 C 76.367188 21.113281 86.378906 21.5625 88.820312 23.207031 C 90.230469 24.15625 91.03125 24.257812 91.0625 23.488281 C 91.09375 22.71875 91.519531 22.777344 92.265625 23.660156 C 92.898438 24.410156 94.484375 26.023438 95.785156 27.246094 L 98.15625 29.464844 L 96.453125 26.664062 C 94.707031 23.792969 94.480469 22.082031 96.164062 24.492188 C 96.792969 25.390625 97.117188 25.417969 97.152344 24.570312 C 97.191406 23.632812 97.585938 23.851562 98.683594 25.414062 C 100.855469 28.496094 102.1875 29.046875 100.839844 26.304688 C 100.195312 25 100.128906 24.222656 100.6875 24.578125 C 101.242188 24.929688 101.71875 24.722656 101.746094 24.113281 C 101.808594 22.59375 107.058594 30.191406 109.554688 35.410156 C 111.898438 40.3125 112 41.285156 110.277344 42.496094 C 109.257812 43.210938 108.96875 42.824219 108.675781 40.355469 C 108.425781 38.230469 107.398438 36.578125 105.191406 34.753906 L 102.066406 32.167969 L 102.972656 38.714844 L 101.890625 35.273438 C 100.9375 32.238281 101.023438 31.820312 102.644531 31.699219 C 104.113281 31.589844 103.835938 31.382812 101.257812 30.675781 C 98.191406 29.832031 98.09375 29.878906 99.210938 31.667969 C 99.851562 32.703125 100.175781 33.847656 99.929688 34.210938 C 99.683594 34.578125 99.027344 33.785156 98.472656 32.453125 C 97.515625 30.164062 92.886719 27.394531 92.800781 29.054688 C 92.78125 29.433594 90.984375 28.644531 88.8125 27.296875 C 86.234375 25.699219 83.761719 24.898438 81.6875 24.996094 C 78.308594 25.152344 76.234375 24.25 76.300781 22.648438 Z M 110.4375 40.519531 C 110.792969 38.984375 104.113281 26.820312 102.273438 25.644531 C 101.679688 25.265625 101.710938 25.976562 102.34375 27.222656 L 103.496094 29.488281 L 101.421875 28.882812 C 100.277344 28.546875 99.398438 28.558594 99.464844 28.902344 C 99.53125 29.242188 100.574219 29.625 101.785156 29.746094 C 104.097656 29.976562 106.925781 32.679688 105.519531 33.316406 C 105.066406 33.523438 105.445312 33.953125 106.355469 34.269531 C 107.339844 34.613281 108.378906 36.246094 108.90625 38.277344 C 109.964844 42.339844 110.003906 42.394531 110.4375 40.519531 Z M 94.304688 27.808594 C 96.394531 27.90625 90.523438 25.347656 88.328125 25.199219 C 87.339844 25.136719 87.867188 25.59375 89.71875 26.414062 C 91.359375 27.136719 93.421875 27.765625 94.304688 27.808594 Z M 112.328125 43.414062 C 112.816406 40.882812 112.402344 38.128906 111.085938 35.1875 C 107.453125 27.066406 107.355469 26.734375 109.300781 29.320312 C 112.960938 34.179688 114.703125 40.898438 113.535156 45.640625 C 112.699219 49.03125 111.625 47.050781 112.328125 43.414062 Z M 110.394531 43.28125 C 110.675781 42.863281 111.058594 42.621094 111.242188 42.746094 C 111.425781 42.867188 111.558594 43.457031 111.535156 44.050781 C 111.507812 44.644531 111.125 44.886719 110.683594 44.585938 C 110.242188 44.289062 110.109375 43.703125 110.394531 43.28125 Z M 110.394531 43.28125 " fill-opacity="1" fill-rule="nonzero"/></g></g></g></svg>