<svg xmlns="http://www.w3.org/2000/svg" xmlns:xlink="http://www.w3.org/1999/xlink" width="200" zoomAndPan="magnify" viewBox="0 0 150 149.999998" height="200" preserveAspectRatio="xMidYMid meet" version="1.0"><defs><clipPath id="id1"><path d="M 40 8.0625 L 111 8.0625 L 111 142.3125 L 40 142.3125 Z M 40 8.0625 " clip-rule="nonzero"/></clipPath></defs><g clip-path="url(#id1)"><path fill="#fffeff" d="M 109.371094 60.503906 C 108.839844 60.417969 108.046875 60.515625 107.625 60.714844 C 107.191406 60.535156 106.753906 60.371094 106.351562 60.285156 C 106.792969 60.214844 107.222656 60.140625 107.644531 60.007812 C 108.195312 59.832031 108.410156 59.414062 108.5625 58.886719 C 108.769531 58.171875 108.664062 57.859375 108.132812 57.359375 C 107.800781 57.050781 106.933594 56.496094 106.523438 57.050781 C 106.167969 57.53125 106.785156 57.9375 107.222656 58.175781 C 106.597656 58.714844 105.082031 58.25 104.402344 58.25 L 104.382812 58.199219 C 105.039062 57.921875 105.957031 57.460938 106.164062 56.890625 C 106.324219 56.453125 106.21875 55.59375 105.933594 55.242188 C 105.617188 54.855469 104.851562 54.902344 104.414062 55.097656 C 103.855469 55.355469 104.148438 55.695312 104.492188 55.953125 C 104.097656 56.390625 103.59375 56.441406 103.085938 56.558594 C 102.535156 56.484375 102 56.308594 101.535156 56.039062 C 101.203125 55.851562 100.917969 55.582031 100.566406 55.441406 C 100.28125 55.324219 99.949219 55.296875 99.660156 55.292969 C 100.257812 52.773438 102.925781 39.65625 102.925781 39.65625 C 103.484375 37.09375 101.644531 36.21875 101.644531 36.21875 L 99.964844 35.097656 C 96.640625 32.824219 91.996094 31.910156 89.726562 31.582031 C 88.796875 30.503906 86.921875 29.882812 85.871094 29.121094 C 84.707031 28.273438 83.425781 27.210938 81.996094 26.867188 C 80.902344 25.679688 79.15625 25.726562 77.742188 24.769531 C 77.625 24.363281 77.503906 23.863281 77.394531 23.273438 C 77.25 21.734375 75.800781 20.304688 74.308594 19.046875 C 74.148438 18.761719 73.972656 18.480469 73.777344 18.207031 C 73.382812 17.632812 72.894531 17.152344 72.367188 16.746094 C 71.699219 15.414062 71.265625 13.902344 70.101562 12.992188 C 69.214844 12.316406 68.355469 11.964844 67.679688 11.757812 C 67.367188 11.097656 67.003906 10.410156 66.527344 9.753906 C 65.316406 8.113281 62.9375 8.351562 61.660156 9.175781 C 60.015625 8.890625 58.433594 9.136719 57.242188 10.289062 C 57.082031 10.023438 56.882812 9.757812 56.632812 9.492188 C 56.34375 9.160156 54.914062 8.210938 53.144531 8.703125 C 51.21875 8.992188 49.9375 11.074219 49.28125 12.863281 C 48.535156 14.703125 48.007812 16.535156 47.332031 17.78125 C 46.675781 19.035156 46.03125 19.722656 46.058594 19.742188 C 46.03125 19.722656 46.71875 19.078125 47.460938 17.851562 C 48.21875 16.636719 48.871094 14.808594 49.707031 13.054688 C 50.492188 11.28125 51.730469 9.601562 53.296875 9.472656 C 54.855469 9.164062 55.738281 9.9375 55.992188 10.167969 C 56.144531 10.324219 56.28125 10.488281 56.410156 10.652344 C 56.308594 10.625 56.203125 10.601562 56.085938 10.582031 C 55.71875 10.421875 54.898438 10.597656 53.96875 11.078125 C 53.28125 11.222656 52.226562 11.609375 51.242188 12.480469 C 49.824219 13.585938 48.800781 15.640625 48.464844 17.65625 C 48.066406 19.644531 47.761719 21.609375 47.632812 23.058594 C 47.445312 24.542969 46.589844 25.183594 46.617188 25.179688 C 46.585938 25.1875 47.488281 24.59375 47.777344 23.085938 C 47.992188 21.632812 48.40625 19.722656 48.917969 17.765625 C 49.285156 16.1875 50.023438 14.734375 50.992188 13.738281 C 50.628906 14.28125 50.328125 14.894531 50.132812 15.566406 C 49.457031 16.601562 48.878906 17.839844 48.617188 19.203125 C 48.488281 20.410156 48.753906 21.527344 49.085938 22.488281 C 48.953125 23.027344 48.84375 23.335938 48.855469 23.339844 C 48.84375 23.335938 48.960938 23.0625 49.117188 22.578125 C 49.207031 22.828125 49.296875 23.070312 49.390625 23.300781 C 49.390625 23.320312 49.390625 23.34375 49.394531 23.367188 C 49.203125 23.691406 49.039062 24.035156 48.90625 24.402344 C 48.417969 25.875 48.300781 27.425781 48.550781 28.628906 C 48.382812 29.246094 48.289062 29.84375 48.296875 30.394531 C 47.824219 31.414062 47.609375 32.5 47.679688 33.398438 C 46.890625 35.214844 46.074219 37.058594 45.976562 39.03125 C 45.964844 39.308594 45.980469 39.574219 46.007812 39.84375 L 41.175781 51.011719 C 41.175781 51.011719 39.097656 55.808594 40.695312 58.53125 C 40.695312 58.53125 48.0625 69.28125 50.570312 71.917969 C 50.199219 72.308594 49.871094 73.09375 49.707031 73.371094 C 49.273438 74.101562 48.863281 74.746094 48.515625 75.511719 C 48.261719 75.242188 47.898438 74.964844 47.640625 74.902344 C 47.6875 74.425781 47.65625 73.476562 47.023438 73.691406 C 46.53125 73.863281 46.523438 74.878906 46.585938 75.273438 C 46.6875 75.894531 46.878906 76.320312 47.488281 76.613281 C 48.019531 76.871094 48.433594 76.875 48.777344 77.324219 C 48.507812 77.605469 48.242188 78.019531 47.941406 78.355469 C 47.992188 77.824219 47.84375 77.167969 47.214844 77.289062 C 46.746094 77.382812 46.375 78.15625 46.265625 78.570312 C 46.132812 79.089844 46.167969 79.890625 46.425781 80.351562 C 46.792969 81.007812 47.394531 80.65625 47.90625 80.410156 C 48.398438 80.175781 48.957031 79.976562 49.410156 79.644531 C 49.21875 80.03125 49.085938 80.449219 49.019531 80.886719 C 48.566406 80.894531 48.035156 81.09375 47.816406 81.480469 C 47.472656 82.09375 48.507812 82.371094 48.9375 82.476562 C 50.253906 82.804688 50.746094 81.472656 51.214844 80.480469 C 51.382812 80.125 51.585938 79.777344 51.738281 79.40625 C 51.773438 79.429688 51.804688 79.453125 51.835938 79.472656 C 51.707031 79.945312 51.949219 80.492188 52.046875 80.929688 C 52.148438 81.394531 52.253906 81.996094 52.21875 82.53125 C 51.75 82.464844 51.035156 82.527344 50.804688 82.867188 C 50.476562 83.347656 51.472656 83.746094 51.804688 83.886719 C 52.28125 84.09375 53.023438 84.253906 53.425781 83.769531 C 53.773438 83.351562 53.894531 82.550781 53.894531 82.042969 C 53.894531 81.183594 53.734375 80.335938 53.660156 79.464844 C 54.066406 77.644531 55.015625 74.921875 55.015625 74.921875 C 56.214844 72.203125 54.535156 69.644531 54.535156 69.644531 L 49.175781 60.765625 L 46.585938 55.59375 C 46.875 54 48.136719 51.652344 48.136719 51.652344 C 49.058594 50.296875 49.839844 48.507812 50.449219 46.816406 C 50.667969 47.765625 50.976562 48.742188 51.191406 49.640625 C 51.761719 48.949219 51.296875 46.539062 51.347656 45.578125 C 52.652344 47.203125 52.332031 49.933594 53.179688 51.867188 C 53.15625 50.445312 53.175781 49.019531 53.175781 47.597656 C 53.289062 48.679688 53.875 50.386719 54.453125 51.261719 C 54.734375 50.933594 54.945312 50.28125 55.109375 49.601562 C 56.011719 54.335938 55.386719 59.429688 56.136719 64.285156 C 56.542969 66.929688 57.191406 69.613281 57.421875 72.285156 C 57.652344 74.933594 57.410156 77.65625 57.574219 80.28125 C 57.773438 83.460938 57.925781 86.738281 58.410156 89.863281 C 59.308594 88.644531 59.191406 86.410156 59.164062 84.816406 C 59.867188 86.417969 59.878906 88.34375 60.460938 89.980469 C 60.691406 88.738281 61.074219 87.457031 61.464844 86.15625 C 62.511719 91.164062 63.867188 99.960938 61.414062 103.472656 L 61.464844 103.59375 C 59.449219 104.429688 54.761719 106.914062 51.335938 112.910156 L 45.976562 122.503906 C 45.976562 122.503906 44.214844 125.382812 42.136719 126.425781 C 42.136719 126.425781 39.65625 127.625 40.378906 130.742188 C 40.378906 130.742188 41.5 133.621094 41.816406 135.300781 C 41.816406 135.300781 42.792969 139.738281 44.824219 140.003906 C 44.925781 140.355469 44.925781 140.917969 45.160156 141.152344 C 45.558594 141.554688 46 141.363281 46.195312 140.992188 C 46.367188 141.320312 46.542969 141.707031 46.976562 141.742188 C 47.300781 141.769531 47.488281 141.621094 47.578125 141.398438 C 47.867188 142.101562 48.6875 142.027344 48.929688 141.425781 C 49.105469 141.804688 49.335938 142.089844 49.855469 142.160156 C 50.527344 142.246094 50.699219 141.886719 50.742188 141.410156 C 51.160156 141.824219 52.128906 141.710938 52.421875 141.1875 C 52.75 140.609375 52.210938 139.984375 51.664062 139.539062 C 51.648438 139.488281 51.628906 139.441406 51.609375 139.386719 C 51.382812 138.722656 50.679688 138.128906 50.292969 137.523438 C 49.851562 136.84375 49.496094 136.164062 49.117188 135.457031 C 48.730469 134.722656 48.429688 133.953125 48.234375 133.164062 C 48.144531 132.8125 48.027344 132.304688 47.96875 131.792969 C 48.136719 130.132812 48.535156 129.382812 48.535156 129.382812 C 50.292969 125.542969 58.613281 117.386719 58.613281 117.386719 C 61.332031 114.75 66.773438 109.871094 66.773438 109.871094 C 69.652344 107.230469 70.851562 105.074219 70.851562 105.074219 C 73.011719 101.152344 73.011719 92.753906 73.011719 92.753906 C 73.011719 90.003906 73.554688 86.015625 73.972656 83.347656 C 74.515625 84.574219 74.753906 86.113281 75.453125 87.144531 C 75.550781 85.816406 75.707031 84.53125 75.644531 83.207031 C 76.09375 84.234375 76.160156 85.769531 77.046875 86.5 C 77.269531 85.90625 77.40625 85.28125 77.515625 84.632812 C 77.730469 85.550781 78.191406 87.820312 78.128906 90.039062 C 78.128906 90.039062 78.238281 94.886719 79.238281 97.628906 C 79.203125 98.542969 79.203125 101.964844 80.851562 104.910156 C 80.851562 104.910156 81.96875 107.148438 82.609375 110.351562 C 82.609375 110.351562 83.089844 114.507812 84.929688 119.066406 C 84.929688 119.066406 88.367188 126.34375 88.207031 129.542969 C 88.207031 129.542969 88.066406 132.09375 88 133.597656 C 87.675781 134.101562 87.238281 134.53125 86.808594 135.140625 C 86.4375 135.667969 86.378906 136.640625 86.503906 137.304688 C 86.648438 138.03125 87.0625 138.226562 87.625 138.375 C 87.792969 138.839844 88.378906 139.078125 88.84375 139.101562 C 89.546875 139.144531 90.015625 139.035156 90.246094 138.566406 C 90.535156 139.058594 91.332031 139.070312 91.730469 138.671875 L 91.847656 138.679688 C 91.953125 138.902344 92.421875 138.914062 92.699219 138.753906 C 92.925781 138.625 93.011719 138.46875 93.042969 138.28125 C 93.441406 138.417969 93.800781 138.195312 94.019531 137.851562 C 95.183594 138.023438 94.839844 136.25 94.847656 135.621094 C 94.855469 134.699219 95.324219 133.894531 94.859375 132.96875 C 94.460938 132.160156 94.023438 131.703125 93.945312 130.761719 C 93.871094 129.859375 93.398438 129.316406 93.066406 128.511719 C 92.90625 125.398438 93.085938 118.347656 93.085938 118.347656 C 93.167969 110.191406 89.566406 103.394531 89.566406 103.394531 C 87.886719 98.992188 88.207031 95.554688 88.207031 95.554688 C 88.34375 92.90625 88.542969 90.382812 88.761719 88.085938 C 89.117188 89.03125 89.503906 89.910156 89.886719 90.539062 C 90.515625 89.003906 89.949219 86.367188 90.078125 84.613281 C 90.6875 85.316406 90.585938 86.609375 91.292969 87.300781 C 91.207031 85.539062 91.242188 82.257812 91.816406 80.574219 C 92.191406 81.128906 92.585938 82.59375 93.054688 83.425781 C 93.160156 81.640625 92.371094 79.84375 92.285156 78.039062 C 92.183594 76.0625 92.214844 74.078125 92.128906 72.121094 C 91.996094 69.277344 91.953125 66.921875 91.007812 64.292969 C 90.097656 61.765625 88.738281 59.558594 87.808594 57.085938 C 86.941406 54.78125 86.050781 52.425781 85.578125 50.050781 C 85.277344 48.535156 85.074219 46.75 84.855469 45.140625 C 85.101562 46.234375 85.308594 47.507812 85.707031 48.367188 C 86.113281 46.425781 85.886719 44.496094 85.886719 42.519531 C 86.347656 43.632812 86.855469 45.335938 87.46875 46.449219 C 87.566406 45.261719 87.375 44.117188 87.328125 42.957031 C 87.296875 42.242188 86.945312 40.675781 87.40625 40.121094 C 87.8125 40.617188 88.347656 41.554688 88.925781 41.804688 C 89.277344 41.355469 89.191406 39.945312 89.101562 38.789062 C 90.816406 39.566406 93.085938 40.265625 95.480469 40.082031 L 95.246094 55.566406 C 95.246094 55.566406 94.527344 59.25 97.804688 60.046875 C 97.804688 60.046875 100.203125 60.6875 102.042969 62.046875 C 102.042969 62.046875 102.921875 62.53125 103.722656 62.558594 L 103.722656 62.566406 C 104.296875 62.695312 104.886719 62.917969 105.414062 63.195312 C 105.878906 63.445312 106.300781 63.914062 106.804688 64.085938 C 107.429688 64.296875 107.902344 63.945312 108.445312 63.644531 C 109.046875 63.3125 109.378906 63.175781 109.554688 62.445312 C 109.601562 62.246094 109.652344 62.035156 109.691406 61.832031 C 109.976562 61.71875 110.242188 61.578125 110.472656 61.398438 C 110.859375 61.097656 110.921875 60.5625 110.964844 60.089844 C 111.09375 58.613281 109.503906 59.628906 109.371094 60.503906 Z M 71.210938 15.800781 C 70.542969 15.042969 69.796875 14.328125 69.15625 13.589844 C 69.003906 13.417969 68.839844 13.242188 68.664062 13.066406 C 68.972656 13.210938 69.292969 13.382812 69.605469 13.601562 C 70.308594 14.050781 70.746094 14.882812 71.210938 15.800781 Z M 48.5625 31.277344 C 48.558594 31.261719 48.554688 31.242188 48.550781 31.222656 C 48.53125 31.125 48.519531 31.019531 48.507812 30.914062 C 48.632812 30.660156 48.773438 30.410156 48.929688 30.167969 C 48.976562 30.101562 49.027344 30.03125 49.074219 29.964844 C 49.097656 29.996094 49.121094 30.019531 49.144531 30.050781 C 48.929688 30.445312 48.742188 30.855469 48.5625 31.277344 Z M 48.902344 29.328125 C 48.898438 29.308594 48.890625 29.289062 48.882812 29.269531 C 48.851562 29.160156 48.824219 29.046875 48.796875 28.929688 C 49.007812 28.285156 49.308594 27.625 49.660156 26.988281 C 49.726562 26.871094 49.796875 26.75 49.867188 26.632812 C 49.929688 26.972656 49.992188 27.300781 50.054688 27.613281 C 49.699219 28.15625 49.292969 28.722656 48.902344 29.328125 Z M 51.839844 16.785156 C 51.515625 16.984375 50.46875 17.746094 49.894531 19.191406 C 49.839844 19.316406 49.796875 19.449219 49.753906 19.582031 C 49.90625 18.582031 50.082031 17.472656 50.414062 16.394531 C 51.246094 15.164062 52.242188 14.222656 52.964844 13.703125 C 52.753906 14.121094 52.589844 14.558594 52.457031 15.023438 C 52.292969 15.59375 52.113281 16.160156 51.933594 16.726562 C 51.902344 16.746094 51.871094 16.761719 51.839844 16.785156 Z M 53.996094 12.007812 C 54.121094 11.984375 54.234375 11.96875 54.328125 11.957031 C 54.226562 12.042969 54.125 12.136719 54.03125 12.230469 C 53.855469 12.265625 53.675781 12.3125 53.484375 12.390625 C 53.402344 12.40625 53.304688 12.445312 53.191406 12.496094 C 53.464844 12.308594 53.734375 12.144531 53.996094 12.007812 Z M 50.71875 23.917969 C 50.53125 24.265625 50.339844 24.621094 50.148438 24.988281 C 50.089844 24.800781 50.023438 24.59375 49.949219 24.367188 C 49.945312 24.296875 49.9375 24.226562 49.933594 24.15625 C 49.921875 23.957031 49.914062 23.753906 49.914062 23.554688 C 50.125 23.25 50.367188 22.960938 50.617188 22.683594 C 50.605469 23.105469 50.644531 23.515625 50.71875 23.917969 Z M 49.980469 24.761719 C 50.023438 24.871094 50.0625 24.976562 50.101562 25.074219 C 50.074219 25.128906 50.046875 25.179688 50.019531 25.230469 C 50.007812 25.074219 49.992188 24.917969 49.980469 24.761719 Z M 50.117188 26.203125 C 50.199219 26.066406 50.28125 25.925781 50.363281 25.789062 C 50.425781 25.964844 50.457031 26.058594 50.457031 26.058594 C 50.457031 26.058594 50.429688 25.957031 50.378906 25.769531 C 50.566406 25.457031 50.757812 25.148438 50.945312 24.84375 C 50.960938 24.902344 50.980469 24.960938 50.996094 25.019531 C 51.039062 25.148438 51.078125 25.28125 51.121094 25.410156 C 51.035156 25.671875 50.929688 25.953125 50.796875 26.25 C 50.65625 26.601562 50.464844 26.949219 50.246094 27.308594 C 50.203125 26.953125 50.160156 26.585938 50.117188 26.203125 Z M 49.078125 19.273438 C 49.230469 18.675781 49.453125 18.109375 49.71875 17.578125 C 49.519531 18.929688 49.480469 20.199219 49.332031 21.1875 C 49.292969 21.457031 49.253906 21.703125 49.207031 21.925781 C 49.019531 21.089844 48.917969 20.183594 49.078125 19.273438 Z M 49.253906 22.125 C 49.296875 21.976562 49.335938 21.816406 49.378906 21.648438 C 49.359375 21.9375 49.355469 22.230469 49.359375 22.523438 C 49.324219 22.390625 49.289062 22.257812 49.253906 22.125 Z M 50.613281 19.507812 C 50.859375 18.992188 51.160156 18.59375 51.445312 18.296875 C 51.117188 19.394531 50.832031 20.503906 50.695312 21.632812 C 50.4375 21.921875 50.179688 22.226562 49.933594 22.550781 C 50 21.410156 50.207031 20.328125 50.613281 19.507812 Z M 49.34375 24.566406 C 49.386719 24.46875 49.429688 24.367188 49.480469 24.269531 C 49.554688 24.796875 49.636719 25.316406 49.71875 25.816406 C 49.558594 26.136719 49.398438 26.457031 49.238281 26.78125 C 49.035156 27.230469 48.847656 27.691406 48.699219 28.148438 C 48.636719 27.054688 48.859375 25.761719 49.34375 24.566406 Z M 48.746094 29.316406 C 48.765625 29.371094 48.789062 29.421875 48.808594 29.472656 C 48.726562 29.605469 48.644531 29.742188 48.5625 29.882812 C 48.597656 29.664062 48.648438 29.441406 48.710938 29.214844 C 48.722656 29.25 48.734375 29.285156 48.746094 29.316406 Z M 48.386719 31.164062 C 48.394531 31.191406 48.402344 31.222656 48.410156 31.253906 C 48.429688 31.332031 48.453125 31.40625 48.480469 31.480469 C 48.414062 31.644531 48.347656 31.8125 48.277344 31.976562 C 48.15625 32.28125 48.03125 32.582031 47.902344 32.886719 C 47.964844 32.332031 48.128906 31.742188 48.386719 31.164062 Z M 49.496094 32.929688 C 49.5 32.933594 49.5 32.9375 49.496094 32.9375 C 49.5 32.9375 49.5 32.933594 49.496094 32.929688 Z M 50.210938 30.851562 C 50.21875 30.855469 50.21875 30.855469 50.214844 30.859375 C 50.21875 30.859375 50.21875 30.855469 50.210938 30.851562 Z M 49.195312 29.960938 C 49.175781 29.933594 49.15625 29.90625 49.140625 29.875 C 49.480469 29.40625 49.863281 28.941406 50.230469 28.480469 C 50.234375 28.503906 50.238281 28.523438 50.246094 28.546875 C 50.242188 28.550781 50.238281 28.550781 50.238281 28.554688 C 49.808594 28.988281 49.476562 29.464844 49.195312 29.960938 Z M 50.390625 28.410156 C 50.382812 28.371094 50.378906 28.335938 50.375 28.296875 C 50.8125 27.738281 51.21875 27.175781 51.496094 26.613281 C 51.585938 26.898438 51.675781 27.183594 51.773438 27.46875 C 51.246094 27.730469 50.742188 28.089844 50.390625 28.410156 Z M 62.769531 9.449219 C 63.847656 9.011719 65.332031 9.023438 66.171875 10.050781 C 66.585938 10.546875 66.9375 11.09375 67.25 11.640625 C 67.109375 11.605469 66.984375 11.578125 66.871094 11.554688 C 65.648438 10.671875 64.210938 9.890625 62.769531 9.449219 Z M 74.117188 23.78125 C 73.804688 21.957031 73.585938 20.132812 72.894531 18.441406 C 73.027344 18.578125 73.167969 18.707031 73.320312 18.832031 C 73.523438 18.933594 73.710938 19.042969 73.894531 19.15625 C 74.78125 20.507812 75.25 22.054688 75.699219 23.171875 C 75.757812 23.335938 75.820312 23.496094 75.878906 23.644531 C 75.25 23.386719 74.628906 23.335938 74.117188 23.78125 Z M 76.019531 23.707031 C 75.960938 23.527344 75.898438 23.332031 75.835938 23.125 C 75.515625 22.167969 75.210938 20.910156 74.621094 19.660156 C 76.625 21.230469 77.347656 23.417969 77.707031 24.746094 C 77.1875 24.394531 76.601562 23.972656 76.019531 23.707031 Z M 76.019531 23.707031 " fill-opacity="1" fill-rule="nonzero"/></g></svg>