<svg xmlns="http://www.w3.org/2000/svg" xmlns:xlink="http://www.w3.org/1999/xlink" width="1080" zoomAndPan="magnify" viewBox="0 0 810 374.999991" height="500" preserveAspectRatio="xMidYMid meet" version="1.0"><defs><clipPath id="id1"><path d="M 209.332031 53 L 292 53 L 292 226 L 209.332031 226 Z M 209.332031 53 " clip-rule="nonzero"/></clipPath><clipPath id="id2"><path d="M 535 59 L 600.832031 59 L 600.832031 188 L 535 188 Z M 535 59 " clip-rule="nonzero"/></clipPath><clipPath id="id3"><path d="M 296 42.949219 L 348 42.949219 L 348 166 L 296 166 Z M 296 42.949219 " clip-rule="nonzero"/></clipPath><clipPath id="id4"><path d="M 363 231 L 439 231 L 439 331.699219 L 363 331.699219 Z M 363 231 " clip-rule="nonzero"/></clipPath></defs><g clip-path="url(#id1)"><path fill="#fffeff" d="M 234.046875 206.519531 C 232.535156 206.375 230.121094 200.992188 226.816406 190.363281 C 226.816406 187.195312 225.003906 175.96875 221.375 156.679688 L 221.375 154.671875 L 223.785156 137.195312 C 217.359375 137.828125 214.144531 140.066406 214.144531 143.902344 C 213.355469 144.042969 212.960938 144.5 212.960938 145.273438 L 212.960938 147.285156 C 212.960938 149.53125 213.957031 150.660156 215.9375 150.660156 L 216.550781 150.660156 L 216.550781 151.289062 C 216.550781 151.960938 215.957031 152.648438 214.757812 153.355469 L 211.730469 153.355469 C 211.101562 153.355469 210.300781 152.453125 209.320312 150.660156 L 209.320312 142.582031 C 209.320312 142.121094 209.523438 141.894531 209.933594 141.894531 L 209.320312 140.523438 L 209.320312 139.203125 C 213.957031 132.898438 218.179688 129.753906 221.988281 129.753906 C 222.78125 130.210938 223.378906 130.4375 223.785156 130.4375 C 224.609375 128.679688 225.015625 126.214844 225.015625 123.046875 L 225.015625 119.671875 L 226.195312 119.671875 C 226.195312 118.714844 226.40625 116.253906 226.816406 112.277344 L 225.015625 100.132812 L 225.585938 100.132812 L 225.015625 98.816406 L 225.015625 98.128906 C 225.015625 97.667969 225.207031 97.441406 225.585938 97.441406 L 225.015625 96.121094 L 225.015625 86.039062 C 225.015625 85.011719 224.8125 84.117188 224.40625 83.34375 C 224.8125 82.460938 225.015625 81.777344 225.015625 81.285156 C 224.609375 80.4375 224.40625 79.773438 224.40625 79.277344 L 225.015625 79.277344 L 224.40625 77.957031 L 224.40625 75.265625 C 224.40625 74.246094 224.609375 73.34375 225.015625 72.574219 L 224.40625 71.203125 C 224.8125 70.425781 225.015625 69.527344 225.015625 68.507812 L 225.015625 67.820312 C 224.449219 67.820312 222.839844 66.921875 220.195312 65.125 L 219.578125 65.125 L 219.578125 59.109375 C 219.707031 58.195312 220.101562 57.738281 220.765625 57.738281 L 224.40625 58.425781 L 225.015625 58.425781 C 225.269531 56.625 226.464844 55.730469 228.605469 55.730469 C 229.398438 56.1875 229.996094 56.417969 230.40625 56.417969 C 230.40625 55.820312 231.621094 54.917969 234.046875 53.722656 L 237.074219 53.722656 C 243.851562 56.152344 247.664062 58.386719 248.511719 60.429688 L 248.511719 62.4375 L 246.101562 86.039062 C 245.691406 86.039062 245.488281 86.703125 245.488281 88.042969 C 245.898438 95.710938 246.304688 100.429688 246.71875 102.191406 L 246.101562 102.191406 L 246.71875 103.511719 L 246.71875 116.289062 C 244.695312 118.785156 243.691406 120.8125 243.691406 122.359375 C 241.675781 125.035156 240.664062 128.625 240.664062 133.132812 C 242.839844 135.242188 248.671875 137.9375 258.15625 141.207031 L 258.769531 139.890625 C 257.546875 128.976562 256.738281 114.621094 256.359375 96.804688 C 258.347656 89.871094 259.746094 82.460938 260.566406 74.578125 C 260.566406 69.617188 259.765625 66.027344 258.15625 63.808594 L 258.15625 63.125 C 258.285156 62.242188 258.675781 61.800781 259.335938 61.800781 L 260.566406 61.800781 C 260.566406 63.136719 260.960938 63.808594 261.746094 63.808594 L 267.796875 63.808594 C 267.796875 62.578125 269.203125 61.675781 272.011719 61.113281 L 272.011719 59.742188 L 273.804688 59.742188 C 274.21875 59.742188 274.421875 59.972656 274.421875 60.429688 L 275.652344 59.742188 C 282.867188 63.296875 286.476562 65.320312 286.476562 65.8125 L 286.476562 67.820312 C 284.710938 67.820312 283.101562 72.097656 281.652344 80.648438 L 280.472656 81.96875 L 281.039062 86.667969 C 279.839844 95.183594 279.242188 99.902344 279.242188 100.816406 L 279.859375 102.191406 C 279.445312 103.53125 279.039062 104.199219 278.628906 104.199219 C 278.628906 104.65625 278.832031 105.324219 279.242188 106.203125 L 278.628906 112.964844 C 278.628906 113.171875 278.832031 114.074219 279.242188 115.652344 L 278.628906 116.976562 C 279.039062 117.75 279.242188 118.648438 279.242188 119.671875 L 278.628906 119.671875 L 279.242188 121.042969 L 279.242188 123.734375 C 279.242188 129.539062 277.835938 132.449219 275.035156 132.449219 L 271.394531 141.207031 L 272.011719 142.582031 C 273.492188 141.664062 275.097656 141.207031 276.832031 141.207031 L 278.0625 141.207031 L 278.0625 139.890625 L 281.039062 140.523438 C 283.054688 138.375 284.0625 135.914062 284.0625 133.132812 L 282.269531 131.8125 L 280.472656 133.132812 L 279.242188 133.132812 L 279.242188 132.449219 C 279.242188 129.3125 280.644531 127.746094 283.449219 127.746094 C 289.09375 130.453125 291.910156 134.277344 291.910156 139.203125 L 291.910156 139.890625 C 291.910156 145.699219 285.480469 149.730469 272.625 151.976562 C 270.605469 151.976562 269.601562 153.777344 269.601562 157.367188 C 269.1875 163.136719 268.589844 169.195312 267.796875 175.527344 C 268.210938 176.40625 268.414062 177.09375 268.414062 177.585938 L 267.796875 177.585938 L 268.414062 178.90625 C 268.414062 185.527344 269.011719 196.964844 270.214844 213.226562 C 270.214844 216.816406 268.605469 218.613281 265.394531 218.613281 L 259.957031 185.664062 C 259.546875 183.445312 259.335938 180.523438 259.335938 176.898438 L 259.335938 174.890625 C 259.335938 173.871094 259.152344 172.976562 258.769531 172.203125 C 259.152344 171.390625 259.335938 170.492188 259.335938 169.511719 L 259.335938 166.816406 C 259.335938 164.316406 259.152344 161.164062 258.769531 157.367188 L 259.335938 156.046875 C 258.960938 155.238281 258.769531 154.339844 258.769531 153.355469 L 258.769531 150.660156 L 256.925781 150.660156 C 252.203125 150.660156 246.179688 148.40625 238.871094 143.902344 L 239.484375 145.273438 L 239.484375 146.597656 C 239.484375 147.050781 239.277344 147.285156 238.871094 147.285156 L 240.050781 153.355469 L 239.484375 154.671875 C 239.484375 155.515625 239.875 157.3125 240.664062 160.0625 C 240.128906 167.136719 239.53125 171.175781 238.871094 172.203125 L 239.484375 175.527344 L 239.484375 181.597656 C 239.484375 183.21875 239.671875 185.242188 240.050781 187.667969 C 239.578125 191.160156 238.980469 193.621094 238.253906 195.0625 C 238.253906 196.929688 239.265625 200.976562 241.28125 207.207031 L 240.664062 207.207031 C 241.234375 210.796875 241.828125 212.589844 242.460938 212.589844 C 241.929688 218.714844 241.121094 222.515625 240.050781 223.996094 C 240.460938 223.996094 240.664062 224.226562 240.664062 224.683594 L 237.640625 225.367188 C 236.03125 219.035156 234.835938 212.75 234.046875 206.519531 " fill-opacity="1" fill-rule="nonzero"/></g><path fill="#fffeff" d="M 395.46875 98.882812 L 396.53125 97.824219 L 395.976562 96.726562 L 395.976562 96.179688 C 397.585938 96.179688 399.210938 94.738281 400.847656 91.863281 C 400.847656 90.789062 401.03125 90.253906 401.394531 90.253906 L 400.847656 89.199219 C 400.847656 88.832031 401.03125 88.648438 401.394531 88.648438 C 401.394531 88.285156 401.21875 88.101562 400.847656 88.101562 L 401.394531 85.394531 L 401.394531 78.929688 C 401.394531 76.277344 400.863281 74.835938 399.789062 74.613281 L 398.6875 74.613281 C 396.941406 74.613281 395.148438 75.164062 393.308594 76.261719 L 392.207031 75.710938 C 385.207031 75.964844 381.707031 76.5 381.707031 77.316406 L 381.707031 80.574219 C 381.707031 83.222656 382.246094 84.660156 383.316406 84.890625 C 382.945312 88.070312 382.582031 90.042969 382.214844 90.804688 L 382.765625 91.863281 C 382.398438 93.300781 382.214844 94.570312 382.214844 95.667969 L 382.765625 96.726562 C 382.484375 97.347656 382.128906 99.5 381.707031 103.195312 C 382.046875 104.605469 382.214844 106.042969 382.214844 107.511719 L 387.890625 107.511719 C 392.941406 105.535156 395.46875 102.65625 395.46875 98.882812 Z M 409.65625 197.359375 C 407.257812 193.863281 405.550781 186.167969 404.535156 174.269531 C 403.773438 174.269531 402.742188 169.660156 401.441406 160.445312 L 400.425781 160.445312 L 400.933594 158.375 C 402.601562 142.644531 402.261719 134.78125 399.917969 134.78125 L 393.734375 130.679688 C 391.898438 128.480469 390.191406 127.296875 388.609375 127.128906 C 387.476562 127.128906 384.574219 126.945312 379.882812 126.578125 L 379.882812 129.664062 C 378.328125 130.902344 377.144531 135.339844 376.328125 142.984375 L 375.773438 142.984375 L 376.328125 143.996094 C 375.535156 143.996094 374.84375 146.574219 374.25 151.734375 C 374.25 152.125 374.421875 152.636719 374.757812 153.253906 C 374.195312 153.253906 373.675781 159.246094 373.191406 171.226562 L 372.726562 171.226562 L 373.191406 172.242188 C 372.175781 175.734375 371.503906 180.191406 371.160156 185.601562 L 370.144531 186.066406 L 369.085938 186.066406 L 366.542969 162.515625 L 366.542969 155.328125 L 366.035156 151.734375 L 366.542969 151.734375 C 365.867188 148.574219 365.019531 144.121094 364.003906 138.375 L 364.511719 138.375 C 364.511719 138.007812 364.339844 137.824219 364.003906 137.824219 C 364.003906 137.484375 364.171875 136.976562 364.511719 136.300781 C 363.804688 130.972656 363.449219 126.363281 363.449219 122.476562 L 363.449219 121.96875 C 363.449219 121.628906 363.632812 121.460938 364.003906 121.460938 L 363.449219 120.445312 L 363.449219 113.765625 C 363.449219 112.980469 363.632812 112.289062 364.003906 111.691406 C 364.003906 111.351562 363.820312 111.183594 363.449219 111.183594 C 364.15625 108.449219 364.511719 105.378906 364.511719 101.964844 C 364.511719 100.613281 364.339844 99.9375 364.003906 99.9375 L 364.511719 97.359375 L 364.511719 91.734375 C 360.902344 72.9375 357.808594 63.535156 355.238281 63.535156 C 354.585938 63.535156 354.261719 63.199219 354.261719 62.523438 C 350.140625 63.675781 348.082031 65.71875 348.082031 68.652344 L 346.507812 68.652344 L 346.507812 66.625 C 346.507812 64.621094 347.730469 62.746094 350.15625 61 C 350.15625 59.140625 353.21875 57.941406 359.347656 57.40625 L 359.894531 57.40625 C 362.859375 57.40625 366.273438 58.597656 370.144531 61 L 375.265625 61.96875 C 378.769531 61.039062 383.046875 60.363281 388.101562 59.941406 C 395.046875 61.265625 398.816406 62.460938 399.410156 63.535156 L 403.011719 63.027344 L 405.042969 63.027344 L 405.042969 65.101562 C 405.71875 65.101562 406.058594 65.425781 406.058594 66.070312 L 409.703125 66.070312 C 409.703125 66.269531 409.511719 66.960938 409.148438 68.144531 C 412.90625 78.292969 415.472656 88.722656 416.855469 99.429688 C 416.515625 100.445312 416.179688 100.953125 415.835938 100.953125 C 415.835938 101.289062 416.007812 101.464844 416.351562 101.464844 C 415.898438 107.632812 415.050781 110.722656 413.804688 110.722656 C 410.988281 114.1875 408.402344 116.570312 406.058594 117.867188 L 405.042969 119.386719 C 405.042969 121.359375 408.472656 123.25 415.335938 125.054688 C 415.445312 125.730469 415.78125 126.070312 416.351562 126.070312 C 416.007812 129.816406 415.667969 131.691406 415.335938 131.691406 L 415.835938 132.75 C 415.835938 133.089844 415.667969 133.257812 415.335938 133.257812 L 415.835938 134.273438 L 415.835938 138.882812 C 415.835938 140.066406 416.179688 147.761719 416.855469 161.964844 C 413.921875 166.023438 412.199219 171.15625 411.691406 177.355469 L 411.691406 179.9375 C 411.691406 180.667969 411.875 181.34375 412.242188 181.964844 C 411.875 182.613281 411.691406 183.117188 411.691406 183.488281 C 411.691406 186.589844 412.550781 188.140625 414.273438 188.140625 L 414.273438 188.601562 L 413.765625 189.660156 C 417.207031 193.523438 418.929688 196.089844 418.929688 197.359375 L 420.96875 197.359375 L 424.566406 197.859375 C 428.316406 195.636719 430.199219 192.734375 430.199219 189.15625 C 429.523438 188.785156 429.007812 188.601562 428.675781 188.601562 L 429.179688 187.589844 C 428.136719 187.589844 427.613281 187.082031 427.613281 186.066406 L 426.597656 186.066406 C 425.921875 186.097656 424.890625 187.800781 423.507812 191.183594 L 422.492188 191.183594 C 421.898438 191.183594 421.390625 190.167969 420.96875 188.140625 C 421.53125 188.140625 422.898438 186.421875 425.070312 182.980469 C 425.410156 182.980469 425.921875 182.8125 426.597656 182.472656 C 430.832031 185.121094 433.0625 187.351562 433.289062 189.15625 C 432.332031 195.183594 431.300781 198.257812 430.199219 198.371094 C 426.445312 200.707031 424.566406 202.0625 424.566406 202.429688 C 424.566406 202.796875 423.53125 203.144531 421.476562 203.488281 C 416.785156 203.488281 412.851562 201.445312 409.65625 197.359375 " fill-opacity="1" fill-rule="nonzero"/><path fill="#fffeff" d="M 457.285156 90.402344 L 458.1875 89.503906 L 457.71875 88.566406 L 457.71875 88.101562 C 459.085938 88.101562 460.46875 86.878906 461.859375 84.433594 C 461.859375 83.515625 462.019531 83.066406 462.328125 83.066406 L 461.859375 82.164062 C 461.859375 81.851562 462.019531 81.695312 462.328125 81.695312 C 462.328125 81.382812 462.175781 81.230469 461.859375 81.230469 L 462.328125 78.929688 L 462.328125 73.425781 C 462.328125 71.167969 461.875 69.945312 460.960938 69.753906 L 460.023438 69.753906 C 458.535156 69.753906 457.011719 70.222656 455.445312 71.15625 L 454.511719 70.691406 C 448.554688 70.902344 445.578125 71.359375 445.578125 72.058594 L 445.578125 74.828125 C 445.578125 77.078125 446.035156 78.300781 446.945312 78.496094 C 446.632812 81.203125 446.320312 82.878906 446.011719 83.53125 L 446.480469 84.433594 C 446.164062 85.65625 446.011719 86.734375 446.011719 87.667969 L 446.480469 88.566406 C 446.234375 89.09375 445.9375 90.929688 445.578125 94.070312 C 445.859375 95.269531 446.011719 96.492188 446.011719 97.742188 L 450.835938 97.742188 C 455.136719 96.058594 457.285156 93.613281 457.285156 90.402344 Z M 469.355469 174.179688 C 467.3125 171.207031 465.859375 164.660156 465 154.535156 C 464.347656 154.535156 463.46875 150.621094 462.363281 142.773438 L 461.503906 142.773438 L 461.9375 141.015625 C 463.351562 127.628906 463.0625 120.945312 461.070312 120.945312 L 455.8125 117.449219 C 454.246094 115.585938 452.792969 114.574219 451.449219 114.429688 C 450.488281 114.429688 448.015625 114.273438 444.027344 113.964844 L 444.027344 116.589844 C 442.707031 117.640625 441.699219 121.421875 441 127.917969 L 440.53125 127.917969 L 441 128.785156 C 440.328125 128.785156 439.742188 130.976562 439.238281 135.367188 C 439.238281 135.699219 439.378906 136.132812 439.667969 136.660156 C 439.1875 136.660156 438.738281 141.753906 438.335938 151.945312 L 437.9375 151.945312 L 438.335938 152.8125 C 437.46875 155.785156 436.890625 159.574219 436.605469 164.175781 L 435.742188 164.574219 L 434.839844 164.574219 L 432.675781 144.539062 L 432.675781 138.425781 L 432.246094 135.367188 L 432.675781 135.367188 C 432.101562 132.679688 431.378906 128.894531 430.519531 124 L 430.945312 124 C 430.945312 123.6875 430.800781 123.535156 430.519531 123.535156 C 430.519531 123.242188 430.65625 122.8125 430.945312 122.234375 C 430.34375 117.707031 430.050781 113.785156 430.050781 110.472656 L 430.050781 110.039062 C 430.050781 109.753906 430.203125 109.609375 430.519531 109.609375 L 430.050781 108.75 L 430.050781 103.066406 C 430.050781 102.390625 430.203125 101.800781 430.519531 101.300781 C 430.519531 101.011719 430.359375 100.867188 430.050781 100.867188 C 430.648438 98.542969 430.945312 95.925781 430.945312 93.027344 C 430.945312 91.875 430.800781 91.300781 430.519531 91.300781 L 430.945312 89.105469 L 430.945312 84.324219 C 427.875 68.328125 425.246094 60.328125 423.058594 60.328125 C 422.503906 60.328125 422.226562 60.039062 422.226562 59.464844 C 418.722656 60.449219 416.96875 62.1875 416.96875 64.679688 L 415.632812 64.679688 L 415.632812 62.953125 C 415.632812 61.253906 416.667969 59.65625 418.734375 58.171875 C 418.734375 56.585938 421.339844 55.566406 426.554688 55.113281 L 427.023438 55.113281 C 429.542969 55.113281 432.449219 56.132812 435.742188 58.171875 L 440.097656 58.996094 C 443.078125 58.207031 446.71875 57.628906 451.015625 57.269531 C 456.925781 58.398438 460.132812 59.417969 460.636719 60.328125 L 463.699219 59.898438 L 465.433594 59.898438 L 465.433594 61.660156 C 466.003906 61.660156 466.292969 61.933594 466.292969 62.488281 L 469.390625 62.488281 C 469.390625 62.65625 469.234375 63.242188 468.921875 64.25 C 472.121094 72.882812 474.304688 81.757812 475.480469 90.871094 C 475.191406 91.730469 474.902344 92.164062 474.621094 92.164062 C 474.621094 92.449219 474.757812 92.59375 475.046875 92.59375 C 474.664062 97.84375 473.941406 100.476562 472.886719 100.476562 C 470.484375 103.421875 468.289062 105.453125 466.292969 106.554688 L 465.433594 107.847656 C 465.433594 109.527344 468.351562 111.132812 474.1875 112.664062 C 474.28125 113.242188 474.570312 113.53125 475.046875 113.53125 C 474.757812 116.71875 474.46875 118.3125 474.1875 118.3125 L 474.621094 119.214844 C 474.621094 119.5 474.46875 119.644531 474.1875 119.644531 L 474.621094 120.511719 L 474.621094 124.429688 C 474.621094 125.4375 474.902344 131.984375 475.480469 144.070312 C 472.984375 147.523438 471.515625 151.886719 471.082031 157.167969 L 471.082031 159.359375 C 471.082031 159.980469 471.242188 160.558594 471.550781 161.085938 C 471.242188 161.636719 471.082031 162.070312 471.082031 162.378906 C 471.082031 165.015625 471.816406 166.339844 473.285156 166.339844 L 473.285156 166.734375 L 472.851562 167.632812 C 475.78125 170.917969 477.242188 173.101562 477.242188 174.179688 L 478.976562 174.179688 L 482.039062 174.613281 C 485.238281 172.714844 486.828125 170.246094 486.828125 167.199219 C 486.257812 166.886719 485.824219 166.734375 485.535156 166.734375 L 485.964844 165.867188 C 485.078125 165.867188 484.632812 165.441406 484.632812 164.574219 L 483.765625 164.574219 C 483.191406 164.601562 482.316406 166.050781 481.136719 168.929688 L 480.273438 168.929688 C 479.769531 168.929688 479.335938 168.066406 478.976562 166.339844 C 479.460938 166.339844 480.621094 164.875 482.472656 161.949219 C 482.757812 161.949219 483.191406 161.804688 483.765625 161.515625 C 487.371094 163.769531 489.269531 165.664062 489.460938 167.199219 C 488.648438 172.332031 487.765625 174.945312 486.828125 175.039062 C 483.636719 177.035156 482.039062 178.183594 482.039062 178.496094 C 482.039062 178.804688 481.164062 179.105469 479.410156 179.394531 C 475.421875 179.394531 472.070312 177.65625 469.355469 174.179688 " fill-opacity="1" fill-rule="nonzero"/><g clip-path="url(#id2)"><path fill="#fffeff" d="M 575.105469 96.691406 L 576.078125 95.871094 L 575.691406 94.902344 L 575.722656 94.433594 C 577.09375 94.542969 578.566406 93.441406 580.15625 91.117188 C 580.230469 90.207031 580.425781 89.765625 580.738281 89.792969 L 580.339844 88.855469 C 580.371094 88.546875 580.539062 88.402344 580.847656 88.429688 C 580.875 88.121094 580.734375 87.953125 580.421875 87.925781 L 581.078125 85.667969 L 581.53125 80.1875 C 581.714844 77.9375 581.355469 76.679688 580.464844 76.417969 L 579.535156 76.335938 C 578.046875 76.21875 576.492188 76.554688 574.859375 77.363281 L 573.960938 76.820312 C 568.003906 76.546875 564.996094 76.761719 564.941406 77.453125 L 564.714844 80.210938 C 564.53125 82.457031 564.882812 83.714844 565.78125 83.980469 C 565.246094 86.652344 564.796875 88.300781 564.429688 88.921875 L 564.824219 89.855469 C 564.410156 91.050781 564.171875 92.113281 564.089844 93.046875 L 564.484375 93.980469 C 564.199219 94.484375 563.753906 96.289062 563.136719 99.390625 C 563.324219 100.609375 563.371094 101.84375 563.265625 103.085938 L 568.074219 103.476562 C 572.496094 102.160156 574.84375 99.894531 575.105469 96.691406 Z M 580.257812 181.175781 C 578.46875 178.046875 577.558594 171.402344 577.523438 161.25 C 576.878906 161.195312 576.328125 157.210938 575.867188 149.308594 L 575.007812 149.238281 L 575.585938 147.515625 C 578.09375 134.296875 578.359375 127.605469 576.367188 127.441406 L 571.410156 123.535156 C 570.011719 121.539062 568.644531 120.417969 567.320312 120.164062 C 566.355469 120.082031 563.90625 119.726562 559.957031 119.089844 L 559.738281 121.703125 C 558.339844 122.648438 557.019531 126.332031 555.796875 132.75 L 555.328125 132.714844 L 555.726562 133.609375 C 555.054688 133.554688 554.285156 135.695312 553.425781 140.03125 C 553.398438 140.363281 553.503906 140.804688 553.75 141.355469 C 553.269531 141.316406 552.410156 146.359375 551.164062 156.480469 L 550.769531 156.445312 L 551.09375 157.339844 C 549.988281 160.234375 549.101562 163.964844 548.433594 168.527344 L 547.542969 168.851562 L 546.648438 168.78125 L 546.132812 148.628906 L 546.636719 142.539062 L 546.457031 139.457031 L 546.886719 139.492188 C 546.539062 136.769531 546.128906 132.929688 545.667969 127.988281 L 546.097656 128.023438 C 546.125 127.710938 545.996094 127.539062 545.707031 127.519531 C 545.730469 127.234375 545.910156 126.816406 546.242188 126.261719 C 546.015625 121.699219 546.039062 117.765625 546.3125 114.46875 L 546.347656 114.039062 C 546.375 113.75 546.539062 113.621094 546.851562 113.644531 L 546.453125 112.746094 L 546.921875 107.082031 C 546.976562 106.417969 547.179688 105.839844 547.527344 105.363281 C 547.554688 105.078125 547.410156 104.917969 547.101562 104.894531 C 547.886719 102.628906 548.40625 100.046875 548.640625 97.152344 C 548.734375 96.003906 548.640625 95.425781 548.355469 95.398438 L 548.964844 93.246094 L 549.355469 88.480469 C 547.609375 72.285156 545.640625 64.097656 543.464844 63.921875 C 542.914062 63.878906 542.660156 63.566406 542.707031 62.992188 C 539.132812 63.683594 537.242188 65.277344 537.035156 67.761719 L 535.707031 67.652344 L 535.851562 65.933594 C 535.992188 64.230469 537.152344 62.730469 539.332031 61.417969 C 539.460938 59.835938 542.140625 59.035156 547.375 59.007812 L 547.835938 59.046875 C 550.351562 59.253906 553.164062 60.507812 556.277344 62.808594 L 560.554688 63.988281 C 563.59375 63.445312 567.265625 63.167969 571.578125 63.164062 C 577.371094 64.769531 580.488281 66.046875 580.917969 66.996094 L 584 66.816406 L 585.730469 66.960938 L 585.585938 68.714844 C 586.15625 68.761719 586.421875 69.0625 586.375 69.609375 L 589.464844 69.863281 C 589.453125 70.035156 589.25 70.605469 588.851562 71.578125 C 591.324219 80.449219 592.773438 89.46875 593.203125 98.652344 C 592.84375 99.484375 592.519531 99.894531 592.230469 99.867188 C 592.210938 100.15625 592.34375 100.3125 592.628906 100.335938 C 591.8125 105.535156 590.882812 108.097656 589.828125 108.007812 C 587.191406 110.75 584.835938 112.589844 582.753906 113.527344 L 581.789062 114.742188 C 581.648438 116.417969 584.429688 118.257812 590.121094 120.265625 C 590.164062 120.847656 590.429688 121.15625 590.90625 121.203125 C 590.359375 124.355469 589.941406 125.921875 589.65625 125.894531 L 590.011719 126.828125 C 589.992188 127.113281 589.832031 127.246094 589.546875 127.222656 L 589.90625 128.117188 L 589.582031 132.023438 C 589.503906 133.03125 589.253906 139.578125 588.835938 151.667969 C 586.0625 154.90625 584.246094 159.136719 583.378906 164.359375 L 583.199219 166.546875 C 583.144531 167.171875 583.253906 167.757812 583.523438 168.304688 C 583.164062 168.832031 582.976562 169.25 582.949219 169.5625 C 582.730469 172.1875 583.351562 173.5625 584.8125 173.683594 L 584.78125 174.074219 L 584.273438 174.9375 C 586.929688 178.449219 588.207031 180.746094 588.117188 181.820312 L 589.84375 181.964844 L 592.859375 182.640625 C 596.203125 181.019531 597.992188 178.6875 598.242188 175.652344 C 597.695312 175.292969 597.28125 175.105469 596.992188 175.078125 L 597.492188 174.253906 C 596.605469 174.179688 596.203125 173.710938 596.269531 172.859375 L 595.410156 172.78125 C 594.832031 172.757812 593.839844 174.136719 592.429688 176.90625 L 591.570312 176.835938 C 591.066406 176.796875 590.703125 175.898438 590.488281 174.148438 C 590.96875 174.191406 592.246094 172.824219 594.332031 170.058594 C 594.617188 170.082031 595.0625 169.980469 595.660156 169.734375 C 599.066406 172.28125 600.800781 174.324219 600.867188 175.867188 C 599.632812 180.917969 598.546875 183.445312 597.601562 183.46875 C 594.253906 185.1875 592.566406 186.207031 592.542969 186.515625 C 592.515625 186.828125 591.621094 187.058594 589.847656 187.195312 C 585.875 186.871094 582.675781 184.863281 580.257812 181.175781 " fill-opacity="1" fill-rule="nonzero"/></g><path fill="#fffeff" d="M 516.796875 141.914062 C 518.390625 135.667969 519.511719 127.054688 520.167969 116.066406 C 519.839844 115.414062 519.675781 114.90625 519.675781 114.554688 C 520.003906 113.246094 520.167969 112.089844 520.167969 111.078125 C 520.167969 110.726562 520.003906 110.234375 519.675781 109.601562 L 520.167969 107.105469 C 518.878906 100.585938 517.910156 94.449219 517.25 88.707031 L 517.746094 87.722656 C 517.746094 83.871094 515.976562 75.417969 512.445312 62.367188 C 512.445312 59.820312 512.117188 56.511719 511.460938 52.429688 C 509.871094 54.644531 506.011719 57.628906 499.878906 61.382812 L 499.425781 63.878906 L 499.425781 64.824219 C 502.300781 69.457031 503.742188 72.617188 503.742188 74.308594 L 503.289062 74.308594 L 503.742188 75.289062 L 503.742188 80.734375 C 503.742188 81.085938 503.90625 81.257812 504.230469 81.257812 C 503.90625 81.890625 503.742188 82.382812 503.742188 82.734375 C 503.742188 86.261719 503.90625 88.757812 504.230469 90.21875 C 503.90625 94.277344 503.742188 98.253906 503.742188 102.160156 L 503.742188 108.585938 C 503.742188 108.914062 503.585938 109.078125 503.289062 109.078125 C 504.246094 113.660156 504.722656 119.144531 504.722656 125.511719 C 504.722656 125.839844 504.886719 126.332031 505.214844 126.988281 C 504.886719 127.644531 504.722656 128.136719 504.722656 128.460938 C 506.339844 135.316406 507.625 141.945312 508.585938 148.34375 C 509.214844 148.34375 509.527344 149.007812 509.527344 150.339844 L 511.007812 150.339844 C 513.808594 149.210938 515.738281 146.398438 516.796875 141.914062 Z M 512.785156 166.898438 L 511.804688 167.421875 C 506.910156 166.320312 503.371094 164.820312 501.203125 162.929688 C 496.386719 156.226562 493.972656 151.265625 493.972656 148.039062 C 493.519531 147.359375 493.023438 147.019531 492.496094 147.019531 L 492.496094 146.035156 C 492.496094 144.722656 491.058594 139.925781 488.179688 131.636719 C 486.238281 117.074219 485.265625 107.300781 485.265625 102.308594 L 485.265625 96.796875 C 485.265625 93.71875 485.429688 90.910156 485.757812 88.371094 C 485.429688 86.933594 485.265625 84.4375 485.265625 80.886719 C 486.226562 76.625 486.871094 71.664062 487.199219 65.992188 C 489.191406 60.957031 491.601562 57.476562 494.429688 55.5625 C 497.886719 55.5625 501.101562 53.738281 504.078125 50.082031 L 507.9375 47.097656 C 511.121094 47.097656 516.597656 50.574219 524.367188 57.53125 L 523.875 60.019531 C 528.898438 64.003906 532.117188 68.980469 533.53125 74.949219 C 533.203125 75.53125 533.039062 76.183594 533.039062 76.914062 L 533.53125 77.933594 C 533.53125 78.261719 533.367188 78.425781 533.039062 78.425781 C 533.039062 83.820312 533.84375 88.125 535.457031 91.351562 C 534.5 92.914062 533.859375 94.578125 533.53125 96.339844 L 534.023438 97.324219 L 531.105469 102.761719 C 530.804688 106.621094 530.328125 109.117188 529.671875 110.246094 L 530.160156 113.726562 C 530.160156 116.21875 529.679688 119.367188 528.71875 123.171875 C 528.71875 123.5 528.875 123.664062 529.179688 123.664062 C 528.875 126.160156 528.5625 127.804688 528.230469 128.613281 L 528.71875 129.632812 C 528.394531 134.546875 527.425781 141.5 525.808594 150.496094 L 526.300781 151.515625 C 522.992188 162.453125 519.132812 167.914062 514.71875 167.914062 L 512.785156 166.898438 " fill-opacity="1" fill-rule="nonzero"/><g clip-path="url(#id3)"><path fill="#fffeff" d="M 328.164062 139.484375 C 329.78125 133.117188 330.925781 124.34375 331.59375 113.164062 C 331.261719 112.496094 331.089844 111.980469 331.089844 111.621094 C 331.425781 110.289062 331.59375 109.109375 331.59375 108.082031 C 331.59375 107.722656 331.425781 107.222656 331.089844 106.582031 L 331.59375 104.039062 C 330.285156 97.398438 329.292969 91.148438 328.625 85.300781 L 329.128906 84.300781 C 329.128906 80.375 327.328125 71.769531 323.730469 58.480469 C 323.730469 55.890625 323.398438 52.519531 322.726562 48.363281 C 321.113281 50.621094 317.179688 53.65625 310.933594 57.480469 L 310.46875 60.019531 L 310.46875 60.980469 C 313.402344 65.703125 314.863281 68.921875 314.863281 70.640625 L 314.40625 70.640625 L 314.863281 71.640625 L 314.863281 77.183594 C 314.863281 77.539062 315.03125 77.726562 315.367188 77.726562 C 315.03125 78.359375 314.863281 78.863281 314.863281 79.222656 C 314.863281 82.816406 315.03125 85.355469 315.367188 86.84375 C 315.03125 90.972656 314.863281 95.027344 314.863281 99 L 314.863281 105.542969 C 314.863281 105.878906 314.714844 106.042969 314.40625 106.042969 C 315.378906 110.710938 315.867188 116.289062 315.867188 122.78125 C 315.867188 123.117188 316.03125 123.613281 316.371094 124.285156 C 316.03125 124.949219 315.867188 125.449219 315.867188 125.78125 C 317.511719 132.761719 318.820312 139.507812 319.796875 146.027344 C 320.441406 146.027344 320.761719 146.703125 320.761719 148.0625 L 322.265625 148.0625 C 325.117188 146.910156 327.082031 144.046875 328.164062 139.484375 Z M 324.078125 164.917969 L 323.074219 165.453125 C 318.089844 164.328125 314.492188 162.800781 312.28125 160.875 C 307.371094 154.050781 304.921875 149 304.921875 145.710938 C 304.460938 145.019531 303.957031 144.679688 303.417969 144.679688 L 303.417969 143.679688 C 303.417969 142.339844 301.953125 137.453125 299.027344 129.011719 C 297.042969 114.1875 296.054688 104.234375 296.054688 99.152344 L 296.054688 93.535156 C 296.054688 90.40625 296.222656 87.542969 296.558594 84.953125 C 296.222656 83.492188 296.054688 80.957031 296.054688 77.335938 C 297.035156 73 297.6875 67.949219 298.019531 62.171875 C 300.050781 57.042969 302.507812 53.503906 305.386719 51.554688 C 308.902344 51.554688 312.183594 49.695312 315.210938 45.976562 L 319.144531 42.9375 C 322.382812 42.9375 327.960938 46.476562 335.871094 53.558594 L 335.371094 56.09375 C 340.484375 60.148438 343.761719 65.214844 345.199219 71.296875 C 344.867188 71.886719 344.695312 72.554688 344.695312 73.296875 L 345.199219 74.335938 C 345.199219 74.667969 345.03125 74.835938 344.695312 74.835938 C 344.695312 80.324219 345.519531 84.714844 347.160156 87.996094 C 346.191406 89.585938 345.53125 91.277344 345.199219 93.074219 L 345.703125 94.078125 L 342.734375 99.621094 C 342.421875 103.542969 341.9375 106.082031 341.265625 107.238281 L 341.769531 110.777344 C 341.769531 113.316406 341.28125 116.523438 340.304688 120.398438 C 340.304688 120.730469 340.457031 120.894531 340.765625 120.894531 C 340.457031 123.433594 340.136719 125.113281 339.800781 125.933594 L 340.304688 126.980469 C 339.96875 131.976562 338.980469 139.058594 337.335938 148.21875 L 337.839844 149.257812 C 334.46875 160.390625 330.539062 165.957031 326.042969 165.957031 L 324.078125 164.917969 " fill-opacity="1" fill-rule="nonzero"/></g><path fill="#fffeff" d="M 392.402344 187.269531 C 392.964844 187.941406 393.414062 188.472656 393.746094 188.867188 C 394.085938 189.257812 394.417969 189.621094 394.757812 189.960938 C 394.535156 190.183594 394.394531 190.378906 394.335938 190.546875 C 394.28125 190.714844 394.195312 190.855469 394.085938 190.964844 C 393.632812 191.417969 393.246094 191.695312 392.910156 191.804688 C 379.558594 201.210938 368.125 212.207031 358.59375 224.800781 C 349.0625 237.394531 340.933594 251.363281 334.210938 266.699219 C 332.972656 269.609375 331.855469 272.574219 330.84375 275.597656 C 329.832031 278.621094 328.878906 281.585938 327.984375 284.496094 C 326.972656 287.410156 326.050781 290.347656 325.207031 293.316406 C 324.367188 296.277344 323.496094 299.21875 322.601562 302.128906 C 322.039062 304.035156 320.972656 304.984375 319.410156 304.984375 C 318.507812 304.871094 317.667969 304.84375 316.882812 304.898438 C 316.097656 304.960938 315.3125 305.039062 314.527344 305.152344 C 312.84375 305.378906 311.835938 304.644531 311.5 302.972656 C 311.054688 301.628906 310.628906 300.285156 310.234375 298.9375 C 309.847656 297.597656 309.539062 296.253906 309.316406 294.90625 C 308.976562 292.113281 308.699219 289.3125 308.472656 286.515625 C 308.25 283.714844 308.140625 280.917969 308.140625 278.117188 C 307.910156 269.273438 308.105469 260.484375 308.726562 251.753906 C 309.339844 243.023438 310.378906 234.289062 311.835938 225.558594 C 311.945312 224.554688 311.890625 223.65625 311.671875 222.871094 C 311.441406 223.320312 311.191406 223.738281 310.914062 224.128906 C 310.628906 224.523438 310.378906 225 310.15625 225.558594 C 307.351562 230.929688 304.605469 236.335938 301.914062 241.765625 C 299.222656 247.195312 296.417969 252.59375 293.503906 257.96875 C 290.253906 263.566406 286.96875 269.078125 283.664062 274.507812 C 280.359375 279.9375 276.960938 285.394531 273.492188 290.878906 C 272.363281 292.667969 271.128906 294.351562 269.785156 295.917969 C 268.441406 297.480469 266.980469 298.9375 265.414062 300.285156 C 264.179688 301.515625 262.695312 302.410156 260.957031 302.972656 C 259.21875 303.527344 257.449219 303.8125 255.664062 303.8125 C 253.863281 303.8125 252.097656 303.496094 250.359375 302.886719 C 248.621094 302.269531 247.082031 301.398438 245.734375 300.285156 C 243.605469 298.378906 242.539062 296.195312 242.539062 293.734375 C 242.539062 288.808594 243.152344 284.164062 244.394531 279.796875 C 245.625 275.429688 247.753906 271.347656 250.78125 267.539062 C 253.023438 264.628906 255.996094 262.390625 259.695312 260.820312 C 261.9375 259.925781 264.125 259.648438 266.253906 259.980469 C 268.386719 260.320312 270.515625 261.050781 272.648438 262.167969 C 272.980469 262.390625 273.320312 262.695312 273.65625 263.089844 C 273.992188 263.480469 274.386719 263.957031 274.835938 264.515625 C 273.933594 264.96875 273.207031 265.101562 272.648438 264.9375 C 272.085938 264.769531 271.636719 264.40625 271.300781 263.84375 C 270.292969 262.617188 269.257812 262.023438 268.191406 262.078125 C 267.121094 262.140625 265.976562 262.445312 264.742188 263.003906 C 261.148438 264.574219 258.011719 267.148438 255.324219 270.730469 C 252.96875 273.976562 251.253906 277.476562 250.191406 281.226562 C 249.125 284.972656 248.480469 288.863281 248.257812 292.894531 C 248.035156 294.574219 248.3125 296.085938 249.097656 297.425781 C 250.21875 299.332031 251.308594 300.503906 252.382812 300.953125 C 253.441406 301.398438 254.761719 301.007812 256.328125 299.777344 C 257.566406 298.769531 258.769531 297.707031 259.949219 296.585938 C 261.125 295.46875 262.214844 294.296875 263.226562 293.0625 C 264.460938 291.71875 265.550781 290.316406 266.507812 288.863281 C 267.460938 287.410156 268.441406 285.898438 269.453125 284.332031 C 276.851562 272.804688 283.71875 261.074219 290.054688 249.152344 C 296.386719 237.230469 302.585938 225.164062 308.644531 212.964844 C 309.988281 210.164062 311.355469 207.425781 312.761719 204.734375 C 314.160156 202.046875 315.539062 199.308594 316.882812 196.507812 C 318.339844 193.597656 319.683594 190.460938 320.917969 187.105469 C 321.480469 185.757812 322.066406 184.445312 322.6875 183.160156 C 323.296875 181.871094 324.054688 180.722656 324.957031 179.714844 C 325.179688 179.941406 325.375 179.996094 325.542969 179.882812 C 325.714844 179.773438 325.851562 179.828125 325.96875 180.050781 C 327.421875 180.945312 328.511719 181.59375 329.242188 181.980469 C 329.976562 182.375 330.480469 182.796875 330.757812 183.242188 C 331.035156 183.691406 331.121094 184.308594 331.011719 185.089844 C 330.898438 185.875 330.78125 187.105469 330.671875 188.78125 C 330.226562 194.386719 329.753906 199.921875 329.242188 205.40625 C 328.742188 210.894531 328.152344 216.378906 327.480469 221.863281 C 326.695312 229.367188 326.105469 236.839844 325.714844 244.28125 C 325.320312 251.726562 325.125 259.140625 325.125 266.527344 C 325.011719 266.867188 324.980469 267.175781 325.042969 267.453125 C 325.097656 267.738281 325.179688 268.15625 325.296875 268.714844 C 326.863281 265.246094 328.378906 261.832031 329.832031 258.46875 C 331.289062 255.113281 332.914062 251.921875 334.710938 248.898438 C 338.1875 242.40625 341.996094 236.304688 346.152344 230.597656 C 348.277344 227.800781 350.492188 225.085938 352.792969 222.449219 C 355.089844 219.824219 357.417969 217.21875 359.773438 214.644531 C 362.351562 212.070312 364.929688 209.578125 367.507812 207.171875 C 370.089844 204.765625 372.722656 202.445312 375.417969 200.203125 C 378.105469 197.964844 380.878906 195.8125 383.742188 193.738281 C 386.601562 191.664062 389.484375 189.511719 392.402344 187.269531 " fill-opacity="1" fill-rule="nonzero"/><path fill="#fffeff" d="M 380.800781 219.851562 C 379.449219 221.53125 378.214844 222.957031 377.101562 224.128906 C 375.972656 225.308594 374.878906 226.425781 373.816406 227.484375 C 372.746094 228.554688 371.65625 229.671875 370.535156 230.847656 C 369.417969 232.023438 368.179688 233.390625 366.835938 234.964844 C 365.714844 234.515625 365.042969 233.929688 364.820312 233.199219 C 364.589844 232.472656 364.085938 231.71875 363.304688 230.929688 C 362.519531 229.921875 362.296875 228.664062 362.632812 227.152344 C 362.96875 225.640625 363.558594 224.128906 364.398438 222.617188 C 365.238281 221.109375 366.21875 219.710938 367.339844 218.421875 C 368.460938 217.136719 369.472656 216.210938 370.367188 215.652344 C 371.601562 215.09375 372.722656 214.839844 373.734375 214.898438 C 374.746094 214.953125 375.664062 215.230469 376.507812 215.734375 C 377.347656 216.242188 378.105469 216.855469 378.777344 217.582031 C 379.449219 218.308594 380.121094 219.0625 380.800781 219.851562 Z M 394.085938 246.046875 C 394.53125 246.269531 394.898438 246.492188 395.175781 246.714844 C 395.457031 246.941406 395.769531 247.164062 396.101562 247.386719 C 396.101562 247.835938 396.046875 248.117188 395.933594 248.226562 C 390.21875 255.617188 384.886719 262.445312 379.957031 268.714844 C 375.023438 274.984375 369.695312 280.972656 363.976562 286.679688 C 362.96875 287.6875 361.929688 288.304688 360.867188 288.527344 C 359.800781 288.753906 358.734375 288.753906 357.667969 288.527344 C 356.601562 288.304688 355.566406 287.941406 354.5625 287.441406 C 353.550781 286.933594 352.539062 286.402344 351.535156 285.84375 C 348.507812 284.726562 346.652344 282.429688 345.980469 278.957031 C 345.085938 271.347656 345.925781 264.347656 348.507812 257.96875 C 351.085938 251.582031 354.5 245.765625 358.765625 240.503906 C 361.003906 238.828125 362.828125 238.488281 364.230469 239.496094 C 365.632812 240.503906 366.945312 241.847656 368.179688 243.523438 C 365.714844 247.21875 363.832031 250.441406 362.550781 253.179688 C 361.257812 255.925781 360.304688 258.636719 359.6875 261.324219 C 359.074219 264.011719 358.679688 266.980469 358.511719 270.226562 C 358.347656 273.472656 358.203125 277.445312 358.09375 282.148438 C 361.5625 279.6875 364.90625 276.914062 368.097656 273.835938 C 371.292969 270.757812 374.40625 267.621094 377.433594 264.429688 C 380.460938 261.242188 383.351562 258.050781 386.09375 254.859375 C 388.84375 251.667969 391.5 248.730469 394.085938 246.046875 " fill-opacity="1" fill-rule="nonzero"/><g clip-path="url(#id4)"><path fill="#fffeff" d="M 421.839844 241.511719 C 421.277344 241.511719 420.714844 241.488281 420.15625 241.425781 C 419.59375 241.371094 419.03125 241.402344 418.472656 241.511719 C 415.21875 242.074219 412.082031 243.640625 409.050781 246.210938 C 404.007812 250.355469 400.140625 255.113281 397.449219 260.484375 C 394.757812 265.863281 392.960938 271.734375 392.0625 278.117188 C 391.839844 279.242188 391.753906 280.445312 391.816406 281.726562 C 391.871094 283.015625 392.125 284.441406 392.570312 286.011719 C 398.847656 279.296875 404.625 272.410156 409.890625 265.355469 C 415.164062 258.300781 419.144531 250.355469 421.839844 241.511719 Z M 397.28125 302.300781 C 392.90625 303.417969 388.789062 304.734375 384.917969 306.242188 C 381.050781 307.757812 377.488281 309.910156 374.238281 312.710938 C 373.117188 313.605469 372.136719 314.667969 371.292969 315.898438 C 370.453125 317.128906 369.585938 318.363281 368.6875 319.597656 C 367.570312 321.496094 367.398438 323.460938 368.179688 325.472656 C 370.425781 326.03125 372.953125 325.859375 375.75 324.964844 C 378.554688 324.070312 381.304688 322.558594 383.992188 320.4375 C 386.679688 318.308594 389.207031 315.703125 391.5625 312.625 C 393.917969 309.542969 395.820312 306.101562 397.28125 302.300781 Z M 405.859375 279.460938 C 405.1875 280.359375 404.515625 281.28125 403.835938 282.234375 C 403.167969 283.183594 402.4375 284.109375 401.652344 285.003906 C 400.304688 286.679688 398.902344 288.25 397.449219 289.703125 C 396.210938 290.933594 394.757812 291.160156 393.074219 290.378906 C 388.925781 288.359375 385.785156 285.703125 383.652344 282.398438 C 381.527344 279.097656 380.964844 274.925781 381.976562 269.890625 C 382.871094 266.085938 383.96875 262.417969 385.25 258.890625 C 386.546875 255.363281 388.308594 251.980469 390.550781 248.730469 C 393.246094 244.59375 396.660156 241.234375 400.8125 238.65625 C 405.296875 235.96875 410.453125 234.792969 416.285156 235.128906 C 419.3125 235.242188 422.058594 236.359375 424.527344 238.488281 C 425.425781 237.707031 426.320312 236.921875 427.214844 236.136719 C 428.113281 235.355469 429.007812 234.625 429.910156 233.953125 C 430.359375 233.621094 430.835938 233.3125 431.339844 233.03125 C 431.84375 232.75 432.375 232.503906 432.9375 232.273438 C 434.730469 231.601562 435.964844 231.410156 436.636719 231.6875 C 437.3125 231.96875 438.09375 233.003906 438.992188 234.792969 C 438.207031 236.027344 437.421875 237.285156 436.636719 238.574219 C 435.851562 239.859375 435.066406 241.117188 434.28125 242.351562 C 430.691406 248.621094 427.75 255.113281 425.453125 261.832031 C 423.152344 268.546875 420.769531 275.265625 418.304688 281.980469 C 417.40625 284.222656 416.59375 286.460938 415.867188 288.699219 C 415.136719 290.933594 414.324219 293.171875 413.425781 295.414062 C 413.984375 295.523438 414.464844 295.582031 414.855469 295.582031 C 415.246094 295.582031 415.667969 295.636719 416.117188 295.746094 C 418.582031 295.972656 421.050781 296.140625 423.515625 296.253906 C 425.980469 296.363281 428.453125 296.53125 430.917969 296.757812 C 431.8125 296.867188 432.601562 297.121094 433.273438 297.511719 C 433.945312 297.90625 434.394531 298.714844 434.621094 299.949219 C 434.28125 299.949219 433.972656 299.972656 433.695312 300.03125 C 433.410156 300.085938 433.109375 300.058594 432.769531 299.949219 C 429.628906 299.949219 426.550781 299.917969 423.515625 299.863281 C 420.492188 299.804688 417.40625 299.71875 414.269531 299.609375 C 412.363281 299.5 410.957031 300.449219 410.0625 302.46875 C 407.480469 308.398438 403.835938 314.164062 399.128906 319.761719 C 395.988281 323.460938 392.34375 326.367188 388.199219 328.496094 C 384.160156 330.617188 379.730469 331.574219 374.910156 331.347656 C 372.890625 331.125 371.070312 330.59375 369.445312 329.753906 C 367.816406 328.914062 366.273438 327.878906 364.820312 326.644531 C 363.246094 325.1875 362.804688 323.515625 363.46875 321.609375 C 363.699219 320.601562 364.039062 319.597656 364.480469 318.585938 C 364.929688 317.582031 365.4375 316.628906 365.996094 315.734375 C 367.570312 313.382812 369.417969 311.339844 371.546875 309.601562 C 373.679688 307.867188 375.980469 306.332031 378.441406 304.984375 C 381.359375 303.195312 384.414062 301.714844 387.605469 300.535156 C 390.804688 299.363281 394.140625 298.378906 397.617188 297.597656 C 399.183594 297.261719 400.304688 296.308594 400.984375 294.742188 C 401.875 292.167969 402.800781 289.648438 403.757812 287.1875 C 404.707031 284.726562 405.628906 282.257812 406.53125 279.796875 C 406.304688 279.574219 406.082031 279.460938 405.859375 279.460938 " fill-opacity="1" fill-rule="nonzero"/></g><path fill="#fffeff" d="M 464.722656 224.214844 C 466.40625 223.542969 468.144531 222.59375 469.9375 221.359375 C 471.730469 220.128906 473.390625 218.757812 474.898438 217.246094 C 476.417969 215.734375 477.648438 214.222656 478.601562 212.710938 C 479.554688 211.199219 480.085938 209.886719 480.203125 208.769531 C 477.847656 208.660156 475.238281 210.027344 472.378906 212.878906 C 469.519531 215.734375 466.964844 219.511719 464.722656 224.214844 Z M 447.738281 266.027344 C 452.335938 260.210938 457.070312 254.859375 461.949219 249.988281 C 466.824219 245.121094 472.519531 241.402344 479.023438 238.828125 C 480.589844 238.265625 481.996094 238.292969 483.230469 238.90625 C 484.460938 239.523438 485.414062 240.421875 486.089844 241.597656 C 486.761719 242.769531 487.152344 244.085938 487.261719 245.539062 C 487.371094 246.996094 487.152344 248.335938 486.589844 249.570312 C 481.996094 259.761719 477.871094 269.640625 474.226562 279.207031 C 470.585938 288.78125 468.03125 298.769531 466.578125 309.183594 L 466.578125 311.199219 C 470.5 306.046875 474.339844 301.035156 478.09375 296.167969 C 481.855469 291.296875 485.636719 286.347656 489.449219 281.308594 C 490.121094 281.640625 490.738281 281.957031 491.300781 282.234375 C 491.859375 282.511719 492.421875 282.820312 492.984375 283.160156 C 490.179688 288.644531 486.929688 293.902344 483.230469 298.9375 C 479.523438 303.976562 475.992188 309.015625 472.632812 314.054688 C 472.179688 314.722656 471.621094 315.507812 470.949219 316.40625 C 469.9375 317.746094 469.125 318.78125 468.507812 319.511719 C 467.890625 320.238281 467.25 320.683594 466.578125 320.855469 C 465.90625 321.023438 465.117188 320.992188 464.222656 320.769531 C 463.320312 320.546875 462.089844 320.152344 460.523438 319.597656 C 459.285156 319.144531 458.277344 318.558594 457.492188 317.832031 C 456.707031 317.101562 456.257812 316.121094 456.144531 314.894531 C 455.921875 312.988281 455.703125 311.058594 455.472656 309.101562 C 455.246094 307.136719 455.246094 305.207031 455.472656 303.304688 C 455.8125 298.9375 456.421875 294.660156 457.324219 290.460938 C 458.222656 286.261719 459.449219 282.203125 461.023438 278.285156 C 463.046875 273.25 465.203125 268.351562 467.503906 263.59375 C 469.800781 258.835938 472.292969 254.164062 474.988281 249.570312 C 475.769531 248.226562 476.613281 246.714844 477.507812 245.035156 C 475.9375 245.035156 474.171875 245.738281 472.210938 247.132812 C 470.246094 248.535156 468.339844 250.160156 466.492188 252.007812 C 464.640625 253.851562 462.933594 255.730469 461.359375 257.628906 C 459.789062 259.535156 458.613281 261.050781 457.832031 262.167969 C 454.574219 266.527344 451.578125 270.757812 448.828125 274.839844 C 446.082031 278.929688 443.535156 283.097656 441.179688 287.355469 C 439.046875 290.710938 436.246094 291.273438 432.769531 289.035156 C 431.535156 288.25 431.03125 287.078125 431.253906 285.503906 C 431.703125 282.933594 432.070312 280.328125 432.347656 277.699219 C 432.628906 275.070312 433.046875 272.464844 433.609375 269.890625 C 435.066406 263.507812 436.863281 257.242188 438.988281 251.082031 C 441.121094 244.925781 443.644531 238.882812 446.5625 232.945312 C 443.644531 232.613281 441.234375 231.519531 439.328125 229.671875 C 437.425781 227.824219 436.019531 225.671875 435.125 223.207031 C 434.222656 220.746094 433.835938 218.144531 433.945312 215.398438 C 434.058594 212.65625 434.730469 210.21875 435.960938 208.089844 C 436.863281 208.320312 437.339844 208.769531 437.394531 209.4375 C 437.449219 210.109375 437.480469 210.726562 437.480469 211.285156 C 437.257812 213.527344 437.285156 215.679688 437.558594 217.746094 C 437.84375 219.824219 438.429688 221.640625 439.328125 223.207031 C 440.222656 224.777344 441.457031 226.035156 443.027344 226.984375 C 444.597656 227.9375 446.5625 228.355469 448.914062 228.246094 C 449.253906 227.683594 449.589844 227.152344 449.925781 226.652344 C 450.257812 226.144531 450.542969 225.617188 450.765625 225.054688 C 453.007812 221.359375 455.445312 217.832031 458.082031 214.476562 C 460.714844 211.113281 463.828125 208.152344 467.414062 205.574219 C 469.210938 204.34375 471.28125 203.363281 473.636719 202.636719 C 475.992188 201.910156 478.070312 202.445312 479.863281 204.234375 C 480.644531 205.128906 481.402344 206 482.132812 206.832031 C 482.859375 207.675781 483.503906 208.597656 484.070312 209.609375 C 484.289062 210.054688 484.429688 210.613281 484.488281 211.285156 C 484.542969 211.953125 484.515625 212.570312 484.40625 213.132812 C 483.84375 216.046875 482.660156 218.507812 480.875 220.519531 C 479.078125 222.535156 477.003906 224.328125 474.648438 225.894531 C 472.742188 227.128906 470.71875 228.277344 468.59375 229.335938 C 466.460938 230.398438 464.332031 231.378906 462.199219 232.273438 C 461.304688 232.726562 460.605469 233.144531 460.097656 233.53125 C 459.59375 233.929688 459.171875 234.570312 458.839844 235.464844 C 457.046875 240.394531 455.246094 245.265625 453.457031 250.078125 C 451.664062 254.890625 449.863281 259.761719 448.070312 264.683594 C 447.960938 264.90625 447.90625 265.132812 447.90625 265.355469 C 447.90625 265.578125 447.847656 265.808594 447.738281 266.027344 " fill-opacity="1" fill-rule="nonzero"/><path fill="#fffeff" d="M 493.148438 318.417969 C 491.804688 318.417969 490.9375 318.21875 490.542969 317.832031 C 490.152344 317.4375 489.339844 317.246094 488.105469 317.246094 C 487.878906 316.683594 487.710938 316.175781 487.597656 315.734375 C 487.488281 315.285156 487.378906 314.832031 487.261719 314.390625 C 486.480469 309.6875 486.113281 305.097656 486.167969 300.621094 C 486.226562 296.140625 486.480469 291.605469 486.929688 287.015625 C 488.050781 275.488281 489.84375 264.183594 492.308594 253.09375 C 494.773438 242.011719 498.03125 231.046875 502.0625 220.183594 C 502.171875 219.851562 502.257812 219.511719 502.316406 219.179688 C 502.371094 218.839844 502.511719 218.398438 502.734375 217.832031 C 502.171875 217.832031 501.667969 217.804688 501.226562 217.746094 C 500.773438 217.691406 500.324219 217.667969 499.878906 217.667969 C 497.859375 217.445312 495.839844 217.246094 493.820312 217.082031 C 491.804688 216.910156 489.726562 216.65625 487.597656 216.324219 C 485.136719 215.878906 483.03125 214.898438 481.292969 213.382812 C 479.554688 211.875 478.070312 210.054688 476.835938 207.925781 C 476.726562 207.703125 476.640625 207.449219 476.582031 207.171875 C 476.527344 206.894531 476.441406 206.640625 476.332031 206.417969 C 476.21875 206.191406 476.273438 205.800781 476.496094 205.238281 C 476.726562 205.464844 476.921875 205.574219 477.085938 205.574219 C 477.253906 205.574219 477.398438 205.691406 477.507812 205.910156 C 478.292969 207.257812 479.269531 208.152344 480.449219 208.597656 C 481.632812 209.046875 482.890625 209.382812 484.234375 209.609375 C 487.824219 209.941406 491.328125 209.972656 494.746094 209.6875 C 498.167969 209.410156 501.558594 208.714844 504.921875 207.589844 C 505.816406 207.367188 506.496094 207.003906 506.941406 206.5 C 507.390625 206 507.839844 205.351562 508.289062 204.566406 C 509.855469 201.542969 511.453125 198.519531 513.082031 195.5 C 514.703125 192.480469 516.414062 189.511719 518.207031 186.597656 C 518.886719 185.371094 519.695312 184.191406 520.648438 183.074219 C 521.597656 181.957031 522.695312 181.007812 523.929688 180.21875 C 524.152344 180.335938 524.324219 180.390625 524.4375 180.390625 C 524.546875 180.390625 524.714844 180.445312 524.941406 180.554688 C 526.625 181.675781 527.683594 182.566406 528.132812 183.242188 C 528.582031 183.914062 528.726562 184.585938 528.554688 185.257812 C 528.386719 185.929688 527.992188 186.714844 527.375 187.609375 C 526.757812 188.503906 526.171875 189.683594 525.613281 191.132812 C 524.941406 192.8125 524.238281 194.519531 523.511719 196.253906 C 522.777344 197.996094 521.96875 199.863281 521.070312 201.882812 C 521.851562 201.660156 522.46875 201.519531 522.917969 201.460938 C 523.367188 201.40625 523.871094 201.265625 524.4375 201.042969 C 528.023438 199.589844 531.976562 197.964844 536.292969 196.175781 C 540.605469 194.386719 544.5625 192.8125 548.152344 191.472656 C 549.265625 191.023438 550.363281 190.660156 551.433594 190.378906 C 552.492188 190.097656 553.589844 189.847656 554.710938 189.621094 C 556.277344 189.289062 557.34375 189.902344 557.90625 191.472656 C 558.128906 192.027344 558.464844 192.757812 558.917969 193.652344 C 559.699219 195.335938 560.007812 196.507812 559.839844 197.179688 C 559.675781 197.851562 558.804688 198.636719 557.234375 199.53125 C 556.222656 200.09375 555.210938 200.648438 554.207031 201.210938 C 553.195312 201.769531 552.128906 202.21875 551.007812 202.554688 C 546.074219 204.457031 541.195312 206.277344 536.375 208.011719 C 531.554688 209.746094 526.625 211.453125 521.574219 213.132812 C 519.558594 213.914062 518.265625 215.261719 517.703125 217.160156 C 514.230469 227.800781 510.835938 238.683594 507.53125 249.824219 C 504.21875 260.964844 501.558594 272.015625 499.542969 282.988281 C 498.53125 288.359375 497.578125 293.648438 496.679688 298.859375 C 495.785156 304.058594 494.886719 309.347656 493.992188 314.722656 C 493.882812 315.285156 493.765625 315.84375 493.652344 316.40625 C 493.542969 316.960938 493.378906 317.636719 493.148438 318.417969 " fill-opacity="1" fill-rule="nonzero"/></svg>