<svg xmlns="http://www.w3.org/2000/svg" xmlns:xlink="http://www.w3.org/1999/xlink" width="1080" zoomAndPan="magnify" viewBox="0 0 810 374.999991" height="500" preserveAspectRatio="xMidYMid meet" version="1.0"><defs><clipPath id="id1"><path d="M 11.101562 54.773438 L 798.601562 54.773438 L 798.601562 320.273438 L 11.101562 320.273438 Z M 11.101562 54.773438 " clip-rule="nonzero"/></clipPath></defs><g clip-path="url(#id1)"><path fill="#fffeff" d="M 93.84375 320.273438 L 21.003906 320.273438 C 16.277344 320.273438 12.4375 316.429688 12.4375 311.699219 L 12.4375 274.890625 C 12.4375 270.160156 16.277344 266.316406 21.003906 266.316406 L 93.84375 266.316406 C 98.574219 266.316406 102.414062 270.160156 102.414062 274.890625 L 102.414062 311.699219 C 102.414062 316.429688 98.574219 320.273438 93.84375 320.273438 Z M 277.789062 249.316406 L 240.707031 249.316406 C 235.976562 249.316406 232.136719 245.472656 232.136719 240.742188 L 232.136719 203.929688 C 232.136719 199.199219 235.976562 195.355469 240.707031 195.355469 L 277.789062 195.355469 C 282.519531 195.355469 286.359375 199.199219 286.359375 203.929688 L 286.359375 240.742188 C 286.359375 245.472656 282.519531 249.316406 277.789062 249.316406 Z M 624.703125 249.757812 L 587.617188 249.757812 C 582.890625 249.757812 579.046875 245.914062 579.046875 241.183594 L 579.046875 204.375 C 579.046875 199.644531 582.890625 195.800781 587.617188 195.800781 L 624.703125 195.800781 C 629.429688 195.800781 633.269531 199.644531 633.269531 204.375 L 633.269531 241.183594 C 633.269531 245.914062 629.429688 249.757812 624.703125 249.757812 Z M 555.261719 249.609375 L 518.175781 249.609375 C 513.449219 249.609375 509.605469 245.765625 509.605469 241.035156 L 509.605469 204.226562 C 509.605469 199.496094 513.449219 195.652344 518.175781 195.652344 L 555.261719 195.652344 C 559.988281 195.652344 563.828125 199.496094 563.828125 204.226562 L 563.828125 241.035156 C 563.828125 245.765625 559.988281 249.609375 555.261719 249.609375 Z M 485.820312 249.460938 L 448.734375 249.460938 C 444.007812 249.460938 440.164062 245.617188 440.164062 240.886719 L 440.164062 204.078125 C 440.164062 199.347656 444.007812 195.503906 448.734375 195.503906 L 485.820312 195.503906 C 490.546875 195.503906 494.386719 199.347656 494.386719 204.078125 L 494.386719 240.886719 C 494.386719 245.617188 490.546875 249.460938 485.820312 249.460938 Z M 416.378906 249.316406 L 379.292969 249.316406 C 374.566406 249.316406 370.722656 245.472656 370.722656 240.742188 L 370.722656 203.929688 C 370.722656 199.199219 374.566406 195.355469 379.292969 195.355469 L 416.378906 195.355469 C 421.105469 195.355469 424.945312 199.199219 424.945312 203.929688 L 424.945312 240.742188 C 424.945312 245.472656 421.105469 249.316406 416.378906 249.316406 Z M 346.9375 249.167969 L 309.851562 249.167969 C 305.125 249.167969 301.28125 245.324219 301.28125 240.59375 L 301.28125 203.785156 C 301.28125 199.054688 305.125 195.210938 309.851562 195.210938 L 346.9375 195.210938 C 351.664062 195.210938 355.503906 199.054688 355.503906 203.785156 L 355.503906 240.59375 C 355.503906 245.324219 351.664062 249.167969 346.9375 249.167969 Z M 208.203125 249.019531 L 171.117188 249.019531 C 166.390625 249.019531 162.546875 245.175781 162.546875 240.445312 L 162.546875 203.636719 C 162.546875 198.90625 166.390625 195.0625 171.117188 195.0625 L 208.203125 195.0625 C 212.929688 195.0625 216.769531 198.90625 216.769531 203.636719 L 216.769531 240.445312 C 216.769531 245.175781 212.929688 249.019531 208.203125 249.019531 Z M 662.96875 179.835938 L 625.882812 179.835938 C 621.15625 179.835938 617.3125 175.992188 617.3125 171.261719 L 617.3125 134.453125 C 617.3125 129.722656 621.15625 125.878906 625.882812 125.878906 L 662.96875 125.878906 C 667.695312 125.878906 671.539062 129.722656 671.539062 134.453125 L 671.539062 171.261719 C 671.539062 175.992188 667.695312 179.835938 662.96875 179.835938 Z M 593.527344 179.6875 L 556.441406 179.6875 C 551.714844 179.6875 547.871094 175.84375 547.871094 171.113281 L 547.871094 134.304688 C 547.871094 129.574219 551.714844 125.730469 556.441406 125.730469 L 593.527344 125.730469 C 598.253906 125.730469 602.097656 129.574219 602.097656 134.304688 L 602.097656 171.113281 C 602.097656 175.84375 598.253906 179.6875 593.527344 179.6875 Z M 524.085938 179.539062 L 487 179.539062 C 482.273438 179.539062 478.429688 175.695312 478.429688 170.964844 L 478.429688 134.15625 C 478.429688 129.425781 482.273438 125.582031 487 125.582031 L 524.085938 125.582031 C 528.8125 125.582031 532.65625 129.425781 532.65625 134.15625 L 532.65625 170.964844 C 532.65625 175.695312 528.8125 179.539062 524.085938 179.539062 Z M 454.644531 179.390625 L 417.558594 179.390625 C 412.832031 179.390625 408.988281 175.546875 408.988281 170.816406 L 408.988281 134.007812 C 408.988281 129.277344 412.832031 125.433594 417.558594 125.433594 L 454.644531 125.433594 C 459.371094 125.433594 463.214844 129.277344 463.214844 134.007812 L 463.214844 170.816406 C 463.214844 175.546875 459.371094 179.390625 454.644531 179.390625 Z M 385.203125 179.242188 L 348.117188 179.242188 C 343.390625 179.242188 339.546875 175.398438 339.546875 170.667969 L 339.546875 133.859375 C 339.546875 129.128906 343.390625 125.285156 348.117188 125.285156 L 385.203125 125.285156 C 389.929688 125.285156 393.773438 129.128906 393.773438 133.859375 L 393.773438 170.667969 C 393.773438 175.398438 389.929688 179.242188 385.203125 179.242188 Z M 315.761719 179.097656 L 278.675781 179.097656 C 273.949219 179.097656 270.109375 175.253906 270.109375 170.523438 L 270.109375 133.710938 C 270.109375 128.980469 273.949219 125.136719 278.675781 125.136719 L 315.761719 125.136719 C 320.488281 125.136719 324.332031 128.980469 324.332031 133.710938 L 324.332031 170.523438 C 324.332031 175.253906 320.488281 179.097656 315.761719 179.097656 Z M 246.320312 178.949219 L 209.234375 178.949219 C 204.507812 178.949219 200.667969 175.105469 200.667969 170.375 L 200.667969 133.566406 C 200.667969 128.835938 204.507812 124.992188 209.234375 124.992188 L 246.320312 124.992188 C 251.046875 124.992188 254.890625 128.835938 254.890625 133.566406 L 254.890625 170.375 C 254.890625 175.105469 251.046875 178.949219 246.320312 178.949219 Z M 176.878906 178.800781 L 139.792969 178.800781 C 135.066406 178.800781 131.226562 174.957031 131.226562 170.226562 L 131.226562 133.417969 C 131.226562 128.6875 135.066406 124.84375 139.792969 124.84375 L 176.878906 124.84375 C 181.605469 124.84375 185.449219 128.6875 185.449219 133.417969 L 185.449219 170.226562 C 185.449219 174.957031 181.605469 178.800781 176.878906 178.800781 Z M 612.4375 109.914062 L 575.355469 109.914062 C 570.625 109.914062 566.785156 106.070312 566.785156 101.339844 L 566.785156 64.527344 C 566.785156 59.796875 570.625 55.953125 575.355469 55.953125 L 612.4375 55.953125 C 617.167969 55.953125 621.007812 59.796875 621.007812 64.527344 L 621.007812 101.339844 C 621.007812 106.070312 617.167969 109.914062 612.4375 109.914062 Z M 542.996094 109.765625 L 505.914062 109.765625 C 501.183594 109.765625 497.34375 105.921875 497.34375 101.191406 L 497.34375 64.382812 C 497.34375 59.652344 501.183594 55.808594 505.914062 55.808594 L 542.996094 55.808594 C 547.726562 55.808594 551.566406 59.652344 551.566406 64.382812 L 551.566406 101.191406 C 551.566406 105.921875 547.726562 109.765625 542.996094 109.765625 Z M 473.554688 109.617188 L 436.472656 109.617188 C 431.742188 109.617188 427.902344 105.773438 427.902344 101.042969 L 427.902344 64.234375 C 427.902344 59.503906 431.742188 55.660156 436.472656 55.660156 L 473.554688 55.660156 C 478.285156 55.660156 482.125 59.503906 482.125 64.234375 L 482.125 101.042969 C 482.125 105.773438 478.285156 109.617188 473.554688 109.617188 Z M 404.113281 109.46875 L 367.03125 109.46875 C 362.300781 109.46875 358.460938 105.625 358.460938 100.894531 L 358.460938 64.085938 C 358.460938 59.355469 362.300781 55.511719 367.03125 55.511719 L 404.113281 55.511719 C 408.84375 55.511719 412.683594 59.355469 412.683594 64.085938 L 412.683594 100.894531 C 412.683594 105.625 408.84375 109.46875 404.113281 109.46875 Z M 334.671875 109.320312 L 297.589844 109.320312 C 292.859375 109.320312 289.019531 105.476562 289.019531 100.746094 L 289.019531 63.9375 C 289.019531 59.207031 292.859375 55.363281 297.589844 55.363281 L 334.671875 55.363281 C 339.402344 55.363281 343.242188 59.207031 343.242188 63.9375 L 343.242188 100.746094 C 343.242188 105.476562 339.402344 109.320312 334.671875 109.320312 Z M 265.230469 109.171875 L 228.148438 109.171875 C 223.417969 109.171875 219.578125 105.328125 219.578125 100.597656 L 219.578125 63.789062 C 219.578125 59.058594 223.417969 55.214844 228.148438 55.214844 L 265.230469 55.214844 C 269.960938 55.214844 273.800781 59.058594 273.800781 63.789062 L 273.800781 100.597656 C 273.800781 105.328125 269.960938 109.171875 265.230469 109.171875 Z M 195.789062 109.023438 L 158.707031 109.023438 C 153.976562 109.023438 150.136719 105.183594 150.136719 100.453125 L 150.136719 63.640625 C 150.136719 58.910156 153.976562 55.066406 158.707031 55.066406 L 195.789062 55.066406 C 200.519531 55.066406 204.359375 58.910156 204.359375 63.640625 L 204.359375 100.453125 C 204.359375 105.183594 200.519531 109.023438 195.789062 109.023438 Z M 126.347656 108.878906 L 89.265625 108.878906 C 84.535156 108.878906 80.695312 105.035156 80.695312 100.304688 L 80.695312 63.496094 C 80.695312 58.761719 84.535156 54.921875 89.265625 54.921875 L 126.347656 54.921875 C 131.078125 54.921875 134.917969 58.761719 134.917969 63.496094 L 134.917969 100.304688 C 134.917969 105.035156 131.078125 108.878906 126.347656 108.878906 Z M 56.90625 108.730469 L 19.824219 108.730469 C 15.09375 108.730469 11.253906 104.886719 11.253906 100.15625 L 11.253906 63.347656 C 11.253906 58.617188 15.09375 54.773438 19.824219 54.773438 L 56.90625 54.773438 C 61.636719 54.773438 65.476562 58.617188 65.476562 63.347656 L 65.476562 100.15625 C 65.476562 104.886719 61.636719 108.730469 56.90625 108.730469 Z M 790.03125 110.355469 L 645.828125 110.355469 C 641.101562 110.355469 637.261719 106.511719 637.261719 101.78125 L 637.261719 64.972656 C 637.261719 60.242188 641.101562 56.398438 645.828125 56.398438 L 790.03125 56.398438 C 794.757812 56.398438 798.601562 60.242188 798.601562 64.972656 L 798.601562 101.78125 C 798.601562 106.511719 794.757812 110.355469 790.03125 110.355469 Z M 790.03125 249.609375 L 657.058594 249.609375 C 652.328125 249.609375 648.488281 245.765625 648.488281 241.035156 L 648.488281 204.226562 C 648.488281 199.496094 652.328125 195.652344 657.058594 195.652344 L 790.03125 195.652344 C 794.757812 195.652344 798.601562 199.496094 798.601562 204.226562 L 798.601562 241.035156 C 798.601562 245.765625 794.757812 249.609375 790.03125 249.609375 Z M 790.03125 178.355469 L 696.0625 178.355469 C 691.335938 178.355469 687.492188 174.511719 687.492188 169.78125 L 687.492188 132.972656 C 687.492188 128.242188 691.335938 124.398438 696.0625 124.398438 L 790.03125 124.398438 C 794.757812 124.398438 798.601562 128.242188 798.601562 132.972656 L 798.601562 169.78125 C 798.601562 174.511719 794.757812 178.355469 790.03125 178.355469 Z M 106.847656 178.355469 L 19.675781 178.355469 C 14.949219 178.355469 11.105469 174.511719 11.105469 169.78125 L 11.105469 132.972656 C 11.105469 128.242188 14.949219 124.398438 19.675781 124.398438 L 106.847656 124.398438 C 111.574219 124.398438 115.414062 128.242188 115.414062 132.972656 L 115.414062 169.78125 C 115.414062 174.511719 111.574219 178.355469 106.847656 178.355469 Z M 137.726562 247.984375 L 19.824219 247.984375 C 15.09375 247.984375 11.253906 244.140625 11.253906 239.410156 L 11.253906 202.601562 C 11.253906 197.871094 15.09375 194.027344 19.824219 194.027344 L 137.726562 194.027344 C 142.453125 194.027344 146.296875 197.871094 146.296875 202.601562 L 146.296875 239.410156 C 146.296875 244.140625 142.453125 247.984375 137.726562 247.984375 Z M 632.679688 265.132812 L 684.097656 265.132812 C 688.824219 265.132812 692.664062 268.976562 692.664062 273.707031 L 692.664062 310.515625 C 692.664062 315.246094 688.824219 319.089844 684.097656 319.089844 L 632.679688 319.089844 C 627.953125 319.089844 624.109375 315.246094 624.109375 310.515625 L 624.109375 273.707031 C 624.109375 268.976562 627.953125 265.132812 632.679688 265.132812 Z M 716.601562 265.132812 L 789.441406 265.132812 C 794.167969 265.132812 798.007812 268.976562 798.007812 273.707031 L 798.007812 310.515625 C 798.007812 315.246094 794.167969 319.089844 789.441406 319.089844 L 716.601562 319.089844 C 711.871094 319.089844 708.03125 315.246094 708.03125 310.515625 L 708.03125 273.707031 C 708.03125 268.976562 711.871094 265.132812 716.601562 265.132812 Z M 600.46875 319.089844 L 208.792969 319.089844 C 204.0625 319.089844 200.222656 315.246094 200.222656 310.515625 L 200.222656 273.707031 C 200.222656 268.976562 204.0625 265.132812 208.792969 265.132812 L 600.46875 265.132812 C 605.199219 265.132812 609.039062 268.976562 609.039062 273.707031 L 609.039062 310.515625 C 609.039062 315.246094 605.199219 319.089844 600.46875 319.089844 Z M 176.582031 319.089844 L 125.167969 319.089844 C 120.4375 319.089844 116.597656 315.246094 116.597656 310.515625 L 116.597656 273.707031 C 116.597656 268.976562 120.4375 265.132812 125.167969 265.132812 L 176.582031 265.132812 C 181.3125 265.132812 185.152344 268.976562 185.152344 273.707031 L 185.152344 310.515625 C 185.152344 315.246094 181.3125 319.089844 176.582031 319.089844 Z M 176.582031 319.089844 " fill-opacity="1" fill-rule="evenodd"/></g></svg>