<svg xmlns="http://www.w3.org/2000/svg" xmlns:xlink="http://www.w3.org/1999/xlink" width="200" zoomAndPan="magnify" viewBox="0 0 150 149.999998" height="200" preserveAspectRatio="xMidYMid meet" version="1.0"><defs><clipPath id="id1"><path d="M 11 43 L 82 43 L 82 90 L 11 90 Z M 11 43 " clip-rule="nonzero"/></clipPath><clipPath id="id2"><path d="M 47.007812 154.335938 L 6.292969 56.738281 L 103.199219 16.3125 L 143.914062 113.910156 Z M 47.007812 154.335938 " clip-rule="nonzero"/></clipPath><clipPath id="id3"><path d="M 47.007812 154.335938 L 6.292969 56.738281 L 103.199219 16.3125 L 143.914062 113.910156 Z M 47.007812 154.335938 " clip-rule="nonzero"/></clipPath><clipPath id="id4"><path d="M 10 43 L 83 43 L 83 91 L 10 91 Z M 10 43 " clip-rule="nonzero"/></clipPath><clipPath id="id5"><path d="M 47.007812 154.335938 L 6.292969 56.738281 L 103.199219 16.3125 L 143.914062 113.910156 Z M 47.007812 154.335938 " clip-rule="nonzero"/></clipPath><clipPath id="id6"><path d="M 47.007812 154.335938 L 6.292969 56.738281 L 103.199219 16.3125 L 143.914062 113.910156 Z M 47.007812 154.335938 " clip-rule="nonzero"/></clipPath><clipPath id="id7"><path d="M 63 53 L 76 53 L 76 79 L 63 79 Z M 63 53 " clip-rule="nonzero"/></clipPath><clipPath id="id8"><path d="M 47.007812 154.335938 L 6.292969 56.738281 L 103.199219 16.3125 L 143.914062 113.910156 Z M 47.007812 154.335938 " clip-rule="nonzero"/></clipPath><clipPath id="id9"><path d="M 47.007812 154.335938 L 6.292969 56.738281 L 103.199219 16.3125 L 143.914062 113.910156 Z M 47.007812 154.335938 " clip-rule="nonzero"/></clipPath><clipPath id="id10"><path d="M 62 53 L 76 53 L 76 80 L 62 80 Z M 62 53 " clip-rule="nonzero"/></clipPath><clipPath id="id11"><path d="M 47.007812 154.335938 L 6.292969 56.738281 L 103.199219 16.3125 L 143.914062 113.910156 Z M 47.007812 154.335938 " clip-rule="nonzero"/></clipPath><clipPath id="id12"><path d="M 47.007812 154.335938 L 6.292969 56.738281 L 103.199219 16.3125 L 143.914062 113.910156 Z M 47.007812 154.335938 " clip-rule="nonzero"/></clipPath><clipPath id="id13"><path d="M 67 52 L 143 52 L 143 114 L 67 114 Z M 67 52 " clip-rule="nonzero"/></clipPath><clipPath id="id14"><path d="M 47.007812 154.335938 L 6.292969 56.738281 L 103.199219 16.3125 L 143.914062 113.910156 Z M 47.007812 154.335938 " clip-rule="nonzero"/></clipPath><clipPath id="id15"><path d="M 47.007812 154.335938 L 6.292969 56.738281 L 103.199219 16.3125 L 143.914062 113.910156 Z M 47.007812 154.335938 " clip-rule="nonzero"/></clipPath><clipPath id="id16"><path d="M 67 51 L 144 51 L 144 115 L 67 115 Z M 67 51 " clip-rule="nonzero"/></clipPath><clipPath id="id17"><path d="M 47.007812 154.335938 L 6.292969 56.738281 L 103.199219 16.3125 L 143.914062 113.910156 Z M 47.007812 154.335938 " clip-rule="nonzero"/></clipPath><clipPath id="id18"><path d="M 47.007812 154.335938 L 6.292969 56.738281 L 103.199219 16.3125 L 143.914062 113.910156 Z M 47.007812 154.335938 " clip-rule="nonzero"/></clipPath></defs><g clip-path="url(#id1)"><g clip-path="url(#id2)"><g clip-path="url(#id3)"><path fill="#ffffff" d="M 38.289062 44.773438 C 36.710938 46.765625 36.472656 48.320312 38.3125 49.789062 C 40.148438 51.261719 34.632812 48.769531 32.464844 51.117188 C 30.003906 53.792969 31.957031 56.140625 32.671875 56.507812 C 33.394531 56.867188 28.949219 55.699219 27.820312 58.621094 C 26.695312 61.542969 29.367188 63.648438 30.433594 63.976562 C 31.042969 64.164062 25.015625 63.554688 20.859375 62.976562 L 15.085938 62.128906 C 13.324219 61.871094 11.714844 62.867188 11.492188 64.351562 L 11.285156 65.699219 C 11.058594 67.1875 12.304688 68.601562 14.0625 68.859375 L 35.925781 72.066406 L 35.9375 71.984375 C 36.863281 72.128906 37.742188 72.285156 38.574219 72.453125 C 44.46875 73.660156 43.851562 74 39.84375 77.179688 C 35.835938 80.367188 31.449219 84.324219 36.503906 88.707031 C 38.914062 90.800781 39.710938 85.726562 47.644531 81.195312 C 50.863281 79.355469 56.503906 77.003906 62.574219 75.59375 L 62.59375 75.59375 C 67.9375 75.242188 80.851562 77.394531 80.851562 77.394531 L 81.464844 58.902344 C 81.464844 58.902344 70.960938 57.511719 65.382812 54.5 C 65.296875 54.457031 65.210938 54.417969 65.128906 54.382812 C 61.824219 52.507812 52.394531 47.191406 49.96875 46.257812 C 46.132812 44.78125 39.871094 42.777344 38.289062 44.773438 " fill-opacity="1" fill-rule="nonzero"/></g></g></g><g clip-path="url(#id4)"><g clip-path="url(#id5)"><g clip-path="url(#id6)"><path fill="#000000" d="M 38.289062 44.773438 L 37.644531 44.265625 C 37.058594 45.007812 36.617188 45.71875 36.375 46.464844 C 36.253906 46.835938 36.1875 47.21875 36.195312 47.605469 C 36.199219 47.988281 36.28125 48.375 36.433594 48.738281 C 36.699219 49.375 37.164062 49.925781 37.796875 50.429688 C 37.886719 50.5 37.945312 50.558594 37.96875 50.582031 L 37.980469 50.59375 L 38.144531 50.445312 L 37.964844 50.570312 L 37.980469 50.59375 L 38.144531 50.445312 L 37.964844 50.570312 L 38.421875 50.257812 L 37.910156 50.472656 C 37.933594 50.523438 37.953125 50.550781 37.964844 50.570312 L 38.421875 50.257812 L 37.910156 50.472656 L 38.558594 50.199219 L 37.859375 50.25 C 37.867188 50.351562 37.890625 50.421875 37.910156 50.472656 L 38.558594 50.199219 L 37.859375 50.25 L 38.609375 50.195312 L 37.886719 49.996094 C 37.859375 50.089844 37.855469 50.179688 37.859375 50.25 L 38.609375 50.195312 L 37.886719 49.996094 L 38.617188 50.195312 L 38.09375 49.648438 C 38.007812 49.726562 37.921875 49.859375 37.886719 49.996094 L 38.617188 50.195312 L 38.09375 49.648438 L 38.582031 50.164062 L 38.308594 49.507812 C 38.253906 49.53125 38.179688 49.570312 38.09375 49.648438 L 38.582031 50.164062 L 38.308594 49.507812 L 38.492188 49.945312 L 38.453125 49.46875 C 38.445312 49.46875 38.414062 49.464844 38.308594 49.507812 L 38.492188 49.945312 L 38.453125 49.46875 C 38.4375 49.46875 38.347656 49.464844 38.226562 49.453125 C 38.007812 49.433594 37.695312 49.390625 37.324219 49.347656 C 36.769531 49.28125 36.09375 49.21875 35.378906 49.234375 C 34.664062 49.253906 33.90625 49.355469 33.1875 49.652344 C 32.710938 49.851562 32.246094 50.148438 31.859375 50.566406 C 31.070312 51.421875 30.636719 52.308594 30.496094 53.152344 C 30.351562 53.992188 30.492188 54.765625 30.753906 55.382812 C 30.949219 55.855469 31.207031 56.242188 31.472656 56.550781 C 31.605469 56.703125 31.742188 56.835938 31.875 56.949219 C 32.011719 57.0625 32.144531 57.15625 32.300781 57.238281 L 32.53125 56.8125 L 32.242188 57.199219 C 32.285156 57.230469 32.296875 57.234375 32.300781 57.238281 L 32.53125 56.8125 L 32.242188 57.199219 L 32.675781 56.613281 L 32.148438 57.117188 C 32.191406 57.164062 32.222656 57.183594 32.242188 57.199219 L 32.675781 56.613281 L 32.148438 57.117188 L 32.722656 56.570312 L 31.992188 56.875 C 32.050781 57.007812 32.109375 57.074219 32.148438 57.117188 L 32.722656 56.570312 L 31.992188 56.875 L 32.738281 56.5625 L 31.929688 56.519531 C 31.921875 56.660156 31.953125 56.785156 31.992188 56.875 L 32.738281 56.5625 L 31.929688 56.519531 L 32.742188 56.5625 L 32.011719 56.207031 C 31.964844 56.300781 31.9375 56.414062 31.929688 56.519531 L 32.742188 56.5625 L 32.011719 56.207031 L 32.738281 56.5625 L 32.246094 55.921875 C 32.171875 55.980469 32.078125 56.070312 32.011719 56.207031 L 32.738281 56.5625 L 32.246094 55.921875 L 32.730469 56.550781 L 32.425781 55.820312 C 32.378906 55.835938 32.320312 55.867188 32.246094 55.921875 L 32.730469 56.550781 L 32.425781 55.820312 L 32.707031 56.496094 L 32.578125 55.773438 C 32.550781 55.777344 32.507812 55.785156 32.425781 55.820312 L 32.707031 56.496094 L 32.578125 55.773438 L 32.675781 56.308594 L 32.632812 55.765625 L 32.578125 55.773438 L 32.675781 56.308594 L 32.632812 55.765625 L 32.652344 56.035156 L 32.640625 55.765625 L 32.632812 55.765625 L 32.652344 56.035156 L 32.640625 55.765625 L 32.640625 55.789062 L 32.640625 55.765625 L 32.640625 55.789062 L 32.640625 55.765625 C 32.632812 55.765625 32.574219 55.765625 32.5 55.761719 C 32.230469 55.753906 31.726562 55.726562 31.136719 55.765625 C 30.546875 55.804688 29.855469 55.910156 29.175781 56.191406 C 28.75 56.371094 28.328125 56.621094 27.953125 56.972656 C 27.582031 57.324219 27.265625 57.78125 27.054688 58.328125 C 26.8125 58.953125 26.714844 59.570312 26.730469 60.148438 C 26.746094 60.730469 26.878906 61.269531 27.078125 61.75 C 27.433594 62.597656 27.988281 63.265625 28.554688 63.765625 C 28.835938 64.015625 29.125 64.222656 29.398438 64.390625 C 29.671875 64.554688 29.929688 64.679688 30.191406 64.757812 L 30.1875 64.757812 L 30.367188 64.175781 L 30.101562 64.722656 C 30.15625 64.75 30.175781 64.753906 30.1875 64.757812 L 30.367188 64.175781 L 30.101562 64.722656 L 30.441406 64.03125 L 29.972656 64.644531 C 30.035156 64.691406 30.074219 64.707031 30.101562 64.722656 L 30.441406 64.03125 L 29.972656 64.644531 L 30.460938 64.003906 L 29.859375 64.539062 C 29.90625 64.589844 29.945312 64.621094 29.972656 64.644531 L 30.460938 64.003906 L 29.859375 64.539062 L 30.46875 63.996094 L 29.714844 64.3125 C 29.761719 64.417969 29.816406 64.488281 29.859375 64.539062 L 30.46875 63.996094 L 29.714844 64.3125 L 30.46875 63.996094 L 29.664062 63.859375 C 29.636719 64.019531 29.664062 64.191406 29.714844 64.3125 L 30.46875 63.996094 L 29.664062 63.859375 L 30.46875 63.996094 L 29.785156 63.554688 C 29.730469 63.632812 29.683594 63.738281 29.664062 63.859375 L 30.46875 63.996094 L 29.785156 63.554688 L 30.46875 63.996094 L 30.003906 63.324219 C 29.941406 63.371094 29.863281 63.433594 29.785156 63.554688 L 30.46875 63.996094 L 30.003906 63.324219 L 30.460938 63.984375 L 30.152344 63.246094 C 30.113281 63.261719 30.066406 63.285156 30.003906 63.324219 L 30.460938 63.984375 L 30.152344 63.246094 L 30.445312 63.945312 L 30.316406 63.195312 C 30.289062 63.203125 30.246094 63.207031 30.152344 63.246094 L 30.445312 63.945312 L 30.316406 63.195312 L 30.394531 63.65625 L 30.378906 63.1875 C 30.378906 63.191406 30.371094 63.1875 30.316406 63.195312 L 30.394531 63.65625 L 30.378906 63.1875 C 30.375 63.191406 30.332031 63.191406 30.269531 63.1875 C 30.023438 63.179688 29.515625 63.140625 28.863281 63.078125 C 26.902344 62.898438 23.5625 62.523438 20.972656 62.164062 L 20.980469 62.164062 L 15.207031 61.316406 C 14.371094 61.195312 13.558594 61.304688 12.847656 61.597656 C 12.292969 61.828125 11.800781 62.175781 11.421875 62.625 C 11.039062 63.070312 10.769531 63.621094 10.679688 64.234375 L 10.679688 64.230469 L 10.472656 65.578125 C 10.382812 66.175781 10.46875 66.765625 10.6875 67.296875 C 11.214844 68.542969 12.445312 69.449219 13.941406 69.671875 L 35.804688 72.878906 C 36.253906 72.941406 36.667969 72.636719 36.738281 72.1875 L 36.75 72.105469 L 35.9375 71.984375 L 35.808594 72.796875 C 36.722656 72.9375 37.59375 73.089844 38.410156 73.257812 C 39.769531 73.535156 40.777344 73.769531 41.414062 73.984375 C 41.730469 74.085938 41.957031 74.1875 42.070312 74.261719 C 42.128906 74.292969 42.160156 74.320312 42.164062 74.324219 L 42.164062 74.328125 L 42.3125 74.191406 L 42.128906 74.269531 C 42.144531 74.304688 42.164062 74.328125 42.164062 74.328125 L 42.3125 74.191406 L 42.128906 74.269531 L 42.421875 74.148438 L 42.105469 74.109375 C 42.101562 74.144531 42.109375 74.21875 42.128906 74.269531 L 42.421875 74.148438 L 42.105469 74.109375 L 42.261719 74.128906 L 42.113281 74.082031 L 42.105469 74.109375 L 42.261719 74.128906 L 42.113281 74.082031 L 42.125 74.085938 L 42.109375 74.082031 L 42.113281 74.082031 L 42.125 74.085938 L 42.109375 74.082031 C 42.113281 74.085938 42.0625 74.1875 41.941406 74.328125 C 41.757812 74.542969 41.425781 74.847656 40.980469 75.214844 C 40.539062 75.585938 39.984375 76.023438 39.335938 76.539062 C 37.707031 77.835938 35.980469 79.269531 34.792969 80.902344 C 34.199219 81.722656 33.738281 82.597656 33.527344 83.550781 C 33.316406 84.5 33.375 85.519531 33.796875 86.519531 C 34.199219 87.484375 34.914062 88.417969 35.964844 89.328125 C 36.316406 89.632812 36.699219 89.863281 37.128906 89.964844 C 37.34375 90.011719 37.570312 90.027344 37.78125 90.003906 C 37.996094 89.980469 38.203125 89.921875 38.390625 89.84375 C 38.695312 89.714844 38.960938 89.539062 39.21875 89.335938 C 39.667969 88.976562 40.101562 88.519531 40.605469 87.992188 C 41.355469 87.203125 42.25 86.234375 43.441406 85.1875 C 44.636719 84.136719 46.125 83.007812 48.050781 81.90625 C 49.296875 81.195312 50.945312 80.390625 52.847656 79.597656 C 55.710938 78.402344 59.164062 77.226562 62.761719 76.390625 L 62.574219 75.59375 L 62.570312 76.414062 L 62.585938 76.414062 L 62.648438 76.410156 C 63.910156 76.328125 65.695312 76.390625 67.632812 76.542969 C 70.546875 76.769531 73.824219 77.183594 76.363281 77.542969 C 77.636719 77.722656 78.722656 77.890625 79.492188 78.007812 C 79.878906 78.070312 80.183594 78.117188 80.394531 78.152344 C 80.601562 78.1875 80.710938 78.207031 80.710938 78.203125 C 80.945312 78.246094 81.183594 78.179688 81.367188 78.03125 C 81.554688 77.878906 81.664062 77.660156 81.671875 77.421875 L 82.289062 58.929688 C 82.300781 58.507812 81.996094 58.144531 81.578125 58.089844 L 81.550781 58.085938 C 81.253906 58.046875 78.609375 57.675781 75.382812 56.960938 C 73.769531 56.601562 72.011719 56.15625 70.332031 55.625 C 68.65625 55.09375 67.054688 54.472656 65.773438 53.78125 C 65.660156 53.71875 65.546875 53.667969 65.4375 53.621094 L 65.128906 54.382812 L 65.535156 53.667969 C 63.882812 52.730469 60.695312 50.929688 57.613281 49.246094 C 56.074219 48.40625 54.5625 47.59375 53.273438 46.929688 C 52.632812 46.597656 52.046875 46.300781 51.539062 46.058594 C 51.03125 45.816406 50.609375 45.625 50.269531 45.492188 C 48.558594 44.835938 46.382812 44.074219 44.300781 43.589844 C 43.257812 43.347656 42.242188 43.175781 41.304688 43.128906 C 40.367188 43.082031 39.503906 43.144531 38.746094 43.457031 C 38.328125 43.628906 37.9375 43.894531 37.644531 44.265625 L 38.933594 45.28125 C 39.023438 45.164062 39.15625 45.0625 39.375 44.96875 C 39.765625 44.800781 40.417969 44.71875 41.214844 44.765625 C 42.410156 44.824219 43.914062 45.144531 45.414062 45.578125 C 46.917969 46.007812 48.425781 46.542969 49.671875 47.023438 C 49.9375 47.128906 50.339844 47.304688 50.824219 47.539062 C 52.527344 48.355469 55.292969 49.839844 57.972656 51.320312 C 60.660156 52.796875 63.277344 54.277344 64.722656 55.097656 L 64.820312 55.144531 C 64.878906 55.167969 64.933594 55.191406 64.988281 55.222656 C 66.457031 56.011719 68.199219 56.675781 70 57.242188 C 72.703125 58.085938 75.53125 58.703125 77.695312 59.109375 C 79.855469 59.515625 81.34375 59.714844 81.355469 59.714844 L 81.464844 58.902344 L 80.644531 58.878906 L 80.027344 77.371094 L 80.851562 77.394531 L 80.988281 76.585938 C 80.980469 76.585938 77.742188 76.046875 73.832031 75.546875 C 71.871094 75.300781 69.746094 75.0625 67.765625 74.90625 C 65.78125 74.753906 63.949219 74.683594 62.542969 74.777344 L 62.59375 75.59375 L 62.601562 74.773438 L 62.582031 74.773438 C 62.511719 74.773438 62.457031 74.777344 62.390625 74.792969 C 58.691406 75.652344 55.160156 76.855469 52.214844 78.082031 C 50.257812 78.898438 48.5625 79.726562 47.238281 80.484375 C 44.140625 82.253906 42.082031 84.117188 40.621094 85.605469 C 39.890625 86.347656 39.304688 86.992188 38.828125 87.472656 C 38.589844 87.710938 38.375 87.90625 38.195312 88.054688 C 38.015625 88.195312 37.863281 88.285156 37.761719 88.328125 C 37.695312 88.355469 37.644531 88.367188 37.609375 88.371094 C 37.554688 88.375 37.511719 88.375 37.425781 88.339844 C 37.339844 88.308594 37.210938 88.234375 37.046875 88.089844 C 36.128906 87.296875 35.59375 86.554688 35.3125 85.886719 C 35.027344 85.1875 34.992188 84.558594 35.132812 83.898438 C 35.34375 82.914062 36.023438 81.859375 36.984375 80.824219 C 37.9375 79.789062 39.15625 78.777344 40.355469 77.824219 C 41.421875 76.972656 42.257812 76.328125 42.84375 75.753906 C 43.136719 75.464844 43.375 75.199219 43.554688 74.871094 C 43.640625 74.703125 43.714844 74.515625 43.738281 74.300781 C 43.765625 74.085938 43.738281 73.84375 43.648438 73.636719 C 43.570312 73.453125 43.457031 73.296875 43.335938 73.171875 C 43.117188 72.957031 42.871094 72.8125 42.59375 72.679688 C 42.175781 72.488281 41.675781 72.332031 41.042969 72.167969 C 40.410156 72.003906 39.648438 71.835938 38.742188 71.652344 C 37.890625 71.476562 37 71.320312 36.066406 71.175781 C 35.851562 71.140625 35.628906 71.195312 35.453125 71.324219 C 35.277344 71.453125 35.15625 71.648438 35.125 71.863281 L 35.113281 71.945312 L 35.925781 72.066406 L 36.046875 71.253906 L 14.183594 68.046875 C 13.203125 67.90625 12.472656 67.308594 12.207031 66.660156 C 12.09375 66.386719 12.054688 66.109375 12.097656 65.820312 L 12.304688 64.476562 L 12.304688 64.472656 C 12.347656 64.179688 12.472656 63.917969 12.671875 63.683594 C 12.871094 63.453125 13.144531 63.25 13.476562 63.113281 C 13.90625 62.933594 14.421875 62.859375 14.964844 62.941406 L 20.738281 63.789062 L 20.742188 63.789062 C 22.699219 64.058594 25.058594 64.339844 26.957031 64.539062 C 27.910156 64.636719 28.742188 64.71875 29.359375 64.769531 C 29.667969 64.796875 29.921875 64.8125 30.117188 64.824219 C 30.214844 64.828125 30.296875 64.832031 30.371094 64.828125 C 30.414062 64.828125 30.449219 64.828125 30.5 64.824219 C 30.527344 64.824219 30.554688 64.820312 30.59375 64.8125 C 30.636719 64.804688 30.683594 64.796875 30.785156 64.757812 C 30.820312 64.742188 30.863281 64.722656 30.917969 64.6875 C 30.996094 64.632812 31.117188 64.546875 31.214844 64.355469 C 31.261719 64.257812 31.292969 64.136719 31.296875 64.011719 C 31.300781 63.886719 31.273438 63.769531 31.234375 63.679688 C 31.1875 63.566406 31.132812 63.496094 31.085938 63.445312 C 31.003906 63.355469 30.949219 63.320312 30.902344 63.289062 C 30.835938 63.25 30.796875 63.234375 30.761719 63.21875 L 30.675781 63.191406 C 30.59375 63.167969 30.433594 63.097656 30.25 62.984375 C 29.972656 62.816406 29.640625 62.558594 29.339844 62.238281 C 29.039062 61.917969 28.769531 61.535156 28.597656 61.117188 C 28.464844 60.800781 28.382812 60.460938 28.375 60.101562 C 28.363281 59.738281 28.421875 59.347656 28.589844 58.914062 C 28.714844 58.589844 28.882812 58.355469 29.085938 58.164062 C 29.289062 57.972656 29.53125 57.820312 29.808594 57.707031 C 30.359375 57.472656 31.039062 57.394531 31.601562 57.386719 C 31.882812 57.378906 32.132812 57.390625 32.332031 57.398438 C 32.433594 57.402344 32.523438 57.40625 32.609375 57.40625 C 32.652344 57.40625 32.695312 57.40625 32.753906 57.402344 C 32.785156 57.398438 32.816406 57.394531 32.863281 57.386719 C 32.910156 57.378906 32.964844 57.367188 33.054688 57.332031 C 33.101562 57.3125 33.15625 57.285156 33.222656 57.238281 C 33.273438 57.203125 33.328125 57.15625 33.386719 57.085938 C 33.46875 56.988281 33.546875 56.828125 33.566406 56.664062 C 33.589844 56.496094 33.554688 56.34375 33.507812 56.242188 C 33.441406 56.085938 33.367188 56.011719 33.320312 55.960938 C 33.242188 55.890625 33.195312 55.859375 33.152344 55.832031 C 33.109375 55.808594 33.078125 55.789062 33.046875 55.773438 L 33.015625 55.753906 C 32.941406 55.707031 32.796875 55.578125 32.660156 55.402344 C 32.515625 55.230469 32.375 55.003906 32.269531 54.75 C 32.113281 54.367188 32.03125 53.925781 32.113281 53.425781 C 32.203125 52.925781 32.457031 52.34375 33.070312 51.671875 C 33.273438 51.457031 33.519531 51.292969 33.820312 51.164062 C 34.1875 51.011719 34.636719 50.921875 35.113281 50.890625 C 35.828125 50.839844 36.59375 50.910156 37.230469 50.988281 C 37.550781 51.027344 37.832031 51.066406 38.085938 51.089844 C 38.210938 51.101562 38.328125 51.109375 38.453125 51.109375 C 38.519531 51.109375 38.582031 51.105469 38.660156 51.09375 C 38.738281 51.082031 38.824219 51.066406 38.941406 51.019531 C 39.011719 50.988281 39.101562 50.945312 39.191406 50.867188 C 39.257812 50.808594 39.328125 50.730469 39.382812 50.636719 C 39.46875 50.492188 39.503906 50.316406 39.5 50.175781 C 39.496094 50.035156 39.460938 49.921875 39.429688 49.835938 C 39.382812 49.730469 39.332031 49.65625 39.285156 49.59375 C 39.214844 49.5 39.148438 49.429688 39.070312 49.363281 C 39 49.289062 38.917969 49.222656 38.824219 49.148438 C 38.339844 48.761719 38.078125 48.410156 37.949219 48.105469 C 37.875 47.929688 37.84375 47.761719 37.839844 47.578125 C 37.835938 47.304688 37.90625 46.984375 38.085938 46.59375 C 38.261719 46.210938 38.546875 45.765625 38.933594 45.28125 L 38.289062 44.773438 " fill-opacity="1" fill-rule="nonzero"/></g></g></g><g clip-path="url(#id7)"><g clip-path="url(#id8)"><g clip-path="url(#id9)"><path fill="#ffffff" d="M 71.707031 78.472656 L 75.019531 53.847656 L 66.429688 54.089844 L 63.085938 76.136719 L 71.707031 78.472656 " fill-opacity="1" fill-rule="nonzero"/></g></g></g><g clip-path="url(#id10)"><g clip-path="url(#id11)"><g clip-path="url(#id12)"><path fill="#000000" d="M 71.707031 78.472656 L 72.519531 78.582031 L 75.835938 53.957031 C 75.867188 53.71875 75.792969 53.476562 75.632812 53.296875 C 75.472656 53.121094 75.238281 53.019531 75 53.027344 L 66.410156 53.269531 C 66.011719 53.28125 65.675781 53.574219 65.617188 53.96875 L 62.277344 76.015625 C 62.210938 76.425781 62.46875 76.816406 62.871094 76.925781 L 71.488281 79.265625 C 71.714844 79.328125 71.960938 79.289062 72.160156 79.15625 C 72.355469 79.023438 72.488281 78.816406 72.519531 78.582031 L 71.707031 78.472656 L 71.921875 77.683594 L 64.007812 75.535156 L 67.140625 54.886719 L 74.078125 54.695312 L 70.890625 78.367188 L 71.707031 78.472656 L 71.921875 77.683594 L 71.707031 78.472656 " fill-opacity="1" fill-rule="nonzero"/></g></g></g><g clip-path="url(#id13)"><g clip-path="url(#id14)"><g clip-path="url(#id15)"><path fill="#ffffff" d="M 122.667969 65.101562 L 72.839844 52.003906 L 67.84375 80.761719 L 142.804688 113.371094 L 122.667969 65.101562 " fill-opacity="1" fill-rule="nonzero"/></g></g></g><g clip-path="url(#id16)"><g clip-path="url(#id17)"><g clip-path="url(#id18)"><path fill="#000000" d="M 122.667969 65.101562 L 122.878906 64.308594 L 73.050781 51.210938 C 72.828125 51.152344 72.589844 51.191406 72.394531 51.316406 C 72.199219 51.441406 72.070312 51.636719 72.03125 51.867188 L 67.03125 80.621094 C 66.96875 80.992188 67.167969 81.359375 67.511719 81.511719 L 142.476562 114.125 C 142.78125 114.257812 143.144531 114.191406 143.378906 113.957031 C 143.621094 113.722656 143.691406 113.363281 143.566406 113.054688 L 123.429688 64.785156 C 123.328125 64.550781 123.125 64.375 122.878906 64.308594 L 122.667969 65.101562 L 121.910156 65.417969 L 141.261719 111.804688 L 68.761719 80.265625 L 73.496094 53.027344 L 122.457031 65.894531 L 122.667969 65.101562 L 121.910156 65.417969 L 122.667969 65.101562 " fill-opacity="1" fill-rule="nonzero"/></g></g></g></svg>