<svg xmlns="http://www.w3.org/2000/svg" xmlns:xlink="http://www.w3.org/1999/xlink" width="100" zoomAndPan="magnify" viewBox="0 0 75 225" height="300" preserveAspectRatio="xMidYMid meet" version="1.0"><defs><filter x="0%" y="0%" width="100%" height="100%" id="id1"><feColorMatrix values="0 0 0 0 1 0 0 0 0 1 0 0 0 0 1 0 0 0 1 0" color-interpolation-filters="sRGB"/></filter><mask id="id2"><g filter="url(#id1)"><rect x="-7.5" width="90" fill="#000000" y="-22.5" height="270" fill-opacity="0.498"/></g></mask><clipPath id="id3"><path d="M 1 0 L 71 0 L 71 124 L 1 124 Z M 1 0 " clip-rule="nonzero"/></clipPath><clipPath id="id4"><path d="M 77.867188 120.523438 L 7.980469 129.808594 L -9.308594 -0.296875 L 60.578125 -9.582031 Z M 77.867188 120.523438 " clip-rule="nonzero"/></clipPath><clipPath id="id5"><path d="M 77.867188 120.523438 L 7.980469 129.808594 L -9.308594 -0.296875 L 60.578125 -9.582031 Z M 77.867188 120.523438 " clip-rule="nonzero"/></clipPath><clipPath id="id6"><rect x="0" width="75" y="0" height="130"/></clipPath></defs><g mask="url(#id2)"><g transform="matrix(1, 0, 0, 1, 0, -0.000000000000008531)"><g clip-path="url(#id6)"><g clip-path="url(#id3)"><g clip-path="url(#id4)"><g clip-path="url(#id5)"><path fill="#494949" d="M 2.90625 78.765625 C 3.433594 78.777344 4.195312 78.578125 4.578125 78.332031 C 5.023438 78.449219 5.464844 78.550781 5.871094 78.585938 C 5.449219 78.707031 5.039062 78.839844 4.648438 79.019531 C 4.136719 79.261719 3.980469 79.695312 3.902344 80.222656 C 3.792969 80.945312 3.933594 81.234375 4.515625 81.648438 C 4.878906 81.90625 5.792969 82.332031 6.117188 81.742188 C 6.402344 81.230469 5.75 80.917969 5.296875 80.742188 C 5.828125 80.140625 7.363281 80.390625 8.019531 80.308594 L 8.046875 80.351562 C 7.445312 80.707031 6.617188 81.273438 6.488281 81.851562 C 6.386719 82.292969 6.601562 83.113281 6.925781 83.417969 C 7.28125 83.75 8.019531 83.609375 8.414062 83.363281 C 8.925781 83.039062 8.597656 82.746094 8.234375 82.542969 C 8.554688 82.066406 9.039062 81.953125 9.515625 81.773438 C 10.0625 81.773438 10.605469 81.878906 11.089844 82.078125 C 11.4375 82.21875 11.75 82.441406 12.105469 82.535156 C 12.398438 82.609375 12.726562 82.59375 13.007812 82.558594 C 12.75 85.078125 11.851562 98.136719 11.851562 98.136719 C 11.636719 100.6875 13.535156 101.304688 13.535156 101.304688 L 15.3125 102.171875 C 18.832031 103.949219 23.457031 104.234375 25.703125 104.257812 C 26.742188 105.183594 28.644531 105.542969 29.761719 106.144531 C 31 106.816406 32.382812 107.679688 33.8125 107.828125 C 35.027344 108.839844 36.714844 108.570312 38.210938 109.3125 C 38.375 109.691406 38.558594 110.164062 38.742188 110.71875 C 39.078125 112.195312 40.671875 113.390625 42.28125 114.417969 C 42.472656 114.675781 42.679688 114.925781 42.90625 115.164062 C 43.359375 115.667969 43.894531 116.070312 44.460938 116.394531 C 45.28125 117.601562 45.898438 119.011719 47.144531 119.746094 C 48.09375 120.285156 48.96875 120.515625 49.65625 120.625 C 50.042969 121.226562 50.480469 121.847656 51.03125 122.421875 C 52.417969 123.855469 54.695312 123.316406 55.828125 122.351562 C 57.464844 122.417969 58.964844 121.972656 59.972656 120.707031 C 60.164062 120.9375 60.394531 121.171875 60.667969 121.398438 C 60.992188 121.683594 62.503906 122.417969 64.15625 121.714844 C 65.988281 121.183594 66.960938 119 67.371094 117.183594 C 67.855469 115.304688 68.132812 113.460938 68.628906 112.164062 C 69.105469 110.863281 69.640625 110.113281 69.613281 110.101562 C 69.640625 110.113281 69.058594 110.828125 68.496094 112.113281 C 67.914062 113.390625 67.515625 115.246094 66.933594 117.054688 C 66.398438 118.871094 65.410156 120.660156 63.910156 120.984375 C 62.4375 121.484375 61.476562 120.851562 61.203125 120.660156 C 61.035156 120.527344 60.878906 120.386719 60.734375 120.242188 C 60.839844 120.257812 60.945312 120.265625 61.058594 120.269531 C 61.4375 120.378906 62.210938 120.101562 63.046875 119.515625 C 63.699219 119.289062 64.675781 118.777344 65.515625 117.804688 C 66.75 116.554688 67.476562 114.425781 67.546875 112.429688 C 67.675781 110.453125 67.71875 108.511719 67.65625 107.085938 C 67.648438 105.625 68.394531 104.894531 68.371094 104.902344 C 68.398438 104.890625 67.597656 105.585938 67.515625 107.078125 C 67.492188 108.519531 67.335938 110.417969 67.09375 112.382812 C 66.9375 113.960938 66.410156 115.464844 65.597656 116.554688 C 65.878906 115.980469 66.089844 115.351562 66.195312 114.671875 C 66.71875 113.582031 67.121094 112.308594 67.199219 110.953125 C 67.164062 109.765625 66.765625 108.71875 66.320312 107.828125 C 66.378906 107.289062 66.445312 106.976562 66.433594 106.972656 C 66.445312 106.972656 66.367188 107.253906 66.277344 107.746094 C 66.160156 107.511719 66.039062 107.292969 65.921875 107.082031 C 65.917969 107.058594 65.914062 107.039062 65.910156 107.015625 C 66.050781 106.679688 66.167969 106.324219 66.246094 105.949219 C 66.53125 104.457031 66.445312 102.945312 66.046875 101.808594 C 66.132812 101.191406 66.148438 100.597656 66.066406 100.0625 C 66.398438 99.015625 66.464844 97.9375 66.28125 97.074219 C 66.8125 95.214844 67.367188 93.316406 67.207031 91.394531 C 67.183594 91.125 67.132812 90.867188 67.074219 90.613281 L 70.324219 79.167969 C 70.324219 79.167969 71.722656 74.25 69.820312 71.816406 C 69.820312 71.816406 61.285156 62.347656 58.515625 60.117188 C 58.824219 59.6875 59.039062 58.886719 59.164062 58.59375 C 59.488281 57.835938 59.804688 57.15625 60.042969 56.371094 C 60.324219 56.597656 60.714844 56.820312 60.972656 56.847656 C 60.988281 57.3125 61.140625 58.230469 61.726562 57.9375 C 62.183594 57.710938 62.058594 56.722656 61.949219 56.351562 C 61.769531 55.761719 61.53125 55.371094 60.902344 55.167969 C 60.351562 54.988281 59.945312 55.039062 59.558594 54.644531 C 59.78125 54.335938 59.988281 53.902344 60.234375 53.539062 C 60.253906 54.058594 60.484375 54.675781 61.078125 54.476562 C 61.519531 54.324219 61.78125 53.53125 61.835938 53.113281 C 61.898438 52.59375 61.761719 51.824219 61.453125 51.410156 C 61.011719 50.816406 60.472656 51.238281 60.003906 51.539062 C 59.558594 51.832031 59.039062 52.097656 58.640625 52.476562 C 58.777344 52.078125 58.855469 51.65625 58.863281 51.226562 C 59.304688 51.15625 59.792969 50.894531 59.953125 50.492188 C 60.207031 49.855469 59.167969 49.71875 58.734375 49.671875 C 57.417969 49.523438 57.113281 50.878906 56.785156 51.898438 C 56.667969 52.265625 56.515625 52.628906 56.414062 53.007812 C 56.378906 52.992188 56.34375 52.972656 56.308594 52.957031 C 56.378906 52.480469 56.070312 51.984375 55.917969 51.570312 C 55.757812 51.132812 55.582031 50.566406 55.546875 50.039062 C 56.011719 50.046875 56.695312 49.894531 56.875 49.53125 C 57.132812 49.027344 56.117188 48.769531 55.769531 48.675781 C 55.285156 48.535156 54.542969 48.476562 54.214844 48.996094 C 53.933594 49.445312 53.917969 50.242188 53.984375 50.734375 C 54.09375 51.566406 54.355469 52.363281 54.542969 53.199219 C 54.382812 55.019531 53.8125 57.777344 53.8125 57.777344 C 52.996094 60.566406 54.957031 62.832031 54.957031 62.832031 L 61.300781 70.742188 L 64.480469 75.425781 C 64.40625 77.003906 63.488281 79.445312 63.488281 79.445312 C 62.765625 80.875 62.238281 82.710938 61.863281 84.425781 C 61.53125 83.535156 61.105469 82.628906 60.777344 81.785156 C 60.3125 82.53125 61.078125 84.804688 61.152344 85.742188 C 59.675781 84.335938 59.632812 81.648438 58.5625 79.882812 C 58.769531 81.261719 58.933594 82.644531 59.117188 84.023438 C 58.867188 82.988281 58.078125 81.40625 57.40625 80.636719 C 57.171875 80.992188 57.054688 81.648438 56.984375 82.328125 C 55.496094 77.859375 55.445312 72.839844 54.09375 68.230469 C 53.359375 65.71875 52.382812 63.203125 51.816406 60.644531 C 51.25 58.109375 51.136719 55.4375 50.636719 52.914062 C 50.035156 49.859375 49.464844 46.703125 48.59375 43.734375 C 47.875 45.035156 48.277344 47.179688 48.507812 48.726562 C 47.621094 47.261719 47.363281 45.398438 46.585938 43.886719 C 46.523438 45.117188 46.316406 46.414062 46.105469 47.71875 C 44.445312 43.003906 41.996094 34.652344 43.921875 30.933594 L 43.859375 30.824219 C 45.707031 29.753906 49.9375 26.738281 52.492188 20.488281 L 56.457031 10.496094 C 56.457031 10.496094 57.792969 7.480469 59.679688 6.203125 C 59.679688 6.203125 61.929688 4.71875 60.832031 1.789062 C 60.832031 1.789062 59.371094 -0.855469 58.84375 -2.441406 C 58.84375 -2.441406 57.328125 -6.617188 55.320312 -6.613281 C 55.175781 -6.9375 55.105469 -7.484375 54.847656 -7.679688 C 54.40625 -8.019531 54.003906 -7.777344 53.863281 -7.390625 C 53.65625 -7.6875 53.433594 -8.039062 53.007812 -8.015625 C 52.6875 -8.003906 52.527344 -7.835938 52.46875 -7.605469 C 52.097656 -8.25 51.3125 -8.074219 51.152344 -7.457031 C 50.933594 -7.804688 50.671875 -8.050781 50.160156 -8.050781 C 49.496094 -8.050781 49.378906 -7.675781 49.398438 -7.210938 C 48.9375 -7.558594 48.011719 -7.324219 47.792969 -6.777344 C 47.550781 -6.175781 48.15625 -5.636719 48.742188 -5.277344 C 48.765625 -5.230469 48.789062 -5.1875 48.816406 -5.136719 C 49.121094 -4.523438 49.878906 -4.039062 50.332031 -3.5 C 50.847656 -2.902344 51.28125 -2.285156 51.738281 -1.648438 C 52.210938 -0.988281 52.601562 -0.28125 52.894531 0.457031 C 53.023438 0.789062 53.203125 1.265625 53.328125 1.75 C 53.378906 3.382812 53.085938 4.160156 53.085938 4.160156 C 51.875 8.109375 44.851562 17.085938 44.851562 17.085938 C 42.550781 19.996094 37.898438 25.421875 37.898438 25.421875 C 35.445312 28.351562 34.558594 30.601562 34.558594 30.601562 C 32.964844 34.679688 34.046875 42.816406 34.046875 42.816406 C 34.402344 45.480469 34.390625 49.417969 34.324219 52.058594 C 33.640625 50.9375 33.214844 49.480469 32.398438 48.566406 C 32.476562 49.867188 32.488281 51.136719 32.722656 52.410156 C 32.152344 51.46875 31.890625 49.992188 30.933594 49.398438 C 30.796875 50 30.742188 50.628906 30.722656 51.269531 C 30.394531 50.40625 29.65625 48.265625 29.429688 46.109375 C 29.429688 46.109375 28.699219 41.425781 27.375 38.894531 C 27.292969 38.003906 26.851562 34.691406 24.875 32.046875 C 24.875 32.046875 23.5 30.019531 22.464844 27 C 22.464844 27 21.464844 23.035156 19.089844 18.851562 C 19.089844 18.851562 14.816406 12.246094 14.558594 9.121094 C 14.558594 9.121094 14.371094 6.636719 14.238281 5.167969 C 14.488281 4.636719 14.859375 4.164062 15.195312 3.519531 C 15.488281 2.960938 15.421875 2.007812 15.210938 1.382812 C 14.980469 0.695312 14.550781 0.558594 13.988281 0.488281 C 13.765625 0.0585938 13.167969 -0.09375 12.710938 -0.0585938 C 12.023438 -0.0078125 11.582031 0.15625 11.417969 0.644531 C 11.074219 0.203125 10.300781 0.292969 9.964844 0.730469 L 9.851562 0.738281 C 9.71875 0.535156 9.261719 0.585938 9.015625 0.777344 C 8.8125 0.929688 8.746094 1.09375 8.738281 1.277344 C 8.335938 1.199219 8.015625 1.457031 7.847656 1.820312 C 6.695312 1.804688 7.257812 3.480469 7.332031 4.089844 C 7.441406 4.984375 7.09375 5.824219 7.660156 6.664062 C 8.152344 7.390625 8.632812 7.78125 8.832031 8.679688 C 9.023438 9.546875 9.550781 10.011719 9.976562 10.75 C 10.53125 13.746094 11.265625 20.601562 11.265625 20.601562 C 12.238281 28.519531 16.609375 34.640625 16.609375 34.640625 C 18.804688 38.6875 18.9375 42.0625 18.9375 42.0625 C 19.144531 44.648438 19.277344 47.117188 19.359375 49.371094 C 18.894531 48.503906 18.40625 47.703125 17.953125 47.140625 C 17.539062 48.707031 18.429688 51.191406 18.53125 52.90625 C 17.847656 52.304688 17.78125 51.039062 17.003906 50.460938 C 17.316406 52.15625 17.703125 55.34375 17.363281 57.046875 C 16.929688 56.554688 16.355469 55.1875 15.796875 54.445312 C 15.921875 56.1875 16.917969 57.828125 17.238281 59.566406 C 17.585938 61.464844 17.8125 63.390625 18.148438 65.277344 C 18.644531 68.019531 18.988281 70.292969 20.246094 72.722656 C 21.453125 75.054688 23.058594 77.019531 24.277344 79.292969 C 25.417969 81.414062 26.585938 83.582031 27.351562 85.824219 C 27.835938 87.253906 28.261719 88.960938 28.683594 90.488281 C 28.304688 89.460938 27.9375 88.253906 27.441406 87.472656 C 27.296875 89.40625 27.765625 91.246094 28.019531 93.160156 C 27.429688 92.140625 26.71875 90.554688 25.976562 89.558594 C 26.039062 90.722656 26.367188 91.808594 26.566406 92.925781 C 26.6875 93.613281 27.230469 95.085938 26.855469 95.683594 C 26.394531 95.253906 25.753906 94.414062 25.164062 94.246094 C 24.878906 94.726562 25.140625 96.082031 25.378906 97.191406 C 23.617188 96.660156 21.324219 96.273438 19.023438 96.761719 L 17.253906 81.722656 C 17.253906 81.722656 17.480469 78.0625 14.195312 77.710938 C 14.195312 77.710938 11.78125 77.402344 9.820312 76.324219 C 9.820312 76.324219 8.910156 75.964844 8.125 76.042969 L 8.125 76.035156 C 7.554688 75.984375 6.949219 75.84375 6.402344 75.640625 C 5.917969 75.460938 5.449219 75.0625 4.9375 74.960938 C 4.304688 74.835938 3.890625 75.238281 3.402344 75.597656 C 2.863281 76 2.554688 76.175781 2.480469 76.902344 C 2.460938 77.105469 2.441406 77.3125 2.425781 77.515625 C 2.167969 77.664062 1.925781 77.832031 1.722656 78.039062 C 1.386719 78.378906 1.394531 78.90625 1.414062 79.371094 C 1.480469 80.816406 2.894531 79.628906 2.90625 78.765625 Z M 45.707031 117.164062 C 46.453125 117.8125 47.265625 118.410156 47.988281 119.042969 C 48.152344 119.191406 48.335938 119.335938 48.53125 119.484375 C 48.210938 119.386719 47.882812 119.261719 47.546875 119.089844 C 46.808594 118.742188 46.273438 117.996094 45.707031 117.164062 Z M 65.695312 99.242188 C 65.699219 99.261719 65.707031 99.277344 65.714844 99.292969 C 65.746094 99.390625 65.773438 99.488281 65.792969 99.585938 C 65.707031 99.851562 65.605469 100.109375 65.480469 100.363281 C 65.445312 100.4375 65.40625 100.511719 65.367188 100.582031 C 65.339844 100.554688 65.316406 100.53125 65.289062 100.507812 C 65.449219 100.097656 65.578125 99.675781 65.695312 99.242188 Z M 65.617188 101.175781 C 65.625 101.195312 65.632812 101.210938 65.644531 101.230469 C 65.6875 101.332031 65.730469 101.4375 65.769531 101.546875 C 65.648438 102.199219 65.441406 102.878906 65.183594 103.542969 C 65.132812 103.664062 65.082031 103.789062 65.03125 103.914062 C 64.925781 103.59375 64.820312 103.28125 64.71875 102.988281 C 64.996094 102.414062 65.316406 101.8125 65.617188 101.175781 Z M 64.378906 113.714844 C 64.667969 113.476562 65.589844 112.605469 65.960938 111.128906 C 65.996094 111 66.019531 110.863281 66.046875 110.730469 C 66.027344 111.71875 66 112.816406 65.816406 113.90625 C 65.167969 115.207031 64.320312 116.246094 63.6875 116.84375 C 63.835938 116.414062 63.941406 115.964844 64.011719 115.5 C 64.09375 114.925781 64.195312 114.351562 64.296875 113.777344 C 64.324219 113.757812 64.351562 113.734375 64.378906 113.714844 Z M 62.902344 118.617188 C 62.785156 118.660156 62.679688 118.6875 62.585938 118.710938 C 62.675781 118.613281 62.761719 118.511719 62.839844 118.410156 C 63.007812 118.351562 63.175781 118.28125 63.351562 118.183594 C 63.425781 118.15625 63.519531 118.109375 63.621094 118.042969 C 63.378906 118.257812 63.136719 118.453125 62.902344 118.617188 Z M 64.550781 106.652344 C 64.6875 106.292969 64.828125 105.921875 64.96875 105.542969 C 65.046875 105.71875 65.140625 105.910156 65.242188 106.117188 C 65.253906 106.1875 65.269531 106.253906 65.28125 106.320312 C 65.320312 106.511719 65.351562 106.707031 65.378906 106.902344 C 65.214844 107.226562 65.015625 107.535156 64.808594 107.835938 C 64.765625 107.425781 64.675781 107.03125 64.550781 106.652344 Z M 65.160156 105.742188 C 65.101562 105.640625 65.050781 105.542969 65 105.453125 C 65.019531 105.398438 65.039062 105.34375 65.058594 105.289062 C 65.09375 105.4375 65.128906 105.589844 65.160156 105.742188 Z M 64.839844 104.363281 C 64.777344 104.507812 64.71875 104.648438 64.65625 104.792969 C 64.574219 104.632812 64.53125 104.542969 64.53125 104.542969 C 64.53125 104.542969 64.570312 104.640625 64.644531 104.816406 C 64.5 105.144531 64.355469 105.46875 64.214844 105.785156 C 64.1875 105.730469 64.164062 105.675781 64.136719 105.621094 C 64.082031 105.5 64.027344 105.378906 63.96875 105.257812 C 64.019531 104.992188 64.082031 104.707031 64.175781 104.402344 C 64.265625 104.046875 64.40625 103.683594 64.574219 103.308594 C 64.660156 103.644531 64.75 103.996094 64.839844 104.363281 Z M 66.742188 110.945312 C 66.671875 111.539062 66.527344 112.117188 66.339844 112.667969 C 66.359375 111.332031 66.230469 110.097656 66.25 109.121094 C 66.25 108.855469 66.261719 108.613281 66.273438 108.390625 C 66.566406 109.175781 66.78125 110.042969 66.742188 110.945312 Z M 66.203125 108.203125 C 66.183594 108.351562 66.164062 108.511719 66.144531 108.683594 C 66.125 108.398438 66.089844 108.117188 66.050781 107.832031 C 66.101562 107.953125 66.152344 108.078125 66.203125 108.203125 Z M 65.222656 110.914062 C 65.050781 111.449219 64.808594 111.871094 64.570312 112.195312 C 64.746094 111.085938 64.878906 109.976562 64.867188 108.863281 C 65.082031 108.550781 65.292969 108.222656 65.488281 107.878906 C 65.574219 108.992188 65.511719 110.066406 65.222656 110.914062 Z M 65.800781 105.847656 C 65.773438 105.949219 65.742188 106.050781 65.707031 106.152344 C 65.570312 105.652344 65.421875 105.160156 65.277344 104.6875 C 65.390625 104.355469 65.507812 104.019531 65.617188 103.6875 C 65.761719 103.226562 65.878906 102.757812 65.96875 102.292969 C 66.167969 103.34375 66.121094 104.628906 65.800781 105.847656 Z M 65.769531 101.167969 C 65.742188 101.117188 65.714844 101.070312 65.6875 101.023438 C 65.753906 100.882812 65.816406 100.742188 65.875 100.597656 C 65.871094 100.8125 65.847656 101.035156 65.816406 101.261719 C 65.800781 101.230469 65.785156 101.199219 65.769531 101.167969 Z M 65.878906 99.332031 C 65.867188 99.304688 65.859375 99.273438 65.847656 99.246094 C 65.816406 99.171875 65.785156 99.101562 65.75 99.035156 C 65.792969 98.867188 65.835938 98.699219 65.882812 98.527344 C 65.960938 98.21875 66.042969 97.910156 66.132812 97.597656 C 66.140625 98.144531 66.054688 98.738281 65.878906 99.332031 Z M 64.578125 97.761719 C 64.574219 97.757812 64.574219 97.757812 64.578125 97.753906 C 64.574219 97.757812 64.574219 97.757812 64.578125 97.761719 Z M 64.148438 99.867188 C 64.144531 99.867188 64.140625 99.863281 64.144531 99.863281 C 64.140625 99.863281 64.144531 99.867188 64.148438 99.867188 Z M 65.25 100.597656 C 65.273438 100.625 65.296875 100.648438 65.316406 100.675781 C 65.046875 101.171875 64.734375 101.671875 64.4375 102.171875 C 64.429688 102.148438 64.421875 102.128906 64.414062 102.105469 C 64.417969 102.105469 64.417969 102.101562 64.421875 102.097656 C 64.78125 101.621094 65.042969 101.121094 65.25 100.597656 Z M 64.292969 102.257812 C 64.300781 102.292969 64.3125 102.328125 64.320312 102.363281 C 63.96875 102.964844 63.644531 103.558594 63.449219 104.144531 C 63.328125 103.878906 63.199219 103.613281 63.070312 103.347656 C 63.546875 103.023438 63.992188 102.613281 64.292969 102.257812 Z M 54.71875 122.230469 C 53.730469 122.796875 52.285156 122.972656 51.339844 122.085938 C 50.871094 121.65625 50.460938 121.171875 50.085938 120.683594 C 50.226562 120.699219 50.351562 120.710938 50.46875 120.71875 C 51.765625 121.417969 53.261719 121.988281 54.71875 122.230469 Z M 41.855469 109.804688 C 42.394531 111.53125 42.839844 113.273438 43.734375 114.824219 C 43.585938 114.707031 43.429688 114.597656 43.269531 114.496094 C 43.058594 114.425781 42.863281 114.34375 42.671875 114.257812 C 41.632812 113.0625 40.980469 111.625 40.402344 110.597656 C 40.320312 110.445312 40.242188 110.300781 40.164062 110.164062 C 40.808594 110.332031 41.414062 110.300781 41.855469 109.804688 Z M 40.019531 110.121094 C 40.101562 110.289062 40.1875 110.46875 40.273438 110.664062 C 40.707031 111.546875 41.167969 112.730469 41.898438 113.863281 C 39.75 112.597656 38.765625 110.570312 38.25 109.332031 C 38.796875 109.605469 39.421875 109.9375 40.019531 110.121094 Z M 40.019531 110.121094 " fill-opacity="1" fill-rule="nonzero"/></g></g></g></g></g></g></svg>