<svg xmlns="http://www.w3.org/2000/svg" xmlns:xlink="http://www.w3.org/1999/xlink" width="200" zoomAndPan="magnify" viewBox="0 0 150 149.999998" height="200" preserveAspectRatio="xMidYMid meet" version="1.0"><defs><clipPath id="id1"><path d="M 9 18.171875 L 87 18.171875 L 87 132.171875 L 9 132.171875 Z M 9 18.171875 " clip-rule="nonzero"/></clipPath><clipPath id="id2"><path d="M 113 29 L 141.480469 29 L 141.480469 122 L 113 122 Z M 113 29 " clip-rule="nonzero"/></clipPath></defs><g clip-path="url(#id1)"><path fill="#ffffff" d="M 82.707031 18.1875 C 70.886719 18.1875 69.363281 18.1875 65.207031 23.769531 C 62.261719 27.71875 56.171875 35.894531 32.960938 52.191406 L 18.554688 52.191406 C 13.308594 52.191406 9.042969 56.464844 9.042969 61.71875 L 9.042969 88.628906 C 9.042969 93.878906 13.308594 98.152344 18.554688 98.152344 L 32.964844 98.152344 C 56.175781 114.453125 62.261719 122.625 65.210938 126.578125 C 69.363281 132.160156 70.886719 132.160156 82.707031 132.160156 C 84.53125 132.160156 86.011719 130.679688 86.011719 128.851562 L 86.011719 21.496094 C 86.007812 19.667969 84.53125 18.1875 82.707031 18.1875 Z M 82.707031 18.1875 " fill-opacity="1" fill-rule="nonzero"/></g><path fill="#ffffff" d="M 108.757812 42.726562 C 107.089844 41.40625 104.667969 41.691406 103.347656 43.359375 C 102.027344 45.035156 102.3125 47.460938 103.980469 48.78125 C 112.300781 55.363281 117.070312 65.207031 117.070312 75.796875 C 117.070312 86.3125 112.351562 96.121094 104.121094 102.703125 C 102.457031 104.035156 102.1875 106.460938 103.515625 108.128906 C 104.277344 109.082031 105.398438 109.578125 106.527344 109.578125 C 107.371094 109.578125 108.222656 109.300781 108.929688 108.734375 C 119 100.675781 124.777344 88.671875 124.777344 75.796875 C 124.777344 62.832031 118.9375 50.78125 108.757812 42.726562 Z M 108.757812 42.726562 " fill-opacity="1" fill-rule="nonzero"/><path fill="#ffffff" d="M 96.710938 55.917969 C 94.976562 54.6875 92.570312 55.101562 91.339844 56.84375 C 90.113281 58.582031 90.527344 60.992188 92.265625 62.222656 C 96.667969 65.335938 99.296875 70.414062 99.296875 75.796875 C 99.296875 81.234375 96.628906 86.339844 92.15625 89.453125 C 90.410156 90.671875 89.976562 93.074219 91.191406 94.824219 C 91.941406 95.902344 93.140625 96.480469 94.359375 96.480469 C 95.117188 96.480469 95.886719 96.257812 96.554688 95.789062 C 103.097656 91.234375 107.003906 83.761719 107.003906 75.796875 C 107.003906 67.910156 103.15625 60.476562 96.710938 55.917969 Z M 96.710938 55.917969 " fill-opacity="1" fill-rule="nonzero"/><g clip-path="url(#id2)"><path fill="#ffffff" d="M 119.800781 30.554688 C 118.148438 29.207031 115.722656 29.457031 114.378906 31.105469 C 113.03125 32.757812 113.28125 35.1875 114.929688 36.535156 C 126.773438 46.207031 133.570312 60.515625 133.570312 75.796875 C 133.570312 90.929688 126.886719 105.152344 115.230469 114.8125 C 113.59375 116.171875 113.363281 118.605469 114.71875 120.25 C 115.480469 121.171875 116.582031 121.644531 117.691406 121.644531 C 118.554688 121.644531 119.425781 121.355469 120.144531 120.761719 C 133.574219 109.625 141.273438 93.238281 141.273438 75.796875 C 141.277344 58.1875 133.445312 41.699219 119.800781 30.554688 Z M 119.800781 30.554688 " fill-opacity="1" fill-rule="nonzero"/></g></svg>