<svg xmlns="http://www.w3.org/2000/svg" xmlns:xlink="http://www.w3.org/1999/xlink" width="400" zoomAndPan="magnify" viewBox="0 0 300 74.999997" height="100" preserveAspectRatio="xMidYMid meet" version="1.0"><defs><clipPath id="id1"><path d="M 62 24.914062 L 238.667969 24.914062 L 238.667969 50.414062 L 62 50.414062 Z M 62 24.914062 " clip-rule="nonzero"/></clipPath></defs><path fill="#ffffff" d="M 146.542969 37.664062 C 146.542969 39.566406 148.167969 41.113281 150.167969 41.113281 C 152.171875 41.113281 153.792969 39.566406 153.792969 37.664062 C 153.792969 35.757812 152.171875 34.214844 150.167969 34.214844 C 148.167969 34.214844 146.542969 35.757812 146.542969 37.664062 " fill-opacity="1" fill-rule="nonzero"/><g clip-path="url(#id1)"><path fill="#ffffff" d="M 150.167969 47.390625 L 140.546875 37.664062 L 150.167969 27.933594 L 159.792969 37.664062 Z M 233.691406 35.210938 L 229.242188 32.785156 L 228.097656 36.390625 L 161.519531 36.390625 L 150.167969 24.917969 L 138.820312 36.390625 L 72.242188 36.390625 L 71.09375 32.785156 L 66.644531 35.210938 L 62.199219 37.640625 L 71.066406 42.539062 L 72.140625 38.933594 L 138.820312 38.933594 L 150.167969 50.410156 L 161.519531 38.933594 L 228.195312 38.933594 L 229.273438 42.539062 L 238.140625 37.640625 L 233.691406 35.210938 " fill-opacity="1" fill-rule="nonzero"/></g></svg>